<svg width="327" height="137" viewBox="0 0 327 137" fill="none" xmlns="http://www.w3.org/2000/svg">
<path d="M0 35C0 22.2975 10.2975 12 23 12H304C316.703 12 327 22.2975 327 35V137H0V35Z" fill="#F5BE41"/>
<path d="M50.4961 100H50.8828V96.8477H50.543C49.957 96.8477 49.5078 96.6602 49.1953 96.2852C48.8828 95.9023 48.6914 95.4727 48.6211 94.9961L47.5195 87.5312L44.8711 88.0703L44.9531 88.6328C44.1406 88.8828 43.3672 89.1797 42.6328 89.5234C41.9062 89.8594 41.2617 90.2539 40.6992 90.707C40.1445 91.1602 39.7031 91.6758 39.375 92.2539C39.0547 92.832 38.8945 93.4844 38.8945 94.2109C38.8945 95.5312 39.3164 96.5352 40.1602 97.2227C41.0039 97.9102 42.0586 98.2539 43.3242 98.2539C43.8945 98.2539 44.418 98.1641 44.8945 97.9844C45.3711 97.7969 45.8477 97.5117 46.3242 97.1289C46.5195 97.7617 46.8008 98.293 47.168 98.7227C47.5352 99.1445 47.9961 99.4648 48.5508 99.6836C49.1055 99.8945 49.7539 100 50.4961 100ZM45.7266 93.6602C45.7266 94.0195 45.6016 94.3203 45.3516 94.5625C45.1094 94.8047 44.8008 94.9844 44.4258 95.1016C44.0508 95.2188 43.6719 95.2773 43.2891 95.2773C42.8359 95.2773 42.4688 95.1758 42.1875 94.9727C41.9141 94.7617 41.7773 94.4727 41.7773 94.1055C41.7773 93.8477 41.875 93.5977 42.0703 93.3555C42.2656 93.1133 42.5312 92.8867 42.8672 92.6758C43.2109 92.457 43.6016 92.2539 44.0391 92.0664C44.4766 91.8711 44.9336 91.6914 45.4102 91.5273L45.6328 92.8867C45.6641 93.0273 45.6875 93.1641 45.7031 93.2969C45.7188 93.4297 45.7266 93.5508 45.7266 93.6602ZM50.9531 100C51.5469 100 52.0391 99.9297 52.4297 99.7891C52.8203 99.6484 53.1641 99.4609 53.4609 99.2266C53.7578 98.9844 54.0508 98.7109 54.3398 98.4062C54.8008 98.7734 55.2578 99.0977 55.7109 99.3789C56.1719 99.6602 56.6445 99.8789 57.1289 100.035C57.6133 100.191 58.125 100.27 58.6641 100.27C59.3516 100.27 59.9336 100.152 60.4102 99.918C60.8945 99.6758 61.3281 99.3047 61.7109 98.8047C62 99.1484 62.3867 99.4336 62.8711 99.6602C63.3555 99.8867 63.8477 100 64.3477 100H64.6641V96.8477H64.3594C64.1094 96.8477 63.8672 96.7812 63.6328 96.6484C63.4062 96.5156 63.207 96.293 63.0352 95.9805C62.8633 95.668 62.7305 95.2539 62.6367 94.7383C62.5039 93.9727 62.2344 93.2812 61.8281 92.6641C61.4297 92.0391 60.9102 91.5469 60.2695 91.1875C59.6367 90.8203 58.8828 90.6367 58.0078 90.6367C57.2969 90.6367 56.6836 90.7852 56.168 91.082C55.6523 91.3789 55.2031 91.7656 54.8203 92.2422C54.4375 92.7188 54.0898 93.2227 53.7773 93.7539C53.4727 94.2773 53.1758 94.7773 52.8867 95.2539C52.5977 95.7227 52.2969 96.1055 51.9844 96.4023C51.6719 96.6992 51.3086 96.8477 50.8945 96.8477H50.4727L50.4609 100H50.9531ZM58.1016 93.6367C58.6719 93.6367 59.1211 93.8359 59.4492 94.2344C59.7773 94.625 59.9414 95.0977 59.9414 95.6523C59.9414 96.0742 59.8398 96.4336 59.6367 96.7305C59.4414 97.0273 59.1211 97.1758 58.6758 97.1758C58.4961 97.1758 58.2891 97.1445 58.0547 97.082C57.8281 97.0195 57.5781 96.9141 57.3047 96.7656C57.1016 96.6562 56.8867 96.5156 56.6602 96.3438C56.4336 96.1719 56.1992 95.9727 55.957 95.7461C56.0977 95.4414 56.2695 95.1289 56.4727 94.8086C56.6836 94.4805 56.9219 94.2031 57.1875 93.9766C57.4609 93.75 57.7656 93.6367 58.1016 93.6367ZM64.1719 96.8477V100H65.1094V96.8477H64.1719ZM68.4375 101.57L66.5039 103.492L68.4375 105.438L70.3711 103.492L68.4375 101.57ZM64.4766 101.57L62.5664 103.492L64.4766 105.438L66.4336 103.492L64.4766 101.57ZM68.1797 91.9258C68.2188 92.3242 68.2461 92.7344 68.2617 93.1562C68.2852 93.5703 68.2969 93.9961 68.2969 94.4336C68.2969 95.2461 68.125 95.8516 67.7812 96.25C67.4375 96.6484 66.8242 96.8477 65.9414 96.8477H64.8281V100H65.9414C66.6836 100 67.3828 99.8633 68.0391 99.5898C68.7031 99.3164 69.2656 98.9297 69.7266 98.4297C69.9609 98.7422 70.2383 99.0156 70.5586 99.25C70.8789 99.4844 71.25 99.668 71.6719 99.8008C72.0938 99.9336 72.5703 100 73.1016 100H73.3594V96.8477H73.125C72.6875 96.8477 72.3281 96.7656 72.0469 96.6016C71.7656 96.4375 71.5508 96.2031 71.4023 95.8984C71.2617 95.5938 71.1797 95.2383 71.1562 94.832L70.9219 91.5977L68.1797 91.9258ZM72.9023 96.8477V100H73.4648V96.8477H72.9023ZM75.3164 101.465L73.2891 103.492L75.3164 105.52L77.3438 103.492L75.3164 101.465ZM74.4609 100C75.7188 100 76.7109 99.7734 77.4375 99.3203C78.1641 98.8594 78.6836 98.2227 78.9961 97.4102C79.3086 96.5898 79.4648 95.6328 79.4648 94.5391C79.4648 93.8672 79.4141 93.1641 79.3125 92.4297C79.2188 91.6875 79.0742 90.9336 78.8789 90.168L76.043 90.9297C76.2617 91.7734 76.4141 92.5391 76.5 93.2266C76.5938 93.9141 76.6406 94.4727 76.6406 94.9023C76.6406 95.6445 76.4609 96.1562 76.1016 96.4375C75.75 96.7109 75.1953 96.8477 74.4375 96.8477H73.1602V100H74.4609ZM88.125 83.5117V94.6562C88.125 96.4531 88.5195 97.793 89.3086 98.6758C90.1055 99.5586 91.3516 100 93.0469 100H93.3281V96.8477H93.0469C92.2734 96.8477 91.7539 96.668 91.4883 96.3086C91.2227 95.9414 91.0898 95.3164 91.0898 94.4336V83.5117H88.125ZM92.8594 96.8477V100H93.7969V96.8477H92.8594ZM97.125 101.57L95.1914 103.492L97.125 105.438L99.0586 103.492L97.125 101.57ZM93.1641 101.57L91.2539 103.492L93.1641 105.438L95.1211 103.492L93.1641 101.57ZM94.8281 100C96.0859 100 97.0781 99.7734 97.8047 99.3203C98.5312 98.8594 99.0508 98.2227 99.3633 97.4102C99.6758 96.5898 99.832 95.6328 99.832 94.5391C99.832 93.8672 99.7812 93.1641 99.6797 92.4297C99.5859 91.6875 99.4414 90.9336 99.2461 90.168L96.4102 90.9297C96.6289 91.7734 96.7812 92.5391 96.8672 93.2266C96.9609 93.9141 97.0078 94.4727 97.0078 94.9023C97.0078 95.6445 96.8281 96.1562 96.4688 96.4375C96.1172 96.7109 95.5625 96.8477 94.8047 96.8477H93.5273V100H94.8281ZM119.227 92.6992C119.812 92.6992 120.297 92.875 120.68 93.2266C121.062 93.5703 121.254 94.0273 121.254 94.5977C121.254 95.0508 121.098 95.4258 120.785 95.7227C120.48 96.0117 120.051 96.2422 119.496 96.4141C118.941 96.5781 118.297 96.6914 117.562 96.7539C116.828 96.8164 116.035 96.8477 115.184 96.8477H113.965C114.34 96.2852 114.738 95.7539 115.16 95.2539C115.582 94.7539 116.02 94.3125 116.473 93.9297C116.926 93.5469 117.383 93.2461 117.844 93.0273C118.312 92.8086 118.773 92.6992 119.227 92.6992ZM110.73 96.8477H107.801V100H115.066C116.379 100 117.586 99.9062 118.688 99.7188C119.789 99.5234 120.746 99.2109 121.559 98.7812C122.371 98.3438 123 97.7656 123.445 97.0469C123.898 96.3281 124.125 95.4414 124.125 94.3867C124.125 93.457 123.914 92.6328 123.492 91.9141C123.07 91.1953 122.484 90.6328 121.734 90.2266C120.984 89.8125 120.117 89.6055 119.133 89.6055C118.688 89.6055 118.258 89.6602 117.844 89.7695C117.438 89.8789 117.043 90.0391 116.66 90.25C116.277 90.4531 115.898 90.7031 115.523 91C115.156 91.2969 114.785 91.6367 114.41 92.0195V83.5117H111.434V95.793C111.309 95.9727 111.188 96.1484 111.07 96.3203C110.961 96.4844 110.848 96.6602 110.73 96.8477ZM126.75 83.5117V94.6562C126.75 96.4531 127.145 97.793 127.934 98.6758C128.73 99.5586 129.977 100 131.672 100H131.953V96.8477H131.672C130.898 96.8477 130.379 96.668 130.113 96.3086C129.848 95.9414 129.715 95.3164 129.715 94.4336V83.5117H126.75ZM145.922 100C146.609 100 147.184 99.8633 147.645 99.5898C148.113 99.3086 148.504 98.9531 148.816 98.5234C149.113 98.9844 149.535 99.3477 150.082 99.6133C150.637 99.8711 151.285 100 152.027 100H152.332V96.8477H152.004C151.59 96.8477 151.246 96.7734 150.973 96.625C150.699 96.4688 150.488 96.25 150.34 95.9688C150.199 95.6797 150.117 95.332 150.094 94.9258L149.848 91.6797L147.105 92.0195C147.145 92.5039 147.176 92.9922 147.199 93.4844C147.23 93.9688 147.246 94.3516 147.246 94.6328C147.246 95.0547 147.203 95.4336 147.117 95.7695C147.031 96.1055 146.891 96.3711 146.695 96.5664C146.5 96.7539 146.238 96.8477 145.91 96.8477C145.559 96.8477 145.27 96.7617 145.043 96.5898C144.816 96.4102 144.645 96.1758 144.527 95.8867C144.418 95.5898 144.352 95.2695 144.328 94.9258L144.082 91.9492L141.34 92.2891C141.363 92.5859 141.387 92.8906 141.41 93.2031C141.434 93.5156 141.449 93.8008 141.457 94.0586C141.473 94.3086 141.48 94.4922 141.48 94.6094C141.48 95.3281 141.336 95.8828 141.047 96.2734C140.758 96.6562 140.27 96.8477 139.582 96.8477C139.207 96.8477 138.891 96.7656 138.633 96.6016C138.383 96.4297 138.188 96.1992 138.047 95.9102C137.914 95.6133 137.836 95.2852 137.812 94.9258L137.566 91.9492L134.824 92.2891C134.848 92.5859 134.867 92.8906 134.883 93.2031C134.906 93.5156 134.926 93.7969 134.941 94.0469C134.957 94.2969 134.965 94.4844 134.965 94.6094C134.965 95.4531 134.754 96.0391 134.332 96.3672C133.91 96.6875 133.258 96.8477 132.375 96.8477H131.531V100H132.352C133.289 100 134.07 99.8633 134.695 99.5898C135.32 99.3164 135.844 98.9414 136.266 98.4648C136.594 98.9336 137.02 99.3086 137.543 99.5898C138.074 99.8633 138.746 100 139.559 100C140.23 100 140.852 99.8594 141.422 99.5781C141.992 99.2891 142.48 98.9102 142.887 98.4414C143.207 98.8945 143.617 99.2695 144.117 99.5664C144.617 99.8555 145.219 100 145.922 100ZM159.234 81.4023L157.301 83.3242L159.234 85.2695L161.168 83.3242L159.234 81.4023ZM155.273 81.4023L153.363 83.3242L155.273 85.2695L157.23 83.3242L155.273 81.4023ZM157.617 92.7578C157.133 92.7578 156.73 92.6992 156.41 92.582C156.09 92.457 155.93 92.1758 155.93 91.7383C155.93 91.4258 155.988 91.1055 156.105 90.7773C156.223 90.4492 156.402 90.1719 156.645 89.9453C156.887 89.7109 157.184 89.5938 157.535 89.5938C157.84 89.5938 158.102 89.6875 158.32 89.875C158.539 90.0625 158.727 90.3047 158.883 90.6016C159.039 90.8984 159.164 91.2188 159.258 91.5625C159.359 91.9062 159.434 92.2305 159.48 92.5352C159.176 92.6055 158.867 92.6602 158.555 92.6992C158.242 92.7383 157.93 92.7578 157.617 92.7578ZM156.352 96.8477H151.922V100H156.211C157.281 100 158.203 99.918 158.977 99.7539C159.75 99.5898 160.383 99.2969 160.875 98.875C161.375 98.4453 161.746 97.8477 161.988 97.082C162.23 96.3086 162.352 95.3203 162.352 94.1172C162.352 93.1953 162.266 92.2852 162.094 91.3867C161.922 90.4883 161.645 89.6758 161.262 88.9492C160.887 88.2227 160.395 87.6445 159.785 87.2148C159.184 86.7773 158.441 86.5586 157.559 86.5586C156.887 86.5586 156.281 86.7148 155.742 87.0273C155.211 87.3398 154.758 87.7578 154.383 88.2812C154.008 88.7969 153.723 89.3672 153.527 89.9922C153.332 90.6172 153.234 91.2422 153.234 91.8672C153.234 93.125 153.625 94.0391 154.406 94.6094C155.188 95.1797 156.262 95.4648 157.629 95.4648C157.965 95.4648 158.297 95.4492 158.625 95.418C158.953 95.3789 159.266 95.3242 159.562 95.2539C159.562 95.7305 159.438 96.082 159.188 96.3086C158.945 96.5273 158.59 96.6719 158.121 96.7422C157.652 96.8125 157.062 96.8477 156.352 96.8477ZM167.953 83.5117H164.977V99.9883H167.953V83.5117ZM183.316 95.0898C183.316 95.5352 183.137 95.8906 182.777 96.1562C182.426 96.4141 181.965 96.6016 181.395 96.7188C180.824 96.8281 180.215 96.8828 179.566 96.8828C179.113 96.8828 178.629 96.8516 178.113 96.7891C177.598 96.7266 177.098 96.6406 176.613 96.5312V99.6719C177.098 99.7891 177.574 99.8711 178.043 99.918C178.52 99.9648 179.086 99.9883 179.742 99.9883C180.531 99.9883 181.238 99.9219 181.863 99.7891C182.488 99.6484 183.047 99.4414 183.539 99.168C184.039 98.8945 184.48 98.5625 184.863 98.1719C185.137 98.5391 185.43 98.8594 185.742 99.1328C186.062 99.4062 186.43 99.6211 186.844 99.7773C187.266 99.9258 187.773 100 188.367 100H188.848V96.8477H188.367C188 96.8477 187.695 96.7227 187.453 96.4727C187.211 96.2227 186.988 95.8711 186.785 95.418C186.582 94.9648 186.352 94.4375 186.094 93.8359L183.234 87.2031L180.633 88.457L182.895 93.5078C182.996 93.7266 183.09 93.9961 183.176 94.3164C183.27 94.6367 183.316 94.8945 183.316 95.0898ZM188.367 96.8477V100H189.305V96.8477H188.367ZM192.633 101.57L190.699 103.492L192.633 105.438L194.566 103.492L192.633 101.57ZM188.672 101.57L186.762 103.492L188.672 105.438L190.629 103.492L188.672 101.57ZM190.336 100C191.594 100 192.586 99.7734 193.312 99.3203C194.039 98.8594 194.559 98.2227 194.871 97.4102C195.184 96.5898 195.34 95.6328 195.34 94.5391C195.34 93.8672 195.289 93.1641 195.188 92.4297C195.094 91.6875 194.949 90.9336 194.754 90.168L191.918 90.9297C192.137 91.7734 192.289 92.5391 192.375 93.2266C192.469 93.9141 192.516 94.4727 192.516 94.9023C192.516 95.6445 192.336 96.1562 191.977 96.4375C191.625 96.7109 191.07 96.8477 190.312 96.8477H189.035V100H190.336ZM204.035 95.0898C204.035 95.5352 203.855 95.8906 203.496 96.1562C203.145 96.4141 202.684 96.6016 202.113 96.7188C201.543 96.8281 200.934 96.8828 200.285 96.8828C199.832 96.8828 199.348 96.8516 198.832 96.7891C198.316 96.7266 197.816 96.6406 197.332 96.5312V99.6719C197.816 99.7891 198.293 99.8711 198.762 99.918C199.238 99.9648 199.805 99.9883 200.461 99.9883C201.25 99.9883 201.957 99.9219 202.582 99.7891C203.207 99.6484 203.766 99.4414 204.258 99.168C204.758 98.8945 205.199 98.5625 205.582 98.1719C205.855 98.5391 206.148 98.8594 206.461 99.1328C206.781 99.4062 207.148 99.6211 207.562 99.7773C207.984 99.9258 208.492 100 209.086 100H209.566V96.8477H209.086C208.719 96.8477 208.414 96.7227 208.172 96.4727C207.93 96.2227 207.707 95.8711 207.504 95.418C207.301 94.9648 207.07 94.4375 206.812 93.8359L203.953 87.2031L201.352 88.457L203.613 93.5078C203.715 93.7266 203.809 93.9961 203.895 94.3164C203.988 94.6367 204.035 94.8945 204.035 95.0898ZM209.625 100C210.219 100 210.711 99.9297 211.102 99.7891C211.492 99.6484 211.836 99.4609 212.133 99.2266C212.43 98.9844 212.723 98.7109 213.012 98.4062C213.473 98.7734 213.93 99.0977 214.383 99.3789C214.844 99.6602 215.316 99.8789 215.801 100.035C216.285 100.191 216.797 100.27 217.336 100.27C218.023 100.27 218.605 100.152 219.082 99.918C219.566 99.6758 220 99.3047 220.383 98.8047C220.672 99.1484 221.059 99.4336 221.543 99.6602C222.027 99.8867 222.52 100 223.02 100H223.336V96.8477H223.031C222.781 96.8477 222.539 96.7812 222.305 96.6484C222.078 96.5156 221.879 96.293 221.707 95.9805C221.535 95.668 221.402 95.2539 221.309 94.7383C221.176 93.9727 220.906 93.2812 220.5 92.6641C220.102 92.0391 219.582 91.5469 218.941 91.1875C218.309 90.8203 217.555 90.6367 216.68 90.6367C215.969 90.6367 215.355 90.7852 214.84 91.082C214.324 91.3789 213.875 91.7656 213.492 92.2422C213.109 92.7188 212.762 93.2227 212.449 93.7539C212.145 94.2773 211.848 94.7773 211.559 95.2539C211.27 95.7227 210.969 96.1055 210.656 96.4023C210.344 96.6992 209.98 96.8477 209.566 96.8477H209.145L209.133 100H209.625ZM216.773 93.6367C217.344 93.6367 217.793 93.8359 218.121 94.2344C218.449 94.625 218.613 95.0977 218.613 95.6523C218.613 96.0742 218.512 96.4336 218.309 96.7305C218.113 97.0273 217.793 97.1758 217.348 97.1758C217.168 97.1758 216.961 97.1445 216.727 97.082C216.5 97.0195 216.25 96.9141 215.977 96.7656C215.773 96.6562 215.559 96.5156 215.332 96.3438C215.105 96.1719 214.871 95.9727 214.629 95.7461C214.77 95.4414 214.941 95.1289 215.145 94.8086C215.355 94.4805 215.594 94.2031 215.859 93.9766C216.133 93.75 216.438 93.6367 216.773 93.6367ZM222.867 96.8477V100H223.699V96.8477H222.867ZM228.059 84.8945L226.125 86.8164L228.059 88.7617L229.992 86.8164L228.059 84.8945ZM224.098 84.8945L222.188 86.8164L224.098 88.7617L226.055 86.8164L224.098 84.8945ZM224.695 100C225.953 100 226.945 99.7734 227.672 99.3203C228.398 98.8594 228.918 98.2227 229.23 97.4102C229.543 96.5898 229.699 95.6328 229.699 94.5391C229.699 93.8672 229.648 93.1641 229.547 92.4297C229.453 91.6875 229.309 90.9336 229.113 90.168L226.277 90.9297C226.496 91.7734 226.648 92.5391 226.734 93.2266C226.828 93.9141 226.875 94.4727 226.875 94.9023C226.875 95.6445 226.695 96.1562 226.336 96.4375C225.984 96.7109 225.43 96.8477 224.672 96.8477H223.395V100H224.695ZM237.305 106.375C238.781 106.078 240.055 105.562 241.125 104.828C242.195 104.094 243.02 103.141 243.598 101.969C244.176 100.805 244.465 99.4336 244.465 97.8555C244.465 96.9883 244.387 96.082 244.23 95.1367C244.074 94.1914 243.844 93.2969 243.539 92.4531L240.621 93.4141C240.879 94.1719 241.109 94.9805 241.312 95.8398C241.523 96.6992 241.629 97.4805 241.629 98.1836C241.629 99.2227 241.418 100.09 240.996 100.785C240.574 101.48 239.957 102.039 239.145 102.461C238.34 102.891 237.359 103.234 236.203 103.492L237.305 106.375ZM255.586 97.5156C255.586 96.6328 255.492 95.7695 255.305 94.9258C255.125 94.0742 254.844 93.3047 254.461 92.6172C254.078 91.9219 253.582 91.3711 252.973 90.9648C252.371 90.5586 251.645 90.3555 250.793 90.3555C250.074 90.3555 249.441 90.5273 248.895 90.8711C248.348 91.207 247.895 91.6523 247.535 92.207C247.176 92.7539 246.902 93.3555 246.715 94.0117C246.527 94.6602 246.434 95.2969 246.434 95.9219C246.434 97.3672 246.848 98.4141 247.676 99.0625C248.512 99.7031 249.66 100.023 251.121 100.023C251.316 100.023 251.535 100.008 251.777 99.9766C252.027 99.9375 252.262 99.8945 252.48 99.8477C252.301 100.434 251.938 100.961 251.391 101.43C250.852 101.906 250.156 102.312 249.305 102.648C248.461 102.992 247.492 103.27 246.398 103.48L247.465 106.363C249.145 106.043 250.59 105.523 251.801 104.805C253.02 104.094 253.953 103.141 254.602 101.945C255.258 100.758 255.586 99.2812 255.586 97.5156ZM251.098 96.8945C250.535 96.8945 250.078 96.8242 249.727 96.6836C249.383 96.543 249.211 96.25 249.211 95.8047C249.211 95.5312 249.254 95.2109 249.34 94.8438C249.434 94.4688 249.594 94.1406 249.82 93.8594C250.055 93.5703 250.371 93.4258 250.77 93.4258C251.113 93.4258 251.402 93.5273 251.637 93.7305C251.871 93.9258 252.066 94.1875 252.223 94.5156C252.379 94.8359 252.504 95.1875 252.598 95.5703C252.691 95.9531 252.754 96.3242 252.785 96.6836C252.574 96.7383 252.32 96.7891 252.023 96.8359C251.734 96.875 251.426 96.8945 251.098 96.8945ZM260.824 81.8945L259.312 81.2031C259.047 81.0781 258.801 80.9844 258.574 80.9219C258.348 80.8516 258.129 80.8164 257.918 80.8164C257.543 80.8164 257.16 80.9453 256.77 81.2031C256.387 81.4609 255.949 81.8438 255.457 82.3516L254.695 83.1484L256.02 84.3438L256.77 83.5938C257.074 83.2891 257.324 83.0586 257.52 82.9023C257.723 82.7461 257.926 82.668 258.129 82.668C258.215 82.668 258.301 82.6797 258.387 82.7031C258.473 82.7266 258.566 82.7617 258.668 82.8086L260.18 83.4883C260.602 83.6836 260.973 83.7812 261.293 83.7812C261.645 83.7812 261.98 83.6797 262.301 83.4766C262.629 83.2734 262.988 82.9844 263.379 82.6094L264.129 81.9062L262.816 80.6992L262.137 81.3203C261.926 81.5156 261.742 81.6719 261.586 81.7891C261.438 81.8984 261.277 81.9531 261.105 81.9531C261.02 81.9531 260.926 81.9336 260.824 81.8945ZM261.188 85.1758H258.211V99.9883H261.188V85.1758ZM266.859 96.8945C266.445 96.8945 265.957 96.8633 265.395 96.8008C264.84 96.7305 264.309 96.6445 263.801 96.543V99.6836C264.301 99.793 264.812 99.8711 265.336 99.918C265.867 99.957 266.434 99.9766 267.035 99.9766C268.426 99.9766 269.621 99.8047 270.621 99.4609C271.629 99.1172 272.402 98.5742 272.941 97.832C273.488 97.0898 273.762 96.1211 273.762 94.9258C273.762 94.0742 273.586 93.2891 273.234 92.5703C272.883 91.8438 272.402 91.1758 271.793 90.5664C271.184 89.957 270.488 89.3984 269.707 88.8906C268.926 88.3828 268.102 87.9141 267.234 87.4844L265.887 90.2969C266.848 90.7656 267.711 91.2773 268.477 91.832C269.242 92.3789 269.848 92.9258 270.293 93.4727C270.738 94.0195 270.961 94.5391 270.961 95.0312C270.961 95.5156 270.77 95.8945 270.387 96.168C270.004 96.4336 269.5 96.6211 268.875 96.7305C268.25 96.8398 267.578 96.8945 266.859 96.8945ZM276.398 83.5117V94.6562C276.398 96.4531 276.793 97.793 277.582 98.6758C278.379 99.5586 279.625 100 281.32 100H281.602V96.8477H281.32C280.547 96.8477 280.027 96.668 279.762 96.3086C279.496 95.9414 279.363 95.3164 279.363 94.4336V83.5117H276.398ZM281.133 96.8477V100H282.07V96.8477H281.133ZM285.398 101.57L283.465 103.492L285.398 105.438L287.332 103.492L285.398 101.57ZM281.438 101.57L279.527 103.492L281.438 105.438L283.395 103.492L281.438 101.57ZM283.102 100C284.359 100 285.352 99.7734 286.078 99.3203C286.805 98.8594 287.324 98.2227 287.637 97.4102C287.949 96.5898 288.105 95.6328 288.105 94.5391C288.105 93.8672 288.055 93.1641 287.953 92.4297C287.859 91.6875 287.715 90.9336 287.52 90.168L284.684 90.9297C284.902 91.7734 285.055 92.5391 285.141 93.2266C285.234 93.9141 285.281 94.4727 285.281 94.9023C285.281 95.6445 285.102 96.1562 284.742 96.4375C284.391 96.7109 283.836 96.8477 283.078 96.8477H281.801V100H283.102Z" fill="black"/>
<circle cx="28.5" cy="40.5" r="11.5" fill="white"/>
<circle cx="55.5" cy="40.5" r="11.5" fill="white"/>
<circle cx="272.5" cy="40.5" r="11.5" fill="white"/>
<circle cx="299.5" cy="40.5" r="11.5" fill="white"/>
<path d="M277 11.9413V8.16843C277 5.77896 275.437 1 269.186 1C262.935 1 261.124 5.77896 261 8.16843C261 12.6959 261 23.2599 261 29.2964C261 35.333 264.473 38.3513 266.209 39.1059C267.306 39.5706 269.7 40.5 270.5 40.5" stroke="black"/>
<path d="M305 11.9413V8.16843C305 5.77896 303.437 1 297.186 1C290.935 1 289.124 5.77896 289 8.16843C289 12.6959 289 23.2599 289 29.2964C289 35.333 292.473 38.3513 294.209 39.1059C295.306 39.5706 297.7 40.5 298.5 40.5" stroke="black"/>
<path d="M34 11.9413V8.16843C34 5.77896 32.4372 1 26.186 1C19.9349 1 18.124 5.77896 18 8.16843C18 12.6959 18 23.2599 18 29.2964C18 35.333 21.4729 38.3513 23.2093 39.1059C24.3062 39.5706 26.7 40.5 27.5 40.5" stroke="black"/>
<path d="M62 11.9413V8.16843C62 5.77896 60.4372 1 54.186 1C47.9349 1 46.124 5.77896 46 8.16843C46 12.6959 46 23.2599 46 29.2964C46 35.333 49.4729 38.3513 51.2093 39.1059C52.3062 39.5706 54.7 40.5 55.5 40.5" stroke="black"/>
</svg>
