<svg width="954" height="110" viewBox="0 0 954 110" fill="none" xmlns="http://www.w3.org/2000/svg">
<path d="M0 44C0 26.8792 13.8792 13 31 13H923C940.121 13 954 26.8792 954 44V110H0V44Z" fill="#F5BE41"/>
<circle cx="67.5" cy="40.5" r="11.5" fill="white"/>
<circle cx="94.5" cy="40.5" r="11.5" fill="white"/>
<circle cx="859.5" cy="40.5" r="11.5" fill="white"/>
<circle cx="886.5" cy="40.5" r="11.5" fill="white"/>
<path d="M74 11.9413V8.16843C74 5.77896 72.4372 1 66.186 1C59.9349 1 58.124 5.77896 58 8.16843C58 12.6959 58 23.2599 58 29.2964C58 35.333 61.4729 38.3513 63.2093 39.1059C64.3062 39.5706 66.7 40.5 67.5 40.5" stroke="black"/>
<path d="M865 11.9413V8.16843C865 5.77896 863.437 1 857.186 1C850.935 1 849.124 5.77896 849 8.16843C849 12.6959 849 23.2599 849 29.2964C849 35.333 852.473 38.3513 854.209 39.1059C855.306 39.5706 857.7 40.5 858.5 40.5" stroke="black"/>
<path d="M102 11.9413V8.16843C102 5.77896 100.437 1 94.186 1C87.9349 1 86.124 5.77896 86 8.16843C86 12.6959 86 23.2599 86 29.2964C86 35.333 89.4729 38.3513 91.2093 39.1059C92.3062 39.5706 94.7 40.5 95.5 40.5" stroke="black"/>
<path d="M893 11.9413V8.16843C893 5.77896 891.437 1 885.186 1C878.935 1 877.124 5.77896 877 8.16843C877 12.6959 877 23.2599 877 29.2964C877 35.333 880.473 38.3513 882.209 39.1059C883.306 39.5706 885.7 40.5 886.5 40.5" stroke="black"/>
</svg>
