<svg width="324" height="407" viewBox="0 0 324 407" fill="none" xmlns="http://www.w3.org/2000/svg">
<rect x="0.5" y="11.4512" width="323" height="395.049" rx="23.5" stroke="black"/>
<path d="M37.2017 182.691L34.0267 179.516C33.7934 179.282 33.7392 179.012 33.8642 178.703C33.9892 178.395 34.2184 178.241 34.5517 178.241H40.9017C41.2351 178.241 41.4642 178.395 41.5892 178.703C41.7142 179.012 41.6601 179.282 41.4267 179.516L38.2517 182.691C38.1684 182.774 38.0851 182.832 38.0017 182.866C37.9184 182.899 37.8267 182.916 37.7267 182.916C37.6267 182.916 37.5351 182.899 37.4517 182.866C37.3684 182.832 37.2851 182.774 37.2017 182.691Z" fill="#707174"/>
<path d="M103.389 186.386C104.135 186.241 104.762 185.979 105.27 185.601C105.777 185.222 106.162 184.747 106.424 184.177C106.686 183.606 106.816 182.958 106.816 182.231C106.816 181.825 106.777 181.405 106.699 180.972C106.625 180.538 106.516 180.116 106.371 179.706L105.135 180.116C105.264 180.499 105.373 180.89 105.463 181.288C105.553 181.687 105.598 182.058 105.598 182.401C105.598 182.901 105.502 183.333 105.311 183.696C105.119 184.063 104.826 184.368 104.432 184.61C104.041 184.856 103.543 185.046 102.938 185.179L103.389 186.386ZM109.465 175.024H108.205V183.21H109.465V175.024ZM114.111 183.216H114.264V181.874H114.047C113.773 181.874 113.557 181.8 113.396 181.651C113.236 181.499 113.117 181.274 113.039 180.978L112.711 179.706L111.475 180.116C111.604 180.499 111.713 180.89 111.803 181.288C111.893 181.687 111.938 182.058 111.938 182.401C111.938 182.901 111.842 183.333 111.65 183.696C111.459 184.063 111.166 184.368 110.771 184.61C110.381 184.856 109.883 185.046 109.277 185.179L109.723 186.386C110.438 186.245 111.029 186.009 111.498 185.677C111.971 185.345 112.338 184.942 112.6 184.47C112.861 183.997 113.031 183.485 113.109 182.935C113.211 183.009 113.346 183.075 113.514 183.134C113.686 183.188 113.885 183.216 114.111 183.216ZM115.758 177.649L119.215 176.249V174.931L114.867 176.7C114.672 176.778 114.523 176.905 114.422 177.081C114.324 177.253 114.275 177.435 114.275 177.626C114.275 177.79 114.314 177.948 114.393 178.101C114.471 178.249 114.58 178.378 114.721 178.487C114.928 178.647 115.154 178.812 115.4 178.979C115.646 179.147 115.891 179.317 116.133 179.489C116.375 179.657 116.598 179.829 116.801 180.005C117.004 180.177 117.166 180.349 117.287 180.521C117.412 180.688 117.475 180.853 117.475 181.013C117.475 181.239 117.402 181.415 117.258 181.54C117.117 181.665 116.898 181.753 116.602 181.804C116.309 181.851 115.928 181.874 115.459 181.874H114.047V183.216H115.465C116.004 183.216 116.447 183.183 116.795 183.116C117.146 183.046 117.438 182.938 117.668 182.794C117.902 182.646 118.107 182.456 118.283 182.226C118.514 182.577 118.783 182.831 119.092 182.987C119.404 183.14 119.785 183.216 120.234 183.216H120.398V181.874H120.234C119.953 181.874 119.723 181.829 119.543 181.739C119.363 181.649 119.209 181.507 119.08 181.312C118.955 181.116 118.828 180.862 118.699 180.55C118.594 180.296 118.469 180.062 118.324 179.847C118.184 179.632 118.023 179.433 117.844 179.249C117.668 179.062 117.473 178.882 117.258 178.71C117.043 178.538 116.811 178.366 116.561 178.194C116.311 178.019 116.043 177.837 115.758 177.649ZM120.164 181.874V183.216H120.85V181.874H120.164ZM123.041 175.933L122.15 176.823L123.041 177.731L123.943 176.823L123.041 175.933ZM121.084 175.933L120.188 176.823L121.084 177.731L121.986 176.823L121.084 175.933ZM121.371 183.216C121.992 183.216 122.477 183.106 122.824 182.888C123.176 182.665 123.422 182.36 123.562 181.974C123.707 181.583 123.779 181.132 123.779 180.62C123.779 180.308 123.758 179.97 123.715 179.606C123.672 179.243 123.602 178.888 123.504 178.54L122.273 178.868C122.375 179.247 122.447 179.604 122.49 179.94C122.537 180.272 122.561 180.548 122.561 180.767C122.561 181.146 122.471 181.425 122.291 181.604C122.115 181.784 121.805 181.874 121.359 181.874H120.727V183.216H121.371ZM131.414 181.071C131.414 181.345 131.322 181.548 131.139 181.681C130.959 181.81 130.678 181.874 130.295 181.874C129.928 181.874 129.652 181.806 129.469 181.669C129.285 181.528 129.193 181.356 129.193 181.153C129.193 180.981 129.238 180.812 129.328 180.644C129.422 180.472 129.547 180.298 129.703 180.122C129.863 179.942 130.039 179.761 130.23 179.577C130.414 179.726 130.596 179.886 130.775 180.058C130.955 180.229 131.105 180.403 131.227 180.579C131.352 180.751 131.414 180.915 131.414 181.071ZM129.316 178.774C128.906 179.2 128.58 179.606 128.338 179.993C128.096 180.38 127.975 180.81 127.975 181.282C127.975 181.833 128.178 182.29 128.584 182.653C128.994 183.013 129.566 183.192 130.301 183.192C130.762 183.192 131.166 183.108 131.514 182.94C131.865 182.769 132.139 182.526 132.334 182.214C132.529 181.901 132.627 181.528 132.627 181.095C132.627 180.771 132.553 180.46 132.404 180.163C132.26 179.866 132.059 179.577 131.801 179.296C131.543 179.011 131.248 178.728 130.916 178.446C130.588 178.161 130.238 177.868 129.867 177.567L129.088 178.569L129.316 178.774ZM135.779 178.604C135.432 178.604 135.127 178.687 134.865 178.851C134.604 179.015 134.385 179.231 134.209 179.501C134.037 179.767 133.908 180.058 133.822 180.374C133.74 180.687 133.699 180.991 133.699 181.288C133.699 181.948 133.893 182.435 134.279 182.747C134.67 183.06 135.246 183.216 136.008 183.216H136.77C136.672 183.544 136.486 183.835 136.213 184.089C135.939 184.343 135.592 184.56 135.17 184.739C134.748 184.919 134.264 185.063 133.717 185.173L134.168 186.38C134.965 186.228 135.623 186.001 136.143 185.7C136.662 185.399 137.066 185.038 137.355 184.616C137.648 184.194 137.852 183.728 137.965 183.216H138.656V181.874H138.07C138.051 181.394 137.986 180.954 137.877 180.556C137.771 180.157 137.619 179.813 137.42 179.524C137.225 179.231 136.99 179.005 136.717 178.845C136.443 178.685 136.131 178.604 135.779 178.604ZM135.973 181.874C135.617 181.874 135.35 181.829 135.17 181.739C134.99 181.649 134.9 181.481 134.9 181.235C134.9 181.079 134.926 180.899 134.977 180.696C135.027 180.493 135.115 180.315 135.24 180.163C135.369 180.007 135.545 179.929 135.768 179.929C135.943 179.929 136.096 179.978 136.225 180.075C136.357 180.169 136.469 180.304 136.559 180.479C136.648 180.651 136.719 180.856 136.77 181.095C136.824 181.329 136.861 181.589 136.881 181.874H135.973ZM146.959 181.874H146.643C146.334 181.874 146.062 181.853 145.828 181.81C145.594 181.767 145.406 181.696 145.266 181.599C145.125 181.501 145.043 181.372 145.02 181.212C145.273 181.099 145.502 181.015 145.705 180.96C145.912 180.905 146.111 180.868 146.303 180.849V179.595C146.1 179.583 145.9 179.56 145.705 179.524C145.514 179.489 145.312 179.437 145.102 179.366C144.891 179.296 144.656 179.204 144.398 179.091C144.141 178.978 143.846 178.839 143.514 178.675C143.17 178.511 142.84 178.37 142.523 178.253C142.211 178.136 141.902 178.077 141.598 178.077C141.109 178.077 140.668 178.214 140.273 178.487C139.879 178.761 139.551 179.112 139.289 179.542L139.125 179.812L140.203 180.339L140.426 180.052C140.559 179.88 140.729 179.728 140.936 179.595C141.146 179.458 141.365 179.39 141.592 179.39C141.662 179.39 141.752 179.405 141.861 179.437C141.975 179.468 142.107 179.513 142.26 179.571C142.416 179.626 142.596 179.694 142.799 179.776C142.959 179.835 143.113 179.896 143.262 179.958C143.41 180.017 143.555 180.075 143.695 180.134C143.84 180.192 143.984 180.251 144.129 180.31C143.559 180.606 143.023 180.872 142.523 181.106C142.023 181.341 141.523 181.528 141.023 181.669C140.527 181.806 139.996 181.874 139.43 181.874H138.445V183.216H139.412C139.967 183.216 140.504 183.147 141.023 183.011C141.547 182.87 142.062 182.685 142.57 182.454C143.082 182.224 143.588 181.974 144.088 181.704C144.166 182.06 144.307 182.349 144.51 182.571C144.713 182.794 144.988 182.958 145.336 183.063C145.684 183.165 146.111 183.216 146.619 183.216H146.959V181.874ZM147.387 183.216C148.008 183.216 148.492 183.106 148.84 182.888C149.191 182.665 149.438 182.36 149.578 181.974C149.723 181.583 149.795 181.132 149.795 180.62C149.795 180.308 149.773 179.97 149.73 179.606C149.688 179.243 149.617 178.888 149.52 178.54L148.289 178.868C148.391 179.247 148.463 179.604 148.506 179.94C148.553 180.272 148.576 180.548 148.576 180.767C148.576 181.146 148.486 181.425 148.307 181.604C148.131 181.784 147.82 181.874 147.375 181.874H146.742V183.216H147.387ZM148.377 175.886L147.439 176.823L148.377 177.761L149.314 176.823L148.377 175.886Z" fill="#707174"/>
<rect x="18.2266" y="160.716" width="140" height="39" rx="7.5" stroke="#BDBDBF"/>
<path d="M190.202 182.691L187.027 179.516C186.793 179.282 186.739 179.012 186.864 178.703C186.989 178.395 187.218 178.241 187.552 178.241H193.902C194.235 178.241 194.464 178.395 194.589 178.703C194.714 179.012 194.66 179.282 194.427 179.516L191.252 182.691C191.168 182.774 191.085 182.832 191.002 182.866C190.918 182.899 190.827 182.916 190.727 182.916C190.627 182.916 190.535 182.899 190.452 182.866C190.368 182.832 190.285 182.774 190.202 182.691Z" fill="#707174"/>
<path d="M237.996 183.216H238.195V181.874H238.02C237.707 181.874 237.467 181.78 237.299 181.593C237.135 181.401 237.031 181.161 236.988 180.872L236.461 177.204L235.312 177.438L235.354 177.72C234.889 177.86 234.469 178.021 234.094 178.2C233.723 178.38 233.404 178.583 233.139 178.81C232.873 179.032 232.668 179.28 232.523 179.554C232.383 179.827 232.312 180.132 232.312 180.468C232.312 181.069 232.512 181.532 232.91 181.856C233.312 182.181 233.814 182.343 234.416 182.343C234.717 182.343 234.99 182.29 235.236 182.185C235.482 182.079 235.727 181.923 235.969 181.716C236.051 182.032 236.178 182.304 236.35 182.53C236.525 182.753 236.75 182.923 237.023 183.04C237.297 183.157 237.621 183.216 237.996 183.216ZM235.699 180.122C235.699 180.325 235.635 180.501 235.506 180.649C235.381 180.794 235.221 180.903 235.025 180.978C234.83 181.048 234.627 181.083 234.416 181.083C234.154 181.083 233.945 181.024 233.789 180.907C233.633 180.79 233.555 180.622 233.555 180.403C233.555 180.259 233.6 180.122 233.689 179.993C233.783 179.864 233.916 179.739 234.088 179.618C234.26 179.497 234.469 179.38 234.715 179.267C234.961 179.153 235.236 179.042 235.541 178.933L235.664 179.753C235.676 179.819 235.684 179.884 235.688 179.946C235.695 180.005 235.699 180.063 235.699 180.122ZM238.23 183.216C238.52 183.216 238.762 183.183 238.957 183.116C239.152 183.046 239.324 182.948 239.473 182.823C239.625 182.694 239.779 182.546 239.936 182.378C240.17 182.581 240.4 182.755 240.627 182.899C240.854 183.044 241.084 183.155 241.318 183.233C241.557 183.312 241.809 183.351 242.074 183.351C242.438 183.351 242.74 183.286 242.982 183.157C243.225 183.024 243.434 182.837 243.609 182.595C243.758 182.79 243.951 182.942 244.189 183.052C244.432 183.161 244.678 183.216 244.928 183.216H245.086V181.874H244.934C244.789 181.874 244.652 181.835 244.523 181.757C244.398 181.679 244.289 181.558 244.195 181.394C244.102 181.226 244.029 181.015 243.979 180.761C243.908 180.382 243.777 180.042 243.586 179.741C243.398 179.437 243.152 179.196 242.848 179.021C242.547 178.845 242.184 178.757 241.758 178.757C241.402 178.757 241.098 178.831 240.844 178.979C240.594 179.128 240.377 179.321 240.193 179.56C240.01 179.798 239.844 180.05 239.695 180.315C239.551 180.581 239.406 180.833 239.262 181.071C239.121 181.306 238.967 181.499 238.799 181.651C238.631 181.8 238.432 181.874 238.201 181.874H237.984V183.216H238.23ZM241.793 180.046C242.113 180.046 242.363 180.159 242.543 180.386C242.723 180.608 242.812 180.888 242.812 181.224C242.812 181.47 242.752 181.667 242.631 181.815C242.514 181.964 242.328 182.038 242.074 182.038C241.977 182.038 241.863 182.019 241.734 181.979C241.609 181.94 241.473 181.878 241.324 181.792C241.215 181.729 241.1 181.651 240.979 181.558C240.857 181.464 240.734 181.354 240.609 181.229C240.695 181.046 240.795 180.862 240.908 180.679C241.025 180.495 241.156 180.345 241.301 180.228C241.449 180.106 241.613 180.046 241.793 180.046ZM244.84 181.874V183.216H245.309V181.874H244.84ZM246.961 184.065L246.07 184.962L246.961 185.87L247.863 184.962L246.961 184.065ZM245.004 184.065L244.107 184.962L245.004 185.87L245.906 184.962L245.004 184.065ZM246.943 179.39C246.959 179.573 246.971 179.761 246.979 179.952C246.99 180.144 246.996 180.341 246.996 180.544C246.996 180.974 246.9 181.304 246.709 181.534C246.521 181.761 246.193 181.874 245.725 181.874H245.174V183.216H245.725C246.096 183.216 246.449 183.146 246.785 183.005C247.125 182.864 247.404 182.655 247.623 182.378C247.736 182.554 247.869 182.704 248.021 182.829C248.178 182.95 248.361 183.046 248.572 183.116C248.783 183.183 249.027 183.216 249.305 183.216H249.434V181.874H249.316C249.082 181.874 248.887 181.829 248.73 181.739C248.578 181.646 248.461 181.515 248.379 181.347C248.297 181.175 248.25 180.976 248.238 180.749L248.133 179.243L246.943 179.39ZM249.205 181.874V183.216H249.486V181.874H249.205ZM250.412 184.024L249.475 184.962L250.412 185.899L251.35 184.962L250.412 184.024ZM249.984 183.216C250.605 183.216 251.09 183.106 251.438 182.888C251.789 182.665 252.035 182.36 252.176 181.974C252.32 181.583 252.393 181.132 252.393 180.62C252.393 180.308 252.371 179.97 252.328 179.606C252.285 179.243 252.215 178.888 252.117 178.54L250.887 178.868C250.988 179.247 251.061 179.604 251.104 179.94C251.15 180.272 251.174 180.548 251.174 180.767C251.174 181.146 251.084 181.425 250.904 181.604C250.729 181.784 250.418 181.874 249.973 181.874H249.34V183.216H249.984ZM260.156 186.175C261.008 186.175 261.723 186.046 262.301 185.788C262.879 185.53 263.316 185.19 263.613 184.769C263.91 184.351 264.059 183.897 264.059 183.409C264.059 183.101 264.012 182.827 263.918 182.589C263.824 182.351 263.664 182.163 263.438 182.026C263.215 181.89 262.904 181.821 262.506 181.821H261.574C261.402 181.821 261.281 181.792 261.211 181.733C261.141 181.675 261.105 181.571 261.105 181.423C261.105 181.114 261.164 180.837 261.281 180.591C261.398 180.341 261.566 180.144 261.785 179.999C262.008 179.854 262.273 179.782 262.582 179.782C262.746 179.782 262.914 179.804 263.086 179.847C263.258 179.886 263.434 179.952 263.613 180.046L264.041 178.892C263.807 178.731 263.564 178.616 263.314 178.546C263.064 178.476 262.818 178.44 262.576 178.44C262.162 178.44 261.787 178.521 261.451 178.681C261.119 178.841 260.836 179.062 260.602 179.343C260.367 179.62 260.186 179.938 260.057 180.298C259.932 180.653 259.869 181.028 259.869 181.423C259.869 181.751 259.91 182.026 259.992 182.249C260.074 182.472 260.189 182.649 260.338 182.782C260.486 182.915 260.664 183.011 260.871 183.069C261.082 183.128 261.312 183.157 261.562 183.157H262.512C262.656 183.157 262.756 183.194 262.811 183.269C262.865 183.343 262.893 183.427 262.893 183.521C262.893 183.669 262.83 183.821 262.705 183.978C262.58 184.134 262.4 184.276 262.166 184.405C261.932 184.538 261.645 184.644 261.305 184.722C260.965 184.804 260.582 184.845 260.156 184.845C259.562 184.845 259.096 184.745 258.756 184.546C258.42 184.351 258.18 184.085 258.035 183.749C257.895 183.417 257.824 183.052 257.824 182.653C257.824 182.302 257.867 181.933 257.953 181.546C258.043 181.159 258.15 180.776 258.275 180.397L257.127 179.946C256.959 180.392 256.828 180.847 256.734 181.312C256.645 181.772 256.6 182.222 256.6 182.659C256.6 183.312 256.719 183.903 256.957 184.435C257.199 184.966 257.582 185.388 258.105 185.7C258.629 186.017 259.312 186.175 260.156 186.175ZM266.684 175.024H265.424V183.21H266.684V175.024ZM271.33 183.216H271.482V181.874H271.266C270.992 181.874 270.775 181.8 270.615 181.651C270.455 181.499 270.336 181.274 270.258 180.978L269.93 179.706L268.693 180.116C268.822 180.499 268.932 180.89 269.021 181.288C269.111 181.687 269.156 182.058 269.156 182.401C269.156 182.901 269.061 183.333 268.869 183.696C268.678 184.063 268.385 184.368 267.99 184.61C267.6 184.856 267.102 185.046 266.496 185.179L266.941 186.386C267.656 186.245 268.248 186.009 268.717 185.677C269.189 185.345 269.557 184.942 269.818 184.47C270.08 183.997 270.25 183.485 270.328 182.935C270.43 183.009 270.564 183.075 270.732 183.134C270.904 183.188 271.104 183.216 271.33 183.216ZM271.248 181.874V183.216H271.529V181.874H271.248ZM272.455 184.024L271.518 184.962L272.455 185.899L273.393 184.962L272.455 184.024ZM272.027 183.216C272.648 183.216 273.133 183.106 273.48 182.888C273.832 182.665 274.078 182.36 274.219 181.974C274.363 181.583 274.436 181.132 274.436 180.62C274.436 180.308 274.414 179.97 274.371 179.606C274.328 179.243 274.258 178.888 274.16 178.54L272.93 178.868C273.031 179.247 273.104 179.604 273.146 179.94C273.193 180.272 273.217 180.548 273.217 180.767C273.217 181.146 273.127 181.425 272.947 181.604C272.771 181.784 272.461 181.874 272.016 181.874H271.383V183.216H272.027ZM278.373 186.386C279.119 186.241 279.746 185.979 280.254 185.601C280.762 185.222 281.146 184.747 281.408 184.177C281.67 183.606 281.801 182.958 281.801 182.231C281.801 181.825 281.762 181.405 281.684 180.972C281.609 180.538 281.5 180.116 281.355 179.706L280.119 180.116C280.248 180.499 280.357 180.89 280.447 181.288C280.537 181.687 280.582 182.058 280.582 182.401C280.582 182.901 280.486 183.333 280.295 183.696C280.104 184.063 279.811 184.368 279.416 184.61C279.025 184.856 278.527 185.046 277.922 185.179L278.373 186.386ZM287.268 182.085C287.268 181.655 287.223 181.235 287.133 180.825C287.047 180.411 286.91 180.038 286.723 179.706C286.539 179.374 286.303 179.11 286.014 178.915C285.725 178.716 285.375 178.616 284.965 178.616C284.621 178.616 284.318 178.696 284.057 178.856C283.795 179.013 283.576 179.224 283.4 179.489C283.229 179.751 283.098 180.04 283.008 180.356C282.922 180.669 282.879 180.979 282.879 181.288C282.879 181.956 283.072 182.448 283.459 182.765C283.85 183.077 284.404 183.233 285.123 183.233C285.244 183.233 285.383 183.22 285.539 183.192C285.695 183.165 285.838 183.134 285.967 183.099C285.889 183.446 285.715 183.755 285.445 184.024C285.18 184.298 284.83 184.528 284.396 184.716C283.967 184.907 283.467 185.06 282.896 185.173L283.348 186.38C284.184 186.22 284.893 185.96 285.475 185.601C286.061 185.241 286.506 184.771 286.811 184.188C287.115 183.61 287.268 182.909 287.268 182.085ZM285.129 181.897C284.797 181.897 284.539 181.851 284.355 181.757C284.172 181.663 284.08 181.489 284.08 181.235C284.08 181.083 284.105 180.905 284.156 180.702C284.207 180.495 284.295 180.315 284.42 180.163C284.549 180.007 284.727 179.929 284.953 179.929C285.129 179.929 285.281 179.978 285.41 180.075C285.543 180.169 285.652 180.302 285.738 180.474C285.828 180.646 285.898 180.843 285.949 181.065C286.004 181.288 286.041 181.522 286.061 181.769C285.928 181.808 285.781 181.839 285.621 181.862C285.461 181.886 285.297 181.897 285.129 181.897ZM289.852 174.274L289.096 173.929C288.967 173.87 288.846 173.823 288.732 173.788C288.623 173.753 288.516 173.735 288.41 173.735C288.238 173.735 288.059 173.796 287.871 173.917C287.684 174.038 287.465 174.228 287.215 174.485L286.852 174.86L287.455 175.405L287.812 175.048C287.98 174.88 288.115 174.759 288.217 174.685C288.322 174.61 288.422 174.573 288.516 174.573C288.559 174.573 288.602 174.581 288.645 174.597C288.691 174.608 288.742 174.626 288.797 174.649L289.553 174.995C289.76 175.085 289.939 175.13 290.092 175.13C290.26 175.13 290.422 175.083 290.578 174.989C290.738 174.892 290.92 174.747 291.123 174.556L291.475 174.222L290.871 173.677L290.555 173.97C290.43 174.079 290.326 174.165 290.244 174.228C290.162 174.286 290.082 174.315 290.004 174.315C289.953 174.315 289.902 174.302 289.852 174.274ZM289.91 175.851H288.65V183.21H289.91V175.851ZM292.74 181.892C292.537 181.892 292.311 181.876 292.061 181.845C291.811 181.813 291.559 181.772 291.305 181.722V183.058C291.535 183.108 291.775 183.146 292.025 183.169C292.279 183.192 292.547 183.204 292.828 183.204C293.543 183.204 294.143 183.12 294.627 182.952C295.111 182.784 295.477 182.524 295.723 182.173C295.973 181.817 296.098 181.364 296.098 180.813C296.098 180.442 296.021 180.093 295.869 179.765C295.721 179.433 295.508 179.118 295.23 178.821C294.953 178.524 294.623 178.245 294.24 177.983C293.857 177.722 293.436 177.476 292.975 177.245L292.395 178.429C292.922 178.702 293.369 178.979 293.736 179.261C294.107 179.538 294.391 179.812 294.586 180.081C294.785 180.351 294.885 180.608 294.885 180.854C294.885 181.104 294.795 181.306 294.615 181.458C294.436 181.606 294.184 181.716 293.859 181.786C293.539 181.856 293.166 181.892 292.74 181.892ZM297.48 175.024V180.638C297.48 181.517 297.672 182.167 298.055 182.589C298.438 183.007 299.031 183.216 299.836 183.216H299.977V181.874H299.836C299.438 181.874 299.156 181.782 298.992 181.599C298.828 181.411 298.746 181.071 298.746 180.579V175.024H297.48ZM299.742 181.874V183.216H300.211V181.874H299.742ZM301.863 184.065L300.973 184.962L301.863 185.87L302.766 184.962L301.863 184.065ZM299.906 184.065L299.01 184.962L299.906 185.87L300.809 184.962L299.906 184.065ZM300.727 183.216C301.348 183.216 301.832 183.106 302.18 182.888C302.531 182.665 302.777 182.36 302.918 181.974C303.062 181.583 303.135 181.132 303.135 180.62C303.135 180.308 303.113 179.97 303.07 179.606C303.027 179.243 302.957 178.888 302.859 178.54L301.629 178.868C301.73 179.247 301.803 179.604 301.846 179.94C301.893 180.272 301.916 180.548 301.916 180.767C301.916 181.146 301.826 181.425 301.646 181.604C301.471 181.784 301.16 181.874 300.715 181.874H300.082V183.216H300.727Z" fill="#707174"/>
<rect x="171.227" y="160.716" width="140" height="39" rx="7.5" stroke="#BDBDBF"/>
<path d="M88.9863 232.907C88.9863 233.138 88.9023 233.325 88.7344 233.47C88.5664 233.614 88.334 233.72 88.0371 233.786C87.7441 233.853 87.4004 233.886 87.0059 233.886C86.7949 233.886 86.5723 233.872 86.3379 233.845C86.1035 233.817 85.8672 233.776 85.6289 233.722V235.058C85.8477 235.108 86.0703 235.147 86.2969 235.175C86.5273 235.198 86.793 235.21 87.0938 235.21C87.5039 235.21 87.8672 235.175 88.1836 235.104C88.5039 235.034 88.7871 234.929 89.0332 234.788C89.2832 234.647 89.502 234.472 89.6895 234.261C89.8301 234.464 89.9746 234.638 90.123 234.782C90.2715 234.923 90.4473 235.03 90.6504 235.104C90.8535 235.179 91.1055 235.216 91.4062 235.216H91.6523V233.874H91.4062C91.2305 233.874 91.0801 233.821 90.9551 233.716C90.8301 233.606 90.709 233.438 90.5918 233.212C90.4746 232.985 90.3398 232.694 90.1875 232.339L88.8047 229.11L87.6797 229.649L88.7695 232.087C88.8242 232.212 88.873 232.356 88.916 232.521C88.9629 232.681 88.9863 232.81 88.9863 232.907ZM91.4062 233.874V235.216H91.875V233.874H91.4062ZM93.5273 236.065L92.6367 236.962L93.5273 237.87L94.4297 236.962L93.5273 236.065ZM91.5703 236.065L90.6738 236.962L91.5703 237.87L92.4727 236.962L91.5703 236.065ZM93.5098 231.39C93.5254 231.573 93.5371 231.761 93.5449 231.952C93.5566 232.144 93.5625 232.341 93.5625 232.544C93.5625 232.974 93.4668 233.304 93.2754 233.534C93.0879 233.761 92.7598 233.874 92.291 233.874H91.7402V235.216H92.291C92.6621 235.216 93.0156 235.146 93.3516 235.005C93.6914 234.864 93.9707 234.655 94.1895 234.378C94.3027 234.554 94.4355 234.704 94.5879 234.829C94.7441 234.95 94.9277 235.046 95.1387 235.116C95.3496 235.183 95.5938 235.216 95.8711 235.216H96V233.874H95.8828C95.6484 233.874 95.4531 233.829 95.2969 233.739C95.1445 233.646 95.0273 233.515 94.9453 233.347C94.8633 233.175 94.8164 232.976 94.8047 232.749L94.6992 231.243L93.5098 231.39ZM99.8027 235.216C100.127 235.216 100.434 235.146 100.723 235.005C101.016 234.86 101.268 234.653 101.479 234.384C101.631 234.638 101.828 234.841 102.07 234.993C102.316 235.142 102.621 235.216 102.984 235.216C103.473 235.212 103.859 235.089 104.145 234.847C104.43 234.604 104.633 234.282 104.754 233.88C104.879 233.478 104.941 233.032 104.941 232.544C104.941 232.228 104.918 231.907 104.871 231.583C104.828 231.255 104.76 230.927 104.666 230.599L103.436 230.921C103.521 231.229 103.592 231.538 103.646 231.847C103.701 232.151 103.729 232.427 103.729 232.673C103.729 232.896 103.701 233.099 103.646 233.282C103.596 233.462 103.514 233.606 103.4 233.716C103.291 233.821 103.146 233.874 102.967 233.874C102.775 233.874 102.617 233.823 102.492 233.722C102.367 233.616 102.271 233.479 102.205 233.312C102.143 233.144 102.105 232.966 102.094 232.778L101.988 231.425L100.793 231.571C100.805 231.728 100.816 231.874 100.828 232.011C100.84 232.144 100.848 232.263 100.852 232.368C100.855 232.47 100.857 232.552 100.857 232.614C100.857 233.001 100.777 233.308 100.617 233.534C100.457 233.761 100.189 233.874 99.8145 233.874C99.6074 233.874 99.4336 233.825 99.293 233.728C99.1523 233.626 99.043 233.493 98.9648 233.329C98.8906 233.161 98.8477 232.978 98.8359 232.778L98.7305 231.425L97.5352 231.571C97.5469 231.728 97.5566 231.874 97.5645 232.011C97.5762 232.144 97.584 232.261 97.5879 232.362C97.5957 232.464 97.5996 232.548 97.5996 232.614C97.5996 233.067 97.4844 233.392 97.2539 233.587C97.0273 233.778 96.6797 233.874 96.2109 233.874H95.7891V235.216H96.1992C96.6953 235.216 97.0977 235.144 97.4062 234.999C97.7148 234.854 97.9688 234.651 98.168 234.39C98.3242 234.647 98.5293 234.851 98.7832 234.999C99.0371 235.144 99.377 235.216 99.8027 235.216ZM104.771 238.386C105.518 238.241 106.145 237.979 106.652 237.601C107.16 237.222 107.545 236.747 107.807 236.177C108.068 235.606 108.199 234.958 108.199 234.231C108.199 233.825 108.16 233.405 108.082 232.972C108.008 232.538 107.898 232.116 107.754 231.706L106.518 232.116C106.646 232.499 106.756 232.89 106.846 233.288C106.936 233.687 106.98 234.058 106.98 234.401C106.98 234.901 106.885 235.333 106.693 235.696C106.502 236.063 106.209 236.368 105.814 236.61C105.424 236.856 104.926 237.046 104.32 237.179L104.771 238.386ZM113.209 235.216H113.361V233.874H113.145C112.871 233.874 112.654 233.8 112.494 233.651C112.334 233.499 112.215 233.274 112.137 232.978L111.809 231.706L110.572 232.116C110.701 232.499 110.811 232.89 110.9 233.288C110.99 233.687 111.035 234.058 111.035 234.401C111.035 234.901 110.939 235.333 110.748 235.696C110.557 236.063 110.264 236.368 109.869 236.61C109.479 236.856 108.98 237.046 108.375 237.179L108.82 238.386C109.535 238.245 110.127 238.009 110.596 237.677C111.068 237.345 111.436 236.942 111.697 236.47C111.959 235.997 112.129 235.485 112.207 234.935C112.309 235.009 112.443 235.075 112.611 235.134C112.783 235.188 112.982 235.216 113.209 235.216ZM117.158 235.216C117.482 235.216 117.789 235.146 118.078 235.005C118.371 234.86 118.623 234.653 118.834 234.384C118.986 234.638 119.184 234.841 119.426 234.993C119.672 235.142 119.977 235.216 120.34 235.216C120.828 235.212 121.215 235.089 121.5 234.847C121.785 234.604 121.988 234.282 122.109 233.88C122.234 233.478 122.297 233.032 122.297 232.544C122.297 232.228 122.273 231.907 122.227 231.583C122.184 231.255 122.115 230.927 122.021 230.599L120.791 230.921C120.877 231.229 120.947 231.538 121.002 231.847C121.057 232.151 121.084 232.427 121.084 232.673C121.084 232.896 121.057 233.099 121.002 233.282C120.951 233.462 120.869 233.606 120.756 233.716C120.646 233.821 120.502 233.874 120.322 233.874C120.131 233.874 119.973 233.823 119.848 233.722C119.723 233.616 119.627 233.479 119.561 233.312C119.498 233.144 119.461 232.966 119.449 232.778L119.344 231.425L118.148 231.571C118.16 231.728 118.172 231.874 118.184 232.011C118.195 232.144 118.203 232.263 118.207 232.368C118.211 232.47 118.213 232.552 118.213 232.614C118.213 233.001 118.133 233.308 117.973 233.534C117.812 233.761 117.545 233.874 117.17 233.874C116.963 233.874 116.789 233.825 116.648 233.728C116.508 233.626 116.398 233.493 116.32 233.329C116.246 233.161 116.203 232.978 116.191 232.778L116.086 231.425L114.891 231.571C114.902 231.728 114.912 231.874 114.92 232.011C114.932 232.144 114.939 232.261 114.943 232.362C114.951 232.464 114.955 232.548 114.955 232.614C114.955 233.067 114.84 233.392 114.609 233.587C114.383 233.778 114.035 233.874 113.566 233.874H113.145V235.216H113.555C114.051 235.216 114.453 235.144 114.762 234.999C115.07 234.854 115.324 234.651 115.523 234.39C115.68 234.647 115.885 234.851 116.139 234.999C116.393 235.144 116.732 235.216 117.158 235.216ZM129.404 227.112L128.467 228.05L129.404 228.987L130.342 228.05L129.404 227.112ZM126.498 236.101C126.498 236.659 126.604 237.138 126.814 237.536C127.029 237.935 127.326 238.261 127.705 238.515C128.084 238.772 128.52 238.962 129.012 239.083C129.508 239.204 130.039 239.265 130.605 239.265C131.152 239.265 131.697 239.216 132.24 239.118C132.787 239.021 133.291 238.872 133.752 238.673L133.4 237.425C132.998 237.601 132.557 237.735 132.076 237.829C131.6 237.923 131.117 237.97 130.629 237.97C130.039 237.97 129.523 237.897 129.082 237.753C128.645 237.608 128.305 237.394 128.062 237.108C127.824 236.827 127.705 236.476 127.705 236.054C127.705 235.737 127.783 235.431 127.939 235.134C128.096 234.837 128.324 234.558 128.625 234.296C128.926 234.03 129.291 233.79 129.721 233.575C130.154 233.356 130.645 233.171 131.191 233.019C131.211 233.601 131.332 234.052 131.555 234.372C131.777 234.688 132.098 234.909 132.516 235.034C132.938 235.155 133.449 235.216 134.051 235.216H134.496V233.874H134.033C133.662 233.874 133.344 233.851 133.078 233.804C132.816 233.753 132.617 233.649 132.48 233.493C132.344 233.337 132.271 233.097 132.264 232.772C132.447 232.737 132.658 232.706 132.896 232.679C133.139 232.651 133.363 232.63 133.57 232.614V231.384C133.367 231.368 133.168 231.343 132.973 231.308C132.777 231.269 132.574 231.214 132.363 231.144C132.152 231.073 131.918 230.981 131.66 230.868C131.406 230.755 131.111 230.618 130.775 230.458C130.432 230.29 130.104 230.149 129.791 230.036C129.479 229.919 129.17 229.86 128.865 229.86C128.377 229.86 127.936 229.997 127.541 230.271C127.146 230.54 126.816 230.892 126.551 231.325L126.381 231.589L127.465 232.128L127.658 231.876C127.803 231.688 127.979 231.526 128.186 231.39C128.396 231.249 128.621 231.179 128.859 231.179C128.926 231.179 129.01 231.192 129.111 231.22C129.217 231.247 129.342 231.288 129.486 231.343C129.631 231.394 129.795 231.456 129.979 231.53C130.064 231.562 130.154 231.597 130.248 231.636C130.346 231.671 130.445 231.708 130.547 231.747C130.648 231.786 130.746 231.823 130.84 231.858C130.195 232.019 129.605 232.231 129.07 232.497C128.539 232.763 128.082 233.077 127.699 233.44C127.316 233.8 127.02 234.204 126.809 234.653C126.602 235.099 126.498 235.581 126.498 236.101ZM134.268 233.874V235.216H135.357V233.874H134.268ZM135.891 235.216C136.512 235.216 136.996 235.106 137.344 234.888C137.695 234.665 137.941 234.36 138.082 233.974C138.227 233.583 138.299 233.132 138.299 232.62C138.299 232.308 138.277 231.97 138.234 231.606C138.191 231.243 138.121 230.888 138.023 230.54L136.793 230.868C136.895 231.247 136.967 231.604 137.01 231.94C137.057 232.272 137.08 232.548 137.08 232.767C137.08 233.146 136.99 233.425 136.811 233.604C136.635 233.784 136.324 233.874 135.879 233.874H135.246V235.216H135.891ZM137.027 236.065L136.137 236.962L137.027 237.87L137.93 236.962L137.027 236.065ZM135.07 236.065L134.174 236.962L135.07 237.87L135.973 236.962L135.07 236.065ZM139.119 238.386C139.865 238.241 140.492 237.979 141 237.601C141.508 237.222 141.893 236.747 142.154 236.177C142.416 235.606 142.547 234.958 142.547 234.231C142.547 233.825 142.508 233.405 142.43 232.972C142.355 232.538 142.246 232.116 142.102 231.706L140.865 232.116C140.994 232.499 141.104 232.89 141.193 233.288C141.283 233.687 141.328 234.058 141.328 234.401C141.328 234.901 141.232 235.333 141.041 235.696C140.85 236.063 140.557 236.368 140.162 236.61C139.771 236.856 139.273 237.046 138.668 237.179L139.119 238.386ZM143.93 227.024V232.638C143.93 233.517 144.121 234.167 144.504 234.589C144.887 235.007 145.48 235.216 146.285 235.216H146.426V233.874H146.285C145.887 233.874 145.605 233.782 145.441 233.599C145.277 233.411 145.195 233.071 145.195 232.579V227.024H143.93ZM146.203 233.874V235.216H146.889V233.874H146.203ZM149.08 227.933L148.189 228.823L149.08 229.731L149.982 228.823L149.08 227.933ZM147.123 227.933L146.227 228.823L147.123 229.731L148.025 228.823L147.123 227.933ZM147.41 235.216C148.031 235.216 148.516 235.106 148.863 234.888C149.215 234.665 149.461 234.36 149.602 233.974C149.746 233.583 149.818 233.132 149.818 232.62C149.818 232.308 149.797 231.97 149.754 231.606C149.711 231.243 149.641 230.888 149.543 230.54L148.312 230.868C148.414 231.247 148.486 231.604 148.529 231.94C148.576 232.272 148.6 232.548 148.6 232.767C148.6 233.146 148.51 233.425 148.33 233.604C148.154 233.784 147.844 233.874 147.398 233.874H146.766V235.216H147.41Z" fill="#707174"/>
<rect x="18.2266" y="212.716" width="140" height="39" rx="7.5" stroke="#BDBDBF"/>
<path d="M224.838 238.175C225.689 238.175 226.404 238.046 226.982 237.788C227.561 237.53 227.998 237.19 228.295 236.769C228.592 236.351 228.74 235.897 228.74 235.409C228.74 235.101 228.693 234.827 228.6 234.589C228.506 234.351 228.346 234.163 228.119 234.026C227.896 233.89 227.586 233.821 227.188 233.821H226.256C226.084 233.821 225.963 233.792 225.893 233.733C225.822 233.675 225.787 233.571 225.787 233.423C225.787 233.114 225.846 232.837 225.963 232.591C226.08 232.341 226.248 232.144 226.467 231.999C226.689 231.854 226.955 231.782 227.264 231.782C227.428 231.782 227.596 231.804 227.768 231.847C227.939 231.886 228.115 231.952 228.295 232.046L228.723 230.892C228.488 230.731 228.246 230.616 227.996 230.546C227.746 230.476 227.5 230.44 227.258 230.44C226.844 230.44 226.469 230.521 226.133 230.681C225.801 230.841 225.518 231.062 225.283 231.343C225.049 231.62 224.867 231.938 224.738 232.298C224.613 232.653 224.551 233.028 224.551 233.423C224.551 233.751 224.592 234.026 224.674 234.249C224.756 234.472 224.871 234.649 225.02 234.782C225.168 234.915 225.346 235.011 225.553 235.069C225.764 235.128 225.994 235.157 226.244 235.157H227.193C227.338 235.157 227.438 235.194 227.492 235.269C227.547 235.343 227.574 235.427 227.574 235.521C227.574 235.669 227.512 235.821 227.387 235.978C227.262 236.134 227.082 236.276 226.848 236.405C226.613 236.538 226.326 236.644 225.986 236.722C225.646 236.804 225.264 236.845 224.838 236.845C224.244 236.845 223.777 236.745 223.438 236.546C223.102 236.351 222.861 236.085 222.717 235.749C222.576 235.417 222.506 235.052 222.506 234.653C222.506 234.302 222.549 233.933 222.635 233.546C222.725 233.159 222.832 232.776 222.957 232.397L221.809 231.946C221.641 232.392 221.51 232.847 221.416 233.312C221.326 233.772 221.281 234.222 221.281 234.659C221.281 235.312 221.4 235.903 221.639 236.435C221.881 236.966 222.264 237.388 222.787 237.7C223.311 238.017 223.994 238.175 224.838 238.175ZM229.531 238.386C230.277 238.241 230.904 237.979 231.412 237.601C231.92 237.222 232.305 236.747 232.566 236.177C232.828 235.606 232.959 234.958 232.959 234.231C232.959 233.825 232.92 233.405 232.842 232.972C232.768 232.538 232.658 232.116 232.514 231.706L231.277 232.116C231.406 232.499 231.516 232.89 231.605 233.288C231.695 233.687 231.74 234.058 231.74 234.401C231.74 234.901 231.645 235.333 231.453 235.696C231.262 236.063 230.969 236.368 230.574 236.61C230.184 236.856 229.686 237.046 229.08 237.179L229.531 238.386ZM238.426 234.085C238.426 233.655 238.381 233.235 238.291 232.825C238.205 232.411 238.068 232.038 237.881 231.706C237.697 231.374 237.461 231.11 237.172 230.915C236.883 230.716 236.533 230.616 236.123 230.616C235.779 230.616 235.477 230.696 235.215 230.856C234.953 231.013 234.734 231.224 234.559 231.489C234.387 231.751 234.256 232.04 234.166 232.356C234.08 232.669 234.037 232.979 234.037 233.288C234.037 233.956 234.23 234.448 234.617 234.765C235.008 235.077 235.562 235.233 236.281 235.233C236.402 235.233 236.541 235.22 236.697 235.192C236.854 235.165 236.996 235.134 237.125 235.099C237.047 235.446 236.873 235.755 236.604 236.024C236.338 236.298 235.988 236.528 235.555 236.716C235.125 236.907 234.625 237.06 234.055 237.173L234.506 238.38C235.342 238.22 236.051 237.96 236.633 237.601C237.219 237.241 237.664 236.771 237.969 236.188C238.273 235.61 238.426 234.909 238.426 234.085ZM236.287 233.897C235.955 233.897 235.697 233.851 235.514 233.757C235.33 233.663 235.238 233.489 235.238 233.235C235.238 233.083 235.264 232.905 235.314 232.702C235.365 232.495 235.453 232.315 235.578 232.163C235.707 232.007 235.885 231.929 236.111 231.929C236.287 231.929 236.439 231.978 236.568 232.075C236.701 232.169 236.811 232.302 236.896 232.474C236.986 232.646 237.057 232.843 237.107 233.065C237.162 233.288 237.199 233.522 237.219 233.769C237.086 233.808 236.939 233.839 236.779 233.862C236.619 233.886 236.455 233.897 236.287 233.897ZM241.01 226.274L240.254 225.929C240.125 225.87 240.004 225.823 239.891 225.788C239.781 225.753 239.674 225.735 239.568 225.735C239.396 225.735 239.217 225.796 239.029 225.917C238.842 226.038 238.623 226.228 238.373 226.485L238.01 226.86L238.613 227.405L238.971 227.048C239.139 226.88 239.273 226.759 239.375 226.685C239.48 226.61 239.58 226.573 239.674 226.573C239.717 226.573 239.76 226.581 239.803 226.597C239.85 226.608 239.9 226.626 239.955 226.649L240.711 226.995C240.918 227.085 241.098 227.13 241.25 227.13C241.418 227.13 241.58 227.083 241.736 226.989C241.896 226.892 242.078 226.747 242.281 226.556L242.633 226.222L242.029 225.677L241.713 225.97C241.588 226.079 241.484 226.165 241.402 226.228C241.32 226.286 241.24 226.315 241.162 226.315C241.111 226.315 241.061 226.302 241.01 226.274ZM241.068 227.851H239.809V235.21H241.068V227.851ZM243.898 233.892C243.695 233.892 243.469 233.876 243.219 233.845C242.969 233.813 242.717 233.772 242.463 233.722V235.058C242.693 235.108 242.934 235.146 243.184 235.169C243.438 235.192 243.705 235.204 243.986 235.204C244.701 235.204 245.301 235.12 245.785 234.952C246.27 234.784 246.635 234.524 246.881 234.173C247.131 233.817 247.256 233.364 247.256 232.813C247.256 232.442 247.18 232.093 247.027 231.765C246.879 231.433 246.666 231.118 246.389 230.821C246.111 230.524 245.781 230.245 245.398 229.983C245.016 229.722 244.594 229.476 244.133 229.245L243.553 230.429C244.08 230.702 244.527 230.979 244.895 231.261C245.266 231.538 245.549 231.812 245.744 232.081C245.943 232.351 246.043 232.608 246.043 232.854C246.043 233.104 245.953 233.306 245.773 233.458C245.594 233.606 245.342 233.716 245.018 233.786C244.697 233.856 244.324 233.892 243.898 233.892ZM248.639 227.024V232.638C248.639 233.517 248.83 234.167 249.213 234.589C249.596 235.007 250.189 235.216 250.994 235.216H251.135V233.874H250.994C250.596 233.874 250.314 233.782 250.15 233.599C249.986 233.411 249.904 233.071 249.904 232.579V227.024H248.639ZM250.9 233.874V235.216H251.369V233.874H250.9ZM253.021 236.065L252.131 236.962L253.021 237.87L253.924 236.962L253.021 236.065ZM251.064 236.065L250.168 236.962L251.064 237.87L251.967 236.962L251.064 236.065ZM251.885 235.216C252.506 235.216 252.99 235.106 253.338 234.888C253.689 234.665 253.936 234.36 254.076 233.974C254.221 233.583 254.293 233.132 254.293 232.62C254.293 232.308 254.271 231.97 254.229 231.606C254.186 231.243 254.115 230.888 254.018 230.54L252.787 230.868C252.889 231.247 252.961 231.604 253.004 231.94C253.051 232.272 253.074 232.548 253.074 232.767C253.074 233.146 252.984 233.425 252.805 233.604C252.629 233.784 252.318 233.874 251.873 233.874H251.24V235.216H251.885ZM264.271 235.216C264.771 235.216 265.246 235.183 265.695 235.116C266.148 235.046 266.551 234.919 266.902 234.735C267.258 234.552 267.535 234.29 267.734 233.95C267.938 233.606 268.039 233.159 268.039 232.608C268.039 232.464 268.029 232.267 268.01 232.017C267.99 231.767 267.959 231.509 267.916 231.243C267.873 230.978 267.818 230.745 267.752 230.546L266.527 230.88C266.621 231.239 266.691 231.597 266.738 231.952C266.789 232.304 266.814 232.569 266.814 232.749C266.814 233.011 266.734 233.218 266.574 233.37C266.418 233.522 266.211 233.636 265.953 233.71C265.699 233.78 265.426 233.825 265.133 233.845C264.84 233.864 264.557 233.874 264.283 233.874H263.029C262.521 233.874 262.064 233.847 261.658 233.792C261.256 233.733 260.91 233.64 260.621 233.511C260.336 233.382 260.115 233.208 259.959 232.989C259.807 232.771 259.73 232.499 259.73 232.175C259.73 231.979 259.756 231.774 259.807 231.56C259.861 231.341 259.92 231.144 259.982 230.968L258.857 230.546C258.752 230.804 258.664 231.079 258.594 231.372C258.527 231.661 258.494 231.958 258.494 232.263C258.494 232.802 258.596 233.259 258.799 233.634C259.006 234.005 259.305 234.308 259.695 234.542C260.086 234.776 260.561 234.948 261.119 235.058C261.682 235.163 262.318 235.216 263.029 235.216H264.271ZM264.289 229.169L263.398 230.065L264.289 230.974L265.191 230.065L264.289 229.169ZM262.332 229.169L261.436 230.065L262.332 230.974L263.234 230.065L262.332 229.169ZM269.428 227.024V232.638C269.428 233.517 269.619 234.167 270.002 234.589C270.385 235.007 270.979 235.216 271.783 235.216H271.924V233.874H271.783C271.385 233.874 271.104 233.782 270.939 233.599C270.775 233.411 270.693 233.071 270.693 232.579V227.024H269.428ZM280.227 233.874H279.91C279.602 233.874 279.33 233.853 279.096 233.81C278.861 233.767 278.674 233.696 278.533 233.599C278.393 233.501 278.311 233.372 278.287 233.212C278.541 233.099 278.77 233.015 278.973 232.96C279.18 232.905 279.379 232.868 279.57 232.849V231.595C279.367 231.583 279.168 231.56 278.973 231.524C278.781 231.489 278.58 231.437 278.369 231.366C278.158 231.296 277.924 231.204 277.666 231.091C277.408 230.978 277.113 230.839 276.781 230.675C276.438 230.511 276.107 230.37 275.791 230.253C275.479 230.136 275.17 230.077 274.865 230.077C274.377 230.077 273.936 230.214 273.541 230.487C273.146 230.761 272.818 231.112 272.557 231.542L272.393 231.812L273.471 232.339L273.693 232.052C273.826 231.88 273.996 231.728 274.203 231.595C274.414 231.458 274.633 231.39 274.859 231.39C274.93 231.39 275.02 231.405 275.129 231.437C275.242 231.468 275.375 231.513 275.527 231.571C275.684 231.626 275.863 231.694 276.066 231.776C276.227 231.835 276.381 231.896 276.529 231.958C276.678 232.017 276.822 232.075 276.963 232.134C277.107 232.192 277.252 232.251 277.396 232.31C276.826 232.606 276.291 232.872 275.791 233.106C275.291 233.341 274.791 233.528 274.291 233.669C273.795 233.806 273.264 233.874 272.697 233.874H271.713V235.216H272.68C273.234 235.216 273.771 235.147 274.291 235.011C274.814 234.87 275.33 234.685 275.838 234.454C276.35 234.224 276.855 233.974 277.355 233.704C277.434 234.06 277.574 234.349 277.777 234.571C277.98 234.794 278.256 234.958 278.604 235.063C278.951 235.165 279.379 235.216 279.887 235.216H280.227V233.874ZM279.986 233.874V235.216H280.455V233.874H279.986ZM282.107 236.065L281.217 236.962L282.107 237.87L283.01 236.962L282.107 236.065ZM280.15 236.065L279.254 236.962L280.15 237.87L281.053 236.962L280.15 236.065ZM282.09 231.39C282.105 231.573 282.117 231.761 282.125 231.952C282.137 232.144 282.143 232.341 282.143 232.544C282.143 232.974 282.047 233.304 281.855 233.534C281.668 233.761 281.34 233.874 280.871 233.874H280.32V235.216H280.871C281.242 235.216 281.596 235.146 281.932 235.005C282.271 234.864 282.551 234.655 282.77 234.378C282.883 234.554 283.016 234.704 283.168 234.829C283.324 234.95 283.508 235.046 283.719 235.116C283.93 235.183 284.174 235.216 284.451 235.216H284.58V233.874H284.463C284.229 233.874 284.033 233.829 283.877 233.739C283.725 233.646 283.607 233.515 283.525 233.347C283.443 233.175 283.396 232.976 283.385 232.749L283.279 231.243L282.09 231.39ZM291.406 227.353L290.469 228.29L291.406 229.228L292.344 228.29L291.406 227.353ZM291.693 231.56C292.018 231.56 292.281 231.659 292.484 231.858C292.688 232.058 292.789 232.313 292.789 232.626C292.789 232.86 292.715 233.058 292.566 233.218C292.422 233.378 292.213 233.507 291.939 233.604C291.666 233.698 291.334 233.767 290.943 233.81C290.557 233.853 290.119 233.874 289.631 233.874H288.863C289.09 233.526 289.32 233.21 289.555 232.925C289.793 232.64 290.031 232.396 290.27 232.192C290.512 231.989 290.752 231.833 290.99 231.724C291.229 231.614 291.463 231.56 291.693 231.56ZM287.574 233.675C287.43 233.663 287.32 233.56 287.246 233.364C287.176 233.169 287.133 232.964 287.117 232.749L287.018 231.249L285.828 231.39C285.84 231.585 285.852 231.776 285.863 231.964C285.879 232.147 285.887 232.341 285.887 232.544C285.887 232.962 285.799 233.288 285.623 233.522C285.451 233.757 285.109 233.874 284.598 233.874H284.375L284.369 235.216H284.598C285.055 235.216 285.428 235.147 285.717 235.011C286.01 234.87 286.268 234.661 286.49 234.384C286.643 234.567 286.842 234.722 287.088 234.847C287.334 234.972 287.639 235.065 288.002 235.128C288.369 235.187 288.803 235.216 289.303 235.216H289.613C290.297 235.216 290.912 235.167 291.459 235.069C292.006 234.968 292.471 234.812 292.854 234.601C293.24 234.386 293.535 234.11 293.738 233.774C293.941 233.435 294.043 233.024 294.043 232.544C294.043 232.099 293.941 231.704 293.738 231.36C293.535 231.013 293.252 230.739 292.889 230.54C292.529 230.337 292.115 230.235 291.646 230.235C291.271 230.235 290.906 230.315 290.551 230.476C290.195 230.636 289.85 230.866 289.514 231.167C289.178 231.468 288.848 231.829 288.523 232.251C288.203 232.673 287.887 233.147 287.574 233.675ZM297.195 230.604C296.848 230.604 296.543 230.687 296.281 230.851C296.02 231.015 295.801 231.231 295.625 231.501C295.453 231.767 295.324 232.058 295.238 232.374C295.156 232.687 295.115 232.991 295.115 233.288C295.115 233.948 295.309 234.435 295.695 234.747C296.086 235.06 296.662 235.216 297.424 235.216H298.186C298.088 235.544 297.902 235.835 297.629 236.089C297.355 236.343 297.008 236.56 296.586 236.739C296.164 236.919 295.68 237.063 295.133 237.173L295.584 238.38C296.381 238.228 297.039 238.001 297.559 237.7C298.078 237.399 298.482 237.038 298.771 236.616C299.064 236.194 299.268 235.728 299.381 235.216H300.072V233.874H299.486C299.467 233.394 299.402 232.954 299.293 232.556C299.188 232.157 299.035 231.813 298.836 231.524C298.641 231.231 298.406 231.005 298.133 230.845C297.859 230.685 297.547 230.604 297.195 230.604ZM297.389 233.874C297.033 233.874 296.766 233.829 296.586 233.739C296.406 233.649 296.316 233.481 296.316 233.235C296.316 233.079 296.342 232.899 296.393 232.696C296.443 232.493 296.531 232.315 296.656 232.163C296.785 232.007 296.961 231.929 297.184 231.929C297.359 231.929 297.512 231.978 297.641 232.075C297.773 232.169 297.885 232.304 297.975 232.479C298.064 232.651 298.135 232.856 298.186 233.095C298.24 233.329 298.277 233.589 298.297 233.874H297.389ZM299.85 233.874V235.216H300.266V233.874H299.85ZM302.434 227.933L301.543 228.823L302.434 229.731L303.336 228.823L302.434 227.933ZM300.477 227.933L299.58 228.823L300.477 229.731L301.379 228.823L300.477 227.933ZM300.764 235.216C301.385 235.216 301.869 235.106 302.217 234.888C302.568 234.665 302.814 234.36 302.955 233.974C303.1 233.583 303.172 233.132 303.172 232.62C303.172 232.308 303.15 231.97 303.107 231.606C303.064 231.243 302.994 230.888 302.896 230.54L301.666 230.868C301.768 231.247 301.84 231.604 301.883 231.94C301.93 232.272 301.953 232.548 301.953 232.767C301.953 233.146 301.863 233.425 301.684 233.604C301.508 233.784 301.197 233.874 300.752 233.874H300.119V235.216H300.764Z" fill="#707174"/>
<rect x="171.227" y="212.716" width="140" height="39" rx="7.5" stroke="#BDBDBF"/>
<path d="M37.2017 286.691L34.0267 283.516C33.7934 283.282 33.7392 283.012 33.8642 282.703C33.9892 282.395 34.2184 282.241 34.5517 282.241H40.9017C41.2351 282.241 41.4642 282.395 41.5892 282.703C41.7142 283.012 41.6601 283.282 41.4267 283.516L38.2517 286.691C38.1684 286.774 38.0851 286.832 38.0017 286.866C37.9184 286.899 37.8267 286.916 37.7267 286.916C37.6267 286.916 37.5351 286.899 37.4517 286.866C37.3684 286.832 37.2851 286.774 37.2017 286.691Z" fill="#707174"/>
<path d="M134.754 287.216H134.906V285.874H134.689C134.416 285.874 134.199 285.8 134.039 285.651C133.879 285.499 133.76 285.274 133.682 284.978L133.354 283.706L132.117 284.116C132.246 284.499 132.355 284.89 132.445 285.288C132.535 285.687 132.58 286.058 132.58 286.401C132.58 286.901 132.484 287.333 132.293 287.696C132.102 288.063 131.809 288.368 131.414 288.61C131.023 288.856 130.525 289.046 129.92 289.179L130.365 290.386C131.08 290.245 131.672 290.009 132.141 289.677C132.613 289.345 132.98 288.942 133.242 288.47C133.504 287.997 133.674 287.485 133.752 286.935C133.854 287.009 133.988 287.075 134.156 287.134C134.328 287.188 134.527 287.216 134.754 287.216ZM134.689 287.216H135.885C135.975 287.649 136.137 288.067 136.371 288.47C136.609 288.872 136.9 289.235 137.244 289.56C137.592 289.888 137.973 290.155 138.387 290.362L139.242 289.542C139.234 289.444 139.229 289.345 139.225 289.243C139.221 289.142 139.219 289.046 139.219 288.956C139.219 288.651 139.246 288.388 139.301 288.165C139.359 287.946 139.447 287.767 139.564 287.626C139.682 287.485 139.832 287.382 140.016 287.315C140.203 287.249 140.426 287.216 140.684 287.216H140.883V285.874H140.695C140.336 285.874 140.006 285.942 139.705 286.079C139.408 286.216 139.148 286.409 138.926 286.659C138.707 286.909 138.529 287.206 138.393 287.55C138.256 287.897 138.168 288.28 138.129 288.698C137.957 288.577 137.799 288.433 137.654 288.265C137.514 288.097 137.393 287.921 137.291 287.737C137.189 287.558 137.115 287.38 137.068 287.204C137.412 287.161 137.738 287.042 138.047 286.847C138.359 286.651 138.637 286.405 138.879 286.108C139.125 285.812 139.318 285.487 139.459 285.136C139.6 284.78 139.67 284.421 139.67 284.058C139.67 283.679 139.602 283.343 139.465 283.05C139.332 282.753 139.141 282.521 138.891 282.353C138.641 282.185 138.34 282.101 137.988 282.101C137.582 282.101 137.238 282.214 136.957 282.44C136.676 282.667 136.449 282.964 136.277 283.331C136.105 283.698 135.98 284.095 135.902 284.521C135.824 284.946 135.785 285.358 135.785 285.757V285.874H134.689V287.216ZM137.953 283.396C138.133 283.396 138.277 283.458 138.387 283.583C138.496 283.708 138.551 283.886 138.551 284.116C138.551 284.425 138.479 284.712 138.334 284.978C138.193 285.243 138.002 285.458 137.76 285.622C137.521 285.782 137.258 285.868 136.969 285.88V285.757C136.969 285.464 136.988 285.177 137.027 284.896C137.07 284.614 137.133 284.362 137.215 284.14C137.297 283.913 137.398 283.733 137.52 283.601C137.645 283.464 137.789 283.396 137.953 283.396ZM145.992 279.165L145.137 280.021L145.992 280.876L146.848 280.021L145.992 279.165ZM147.006 280.653L146.145 281.509L147.006 282.364L147.861 281.509L147.006 280.653ZM144.984 280.653L144.123 281.509L144.984 282.364L145.84 281.509L144.984 280.653ZM144.68 287.216C145.004 287.216 145.311 287.146 145.6 287.005C145.893 286.86 146.145 286.653 146.355 286.384C146.508 286.638 146.705 286.841 146.947 286.993C147.193 287.142 147.498 287.216 147.861 287.216C148.35 287.212 148.736 287.089 149.021 286.847C149.307 286.604 149.51 286.282 149.631 285.88C149.756 285.478 149.818 285.032 149.818 284.544C149.818 284.228 149.795 283.907 149.748 283.583C149.705 283.255 149.637 282.927 149.543 282.599L148.312 282.921C148.398 283.229 148.469 283.538 148.523 283.847C148.578 284.151 148.605 284.427 148.605 284.673C148.605 284.896 148.578 285.099 148.523 285.282C148.473 285.462 148.391 285.606 148.277 285.716C148.168 285.821 148.023 285.874 147.844 285.874C147.652 285.874 147.494 285.823 147.369 285.722C147.244 285.616 147.148 285.479 147.082 285.312C147.02 285.144 146.982 284.966 146.971 284.778L146.865 283.425L145.67 283.571C145.682 283.728 145.693 283.874 145.705 284.011C145.717 284.144 145.725 284.263 145.729 284.368C145.732 284.47 145.734 284.552 145.734 284.614C145.734 285.001 145.654 285.308 145.494 285.534C145.334 285.761 145.066 285.874 144.691 285.874C144.484 285.874 144.311 285.825 144.17 285.728C144.029 285.626 143.92 285.493 143.842 285.329C143.768 285.161 143.725 284.978 143.713 284.778L143.607 283.425L142.412 283.571C142.424 283.728 142.434 283.874 142.441 284.011C142.453 284.144 142.461 284.261 142.465 284.362C142.473 284.464 142.477 284.548 142.477 284.614C142.477 285.067 142.361 285.392 142.131 285.587C141.904 285.778 141.557 285.874 141.088 285.874H140.666V287.216H141.076C141.572 287.216 141.975 287.144 142.283 286.999C142.592 286.854 142.846 286.651 143.045 286.39C143.201 286.647 143.406 286.851 143.66 286.999C143.914 287.144 144.254 287.216 144.68 287.216Z" fill="#707174"/>
<rect x="18.2266" y="264.716" width="140" height="39" rx="7.5" stroke="#BDBDBF"/>
<path d="M190.202 286.691L187.027 283.516C186.793 283.282 186.739 283.012 186.864 282.703C186.989 282.395 187.218 282.241 187.552 282.241H193.902C194.235 282.241 194.464 282.395 194.589 282.703C194.714 283.012 194.66 283.282 194.427 283.516L191.252 286.691C191.168 286.774 191.085 286.832 191.002 286.866C190.918 286.899 190.827 286.916 190.727 286.916C190.627 286.916 190.535 286.899 190.452 286.866C190.368 286.832 190.285 286.774 190.202 286.691Z" fill="#707174"/>
<path d="M278.938 282.001L278 282.938L278.938 283.876L279.875 282.938L278.938 282.001ZM279.014 288.481C278.42 288.481 277.953 288.382 277.613 288.183C277.277 287.983 277.037 287.718 276.893 287.386C276.752 287.054 276.682 286.687 276.682 286.284C276.682 285.933 276.725 285.565 276.811 285.183C276.9 284.796 277.008 284.411 277.133 284.028L275.984 283.577C275.816 284.026 275.686 284.483 275.592 284.948C275.502 285.409 275.457 285.858 275.457 286.296C275.457 286.944 275.576 287.534 275.814 288.065C276.057 288.597 276.439 289.019 276.963 289.331C277.486 289.647 278.17 289.806 279.014 289.806C279.83 289.806 280.504 289.657 281.035 289.36C281.57 289.063 281.969 288.647 282.23 288.112C282.492 287.581 282.623 286.96 282.623 286.249C282.623 285.784 282.576 285.31 282.482 284.825C282.389 284.341 282.242 283.829 282.043 283.29L280.795 283.776C280.928 284.116 281.059 284.511 281.188 284.96C281.32 285.409 281.387 285.858 281.387 286.308C281.387 286.698 281.316 287.058 281.176 287.386C281.035 287.718 280.793 287.983 280.449 288.183C280.105 288.382 279.627 288.481 279.014 288.481ZM284.006 279.024V284.638C284.006 285.517 284.197 286.167 284.58 286.589C284.963 287.007 285.557 287.216 286.361 287.216H286.502V285.874H286.361C285.963 285.874 285.682 285.782 285.518 285.599C285.354 285.411 285.271 285.071 285.271 284.579V279.024H284.006ZM286.279 285.874V287.216H286.965V285.874H286.279ZM289.162 280.442L288.266 281.333L289.162 282.241L290.059 281.333L289.162 280.442ZM287.199 280.442L286.309 281.333L287.199 282.241L288.102 281.333L287.199 280.442ZM288.611 283.39C288.627 283.573 288.639 283.761 288.646 283.952C288.658 284.144 288.664 284.341 288.664 284.544C288.664 284.974 288.568 285.304 288.377 285.534C288.189 285.761 287.861 285.874 287.393 285.874H286.842V287.216H287.393C287.764 287.216 288.117 287.146 288.453 287.005C288.793 286.864 289.072 286.655 289.291 286.378C289.404 286.554 289.537 286.704 289.689 286.829C289.846 286.95 290.029 287.046 290.24 287.116C290.451 287.183 290.695 287.216 290.973 287.216H291.102V285.874H290.984C290.75 285.874 290.555 285.829 290.398 285.739C290.246 285.646 290.129 285.515 290.047 285.347C289.965 285.175 289.918 284.976 289.906 284.749L289.801 283.243L288.611 283.39ZM294.898 287.216C295.223 287.216 295.529 287.146 295.818 287.005C296.111 286.86 296.363 286.653 296.574 286.384C296.727 286.638 296.924 286.841 297.166 286.993C297.412 287.142 297.717 287.216 298.08 287.216C298.568 287.212 298.955 287.089 299.24 286.847C299.525 286.604 299.729 286.282 299.85 285.88C299.975 285.478 300.037 285.032 300.037 284.544C300.037 284.228 300.014 283.907 299.967 283.583C299.924 283.255 299.855 282.927 299.762 282.599L298.531 282.921C298.617 283.229 298.688 283.538 298.742 283.847C298.797 284.151 298.824 284.427 298.824 284.673C298.824 284.896 298.797 285.099 298.742 285.282C298.691 285.462 298.609 285.606 298.496 285.716C298.387 285.821 298.242 285.874 298.062 285.874C297.871 285.874 297.713 285.823 297.588 285.722C297.463 285.616 297.367 285.479 297.301 285.312C297.238 285.144 297.201 284.966 297.189 284.778L297.084 283.425L295.889 283.571C295.9 283.728 295.912 283.874 295.924 284.011C295.936 284.144 295.943 284.263 295.947 284.368C295.951 284.47 295.953 284.552 295.953 284.614C295.953 285.001 295.873 285.308 295.713 285.534C295.553 285.761 295.285 285.874 294.91 285.874C294.703 285.874 294.529 285.825 294.389 285.728C294.248 285.626 294.139 285.493 294.061 285.329C293.986 285.161 293.943 284.978 293.932 284.778L293.826 283.425L292.631 283.571C292.643 283.728 292.652 283.874 292.66 284.011C292.672 284.144 292.68 284.261 292.684 284.362C292.691 284.464 292.695 284.548 292.695 284.614C292.695 285.067 292.58 285.392 292.35 285.587C292.123 285.778 291.775 285.874 291.307 285.874H290.885V287.216H291.295C291.791 287.216 292.193 287.144 292.502 286.999C292.811 286.854 293.064 286.651 293.264 286.39C293.42 286.647 293.625 286.851 293.879 286.999C294.133 287.144 294.473 287.216 294.898 287.216ZM302.686 279.024H301.426V287.21H302.686V279.024Z" fill="#707174"/>
<rect x="171.227" y="264.716" width="140" height="39" rx="7.5" stroke="#BDBDBF"/>
<rect x="111.283" y="343.313" width="103.404" height="39.8039" rx="8" fill="#3E8DF7"/>
<path d="M135.06 370.434C135.921 370.261 136.664 369.96 137.289 369.532C137.913 369.103 138.394 368.547 138.731 367.864C139.068 367.185 139.237 366.385 139.237 365.464C139.237 364.958 139.191 364.43 139.1 363.878C139.009 363.327 138.875 362.805 138.697 362.313L136.995 362.874C137.145 363.316 137.279 363.787 137.398 364.289C137.521 364.79 137.583 365.246 137.583 365.656C137.583 366.262 137.459 366.768 137.213 367.173C136.967 367.579 136.607 367.905 136.133 368.151C135.664 368.402 135.092 368.602 134.417 368.752L135.06 370.434ZM145.724 365.266C145.724 364.751 145.669 364.248 145.56 363.755C145.455 363.259 145.291 362.81 145.068 362.409C144.845 362.003 144.555 361.682 144.2 361.445C143.849 361.208 143.425 361.089 142.928 361.089C142.509 361.089 142.14 361.19 141.821 361.39C141.502 361.586 141.237 361.846 141.028 362.169C140.818 362.488 140.659 362.839 140.549 363.222C140.44 363.6 140.385 363.972 140.385 364.336C140.385 365.18 140.627 365.79 141.11 366.168C141.597 366.542 142.267 366.729 143.12 366.729C143.234 366.729 143.361 366.72 143.502 366.702C143.648 366.679 143.785 366.654 143.913 366.626C143.808 366.968 143.596 367.276 143.277 367.549C142.962 367.827 142.557 368.064 142.06 368.26C141.568 368.461 141.003 368.623 140.365 368.746L140.987 370.427C141.967 370.24 142.81 369.937 143.516 369.518C144.227 369.103 144.772 368.547 145.15 367.85C145.533 367.157 145.724 366.296 145.724 365.266ZM143.106 364.904C142.778 364.904 142.511 364.863 142.306 364.781C142.106 364.699 142.005 364.528 142.005 364.268C142.005 364.109 142.03 363.922 142.081 363.708C142.135 363.489 142.229 363.297 142.361 363.133C142.498 362.965 142.682 362.88 142.915 362.88C143.115 362.88 143.284 362.94 143.42 363.058C143.557 363.172 143.671 363.325 143.762 363.516C143.853 363.703 143.926 363.908 143.981 364.131C144.036 364.355 144.072 364.571 144.09 364.781C143.967 364.813 143.819 364.842 143.646 364.87C143.477 364.892 143.297 364.904 143.106 364.904ZM148.78 356.154L147.898 355.75C147.743 355.678 147.599 355.623 147.467 355.586C147.335 355.545 147.208 355.525 147.084 355.525C146.866 355.525 146.642 355.6 146.415 355.75C146.191 355.901 145.936 356.124 145.649 356.42L145.205 356.885L145.977 357.583L146.415 357.145C146.592 356.967 146.738 356.833 146.852 356.742C146.971 356.651 147.089 356.605 147.208 356.605C147.258 356.605 147.308 356.612 147.358 356.625C147.408 356.639 147.463 356.66 147.522 356.687L148.404 357.083C148.65 357.197 148.866 357.254 149.053 357.254C149.258 357.254 149.454 357.195 149.641 357.077C149.833 356.958 150.042 356.79 150.27 356.571L150.708 356.161L149.942 355.457L149.545 355.819C149.422 355.933 149.315 356.024 149.224 356.092C149.138 356.156 149.044 356.188 148.944 356.188C148.894 356.188 148.839 356.177 148.78 356.154ZM148.992 358.068H147.255V366.708H148.992V358.068ZM152.3 364.904C152.059 364.904 151.774 364.886 151.446 364.849C151.122 364.808 150.812 364.758 150.516 364.699V366.531C150.808 366.595 151.106 366.64 151.412 366.667C151.722 366.69 152.052 366.702 152.403 366.702C153.214 366.702 153.911 366.601 154.495 366.401C155.083 366.2 155.534 365.884 155.848 365.451C156.167 365.018 156.327 364.453 156.327 363.755C156.327 363.259 156.224 362.801 156.019 362.381C155.814 361.958 155.534 361.568 155.178 361.212C154.823 360.857 154.417 360.531 153.961 360.235C153.506 359.939 153.025 359.665 152.519 359.415L151.733 361.055C152.293 361.329 152.797 361.627 153.244 361.951C153.69 362.27 154.043 362.589 154.303 362.908C154.563 363.227 154.693 363.53 154.693 363.817C154.693 364.099 154.581 364.32 154.358 364.48C154.135 364.635 153.841 364.744 153.476 364.808C153.111 364.872 152.72 364.904 152.3 364.904ZM157.865 357.097V363.598C157.865 364.646 158.095 365.428 158.555 365.943C159.02 366.458 159.747 366.715 160.736 366.715H160.9V364.876H160.736C160.285 364.876 159.982 364.772 159.827 364.562C159.672 364.348 159.594 363.983 159.594 363.468V357.097H157.865ZM160.626 364.876V366.715H161.173V364.876H160.626ZM163.115 367.631L161.987 368.752L163.115 369.887L164.243 368.752L163.115 367.631ZM160.804 367.631L159.69 368.752L160.804 369.887L161.946 368.752L160.804 367.631ZM161.775 366.715C162.509 366.715 163.087 366.583 163.511 366.319C163.935 366.05 164.238 365.679 164.42 365.205C164.603 364.726 164.694 364.168 164.694 363.53C164.694 363.138 164.664 362.728 164.605 362.299C164.55 361.866 164.466 361.427 164.352 360.98L162.698 361.424C162.825 361.917 162.914 362.363 162.964 362.764C163.019 363.165 163.046 363.491 163.046 363.742C163.046 364.175 162.942 364.473 162.732 364.637C162.527 364.797 162.203 364.876 161.761 364.876H161.016V366.715H161.775ZM176.37 359.374L175.242 360.495L176.37 361.629L177.498 360.495L176.37 359.374ZM174.059 359.374L172.945 360.495L174.059 361.629L175.201 360.495L174.059 359.374ZM179.042 361.971C179.061 362.181 179.077 362.422 179.09 362.696C179.104 362.965 179.111 363.211 179.111 363.434C179.111 363.799 178.986 364.088 178.735 364.302C178.484 364.512 178.122 364.66 177.648 364.747C177.174 364.833 176.6 364.876 175.925 364.876H174.784C174.255 364.876 173.763 364.849 173.307 364.794C172.856 364.74 172.459 364.646 172.118 364.514C171.78 364.377 171.516 364.193 171.325 363.96C171.138 363.723 171.044 363.423 171.044 363.058C171.044 362.807 171.081 362.548 171.154 362.279C171.227 362.005 171.302 361.764 171.379 361.554L169.848 360.973C169.716 361.297 169.604 361.645 169.513 362.019C169.427 362.388 169.383 362.769 169.383 363.161C169.383 363.831 169.513 364.393 169.773 364.849C170.033 365.305 170.402 365.669 170.88 365.943C171.359 366.216 171.929 366.415 172.589 366.538C173.25 366.656 173.982 366.715 174.784 366.715H175.925C176.572 366.715 177.133 366.679 177.607 366.606C178.081 366.528 178.493 366.408 178.844 366.244C179.195 366.08 179.507 365.868 179.781 365.608C180.004 365.963 180.287 366.237 180.628 366.428C180.975 366.62 181.408 366.715 181.927 366.715H182.078V364.876H181.927C181.54 364.876 181.26 364.767 181.086 364.548C180.913 364.325 180.815 364.031 180.792 363.667L180.649 361.773L179.042 361.971ZM181.811 364.876V366.715H182.139V364.876H181.811ZM183.219 367.57L182.037 368.752L183.219 369.935L184.402 368.752L183.219 367.57ZM183.917 362.005C183.939 362.238 183.955 362.477 183.964 362.723C183.978 362.965 183.985 363.213 183.985 363.468C183.985 363.942 183.885 364.295 183.684 364.528C183.484 364.76 183.126 364.876 182.611 364.876H181.961V366.715H182.611C183.044 366.715 183.452 366.636 183.834 366.476C184.222 366.317 184.55 366.091 184.819 365.799C184.956 365.982 185.117 366.141 185.304 366.278C185.491 366.415 185.708 366.522 185.954 366.599C186.2 366.677 186.478 366.715 186.788 366.715H186.938V364.876H186.801C186.546 364.876 186.336 364.829 186.172 364.733C186.008 364.637 185.883 364.5 185.796 364.323C185.714 364.145 185.667 363.938 185.653 363.701L185.516 361.814L183.917 362.005ZM186.665 364.876V366.715H187.164V364.876H186.665ZM188.538 356.475L187.471 357.542L188.538 358.608L189.604 357.542L188.538 356.475ZM189.727 358.218L188.661 359.285L189.727 360.351L190.793 359.285L189.727 358.218ZM187.348 358.218L186.282 359.285L187.348 360.351L188.415 359.285L187.348 358.218ZM187.738 366.715C188.472 366.715 189.05 366.583 189.474 366.319C189.898 366.05 190.201 365.679 190.383 365.205C190.566 364.726 190.657 364.168 190.657 363.53C190.657 363.138 190.627 362.728 190.568 362.299C190.513 361.866 190.429 361.427 190.315 360.98L188.661 361.424C188.788 361.917 188.877 362.363 188.927 362.764C188.982 363.165 189.009 363.491 189.009 363.742C189.009 364.175 188.904 364.473 188.695 364.637C188.49 364.797 188.166 364.876 187.724 364.876H186.979V366.715H187.738Z" fill="white"/>
<path d="M0.984863 34.9463C0.984863 22.2437 11.2823 11.9463 23.9849 11.9463H300.015C312.718 11.9463 323.015 22.2437 323.015 34.9463V136.334H0.984863V34.9463Z" fill="#F5BE41"/>
<circle cx="29.2266" cy="40.3628" r="11.5" fill="white"/>
<circle cx="56.2266" cy="40.3628" r="11.5" fill="white"/>
<path d="M48.9961 99.6323H49.3828V96.48H49.043C48.457 96.48 48.0078 96.2925 47.6953 95.9175C47.3828 95.5347 47.1914 95.105 47.1211 94.6284L46.0195 87.1636L43.3711 87.7026L43.4531 88.2651C42.6406 88.5151 41.8672 88.812 41.1328 89.1558C40.4062 89.4917 39.7617 89.8862 39.1992 90.3394C38.6445 90.7925 38.2031 91.3081 37.875 91.8862C37.5547 92.4644 37.3945 93.1167 37.3945 93.8433C37.3945 95.1636 37.8164 96.1675 38.6602 96.855C39.5039 97.5425 40.5586 97.8862 41.8242 97.8862C42.3945 97.8862 42.918 97.7964 43.3945 97.6167C43.8711 97.4292 44.3477 97.144 44.8242 96.7612C45.0195 97.394 45.3008 97.9253 45.668 98.355C46.0352 98.7769 46.4961 99.0972 47.0508 99.3159C47.6055 99.5269 48.2539 99.6323 48.9961 99.6323ZM44.2266 93.2925C44.2266 93.6519 44.1016 93.9526 43.8516 94.1948C43.6094 94.437 43.3008 94.6167 42.9258 94.7339C42.5508 94.8511 42.1719 94.9097 41.7891 94.9097C41.3359 94.9097 40.9688 94.8081 40.6875 94.605C40.4141 94.394 40.2773 94.105 40.2773 93.7378C40.2773 93.48 40.375 93.23 40.5703 92.9878C40.7656 92.7456 41.0312 92.519 41.3672 92.3081C41.7109 92.0894 42.1016 91.8862 42.5391 91.6987C42.9766 91.5034 43.4336 91.3237 43.9102 91.1597L44.1328 92.519C44.1641 92.6597 44.1875 92.7964 44.2031 92.9292C44.2188 93.062 44.2266 93.1831 44.2266 93.2925ZM49.4531 99.6323C50.0469 99.6323 50.5391 99.562 50.9297 99.4214C51.3203 99.2808 51.6641 99.0933 51.9609 98.8589C52.2578 98.6167 52.5508 98.3433 52.8398 98.0386C53.3008 98.4058 53.7578 98.73 54.2109 99.0112C54.6719 99.2925 55.1445 99.5112 55.6289 99.6675C56.1133 99.8237 56.625 99.9019 57.1641 99.9019C57.8516 99.9019 58.4336 99.7847 58.9102 99.5503C59.3945 99.3081 59.8281 98.937 60.2109 98.437C60.5 98.7808 60.8867 99.0659 61.3711 99.2925C61.8555 99.519 62.3477 99.6323 62.8477 99.6323H63.1641V96.48H62.8594C62.6094 96.48 62.3672 96.4136 62.1328 96.2808C61.9062 96.1479 61.707 95.9253 61.5352 95.6128C61.3633 95.3003 61.2305 94.8862 61.1367 94.3706C61.0039 93.605 60.7344 92.9136 60.3281 92.2964C59.9297 91.6714 59.4102 91.1792 58.7695 90.8198C58.1367 90.4526 57.3828 90.269 56.5078 90.269C55.7969 90.269 55.1836 90.4175 54.668 90.7144C54.1523 91.0112 53.7031 91.3979 53.3203 91.8745C52.9375 92.3511 52.5898 92.855 52.2773 93.3862C51.9727 93.9097 51.6758 94.4097 51.3867 94.8862C51.0977 95.355 50.7969 95.7378 50.4844 96.0347C50.1719 96.3315 49.8086 96.48 49.3945 96.48H48.9727L48.9609 99.6323H49.4531ZM56.6016 93.269C57.1719 93.269 57.6211 93.4683 57.9492 93.8667C58.2773 94.2573 58.4414 94.73 58.4414 95.2847C58.4414 95.7065 58.3398 96.0659 58.1367 96.3628C57.9414 96.6597 57.6211 96.8081 57.1758 96.8081C56.9961 96.8081 56.7891 96.7769 56.5547 96.7144C56.3281 96.6519 56.0781 96.5464 55.8047 96.3979C55.6016 96.2886 55.3867 96.1479 55.1602 95.9761C54.9336 95.8042 54.6992 95.605 54.457 95.3784C54.5977 95.0737 54.7695 94.7612 54.9727 94.4409C55.1836 94.1128 55.4219 93.8354 55.6875 93.6089C55.9609 93.3823 56.2656 93.269 56.6016 93.269ZM62.6719 96.48V99.6323H63.6094V96.48H62.6719ZM66.9375 101.203L65.0039 103.125L66.9375 105.07L68.8711 103.125L66.9375 101.203ZM62.9766 101.203L61.0664 103.125L62.9766 105.07L64.9336 103.125L62.9766 101.203ZM66.6797 91.5581C66.7188 91.9565 66.7461 92.3667 66.7617 92.7886C66.7852 93.2026 66.7969 93.6284 66.7969 94.0659C66.7969 94.8784 66.625 95.4839 66.2812 95.8823C65.9375 96.2808 65.3242 96.48 64.4414 96.48H63.3281V99.6323H64.4414C65.1836 99.6323 65.8828 99.4956 66.5391 99.2222C67.2031 98.9487 67.7656 98.562 68.2266 98.062C68.4609 98.3745 68.7383 98.6479 69.0586 98.8823C69.3789 99.1167 69.75 99.3003 70.1719 99.4331C70.5938 99.5659 71.0703 99.6323 71.6016 99.6323H71.8594V96.48H71.625C71.1875 96.48 70.8281 96.3979 70.5469 96.2339C70.2656 96.0698 70.0508 95.8354 69.9023 95.5308C69.7617 95.2261 69.6797 94.8706 69.6562 94.4644L69.4219 91.23L66.6797 91.5581ZM71.4023 96.48V99.6323H71.9648V96.48H71.4023ZM73.8164 101.097L71.7891 103.125L73.8164 105.152L75.8438 103.125L73.8164 101.097ZM72.9609 99.6323C74.2188 99.6323 75.2109 99.4058 75.9375 98.9526C76.6641 98.4917 77.1836 97.855 77.4961 97.0425C77.8086 96.2222 77.9648 95.2651 77.9648 94.1714C77.9648 93.4995 77.9141 92.7964 77.8125 92.062C77.7188 91.3198 77.5742 90.5659 77.3789 89.8003L74.543 90.562C74.7617 91.4058 74.9141 92.1714 75 92.8589C75.0938 93.5464 75.1406 94.105 75.1406 94.5347C75.1406 95.2769 74.9609 95.7886 74.6016 96.0698C74.25 96.3433 73.6953 96.48 72.9375 96.48H71.6602V99.6323H72.9609ZM86.625 83.144V94.2886C86.625 96.0854 87.0195 97.4253 87.8086 98.3081C88.6055 99.1909 89.8516 99.6323 91.5469 99.6323H91.8281V96.48H91.5469C90.7734 96.48 90.2539 96.3003 89.9883 95.9409C89.7227 95.5737 89.5898 94.9487 89.5898 94.0659V83.144H86.625ZM91.3594 96.48V99.6323H92.2969V96.48H91.3594ZM95.625 101.203L93.6914 103.125L95.625 105.07L97.5586 103.125L95.625 101.203ZM91.6641 101.203L89.7539 103.125L91.6641 105.07L93.6211 103.125L91.6641 101.203ZM93.3281 99.6323C94.5859 99.6323 95.5781 99.4058 96.3047 98.9526C97.0312 98.4917 97.5508 97.855 97.8633 97.0425C98.1758 96.2222 98.332 95.2651 98.332 94.1714C98.332 93.4995 98.2812 92.7964 98.1797 92.062C98.0859 91.3198 97.9414 90.5659 97.7461 89.8003L94.9102 90.562C95.1289 91.4058 95.2812 92.1714 95.3672 92.8589C95.4609 93.5464 95.5078 94.105 95.5078 94.5347C95.5078 95.2769 95.3281 95.7886 94.9688 96.0698C94.6172 96.3433 94.0625 96.48 93.3047 96.48H92.0273V99.6323H93.3281ZM117.727 92.3315C118.312 92.3315 118.797 92.5073 119.18 92.8589C119.562 93.2026 119.754 93.6597 119.754 94.23C119.754 94.6831 119.598 95.0581 119.285 95.355C118.98 95.644 118.551 95.8745 117.996 96.0464C117.441 96.2104 116.797 96.3237 116.062 96.3862C115.328 96.4487 114.535 96.48 113.684 96.48H112.465C112.84 95.9175 113.238 95.3862 113.66 94.8862C114.082 94.3862 114.52 93.9448 114.973 93.562C115.426 93.1792 115.883 92.8784 116.344 92.6597C116.812 92.4409 117.273 92.3315 117.727 92.3315ZM109.23 96.48H106.301V99.6323H113.566C114.879 99.6323 116.086 99.5386 117.188 99.3511C118.289 99.1558 119.246 98.8433 120.059 98.4136C120.871 97.9761 121.5 97.3979 121.945 96.6792C122.398 95.9604 122.625 95.0737 122.625 94.019C122.625 93.0894 122.414 92.2651 121.992 91.5464C121.57 90.8276 120.984 90.2651 120.234 89.8589C119.484 89.4448 118.617 89.2378 117.633 89.2378C117.188 89.2378 116.758 89.2925 116.344 89.4019C115.938 89.5112 115.543 89.6714 115.16 89.8823C114.777 90.0854 114.398 90.3354 114.023 90.6323C113.656 90.9292 113.285 91.269 112.91 91.6519V83.144H109.934V95.4253C109.809 95.605 109.688 95.7808 109.57 95.9526C109.461 96.1167 109.348 96.2925 109.23 96.48ZM125.25 83.144V94.2886C125.25 96.0854 125.645 97.4253 126.434 98.3081C127.23 99.1909 128.477 99.6323 130.172 99.6323H130.453V96.48H130.172C129.398 96.48 128.879 96.3003 128.613 95.9409C128.348 95.5737 128.215 94.9487 128.215 94.0659V83.144H125.25ZM144.422 99.6323C145.109 99.6323 145.684 99.4956 146.145 99.2222C146.613 98.9409 147.004 98.5854 147.316 98.1558C147.613 98.6167 148.035 98.98 148.582 99.2456C149.137 99.5034 149.785 99.6323 150.527 99.6323H150.832V96.48H150.504C150.09 96.48 149.746 96.4058 149.473 96.2573C149.199 96.1011 148.988 95.8823 148.84 95.6011C148.699 95.312 148.617 94.9644 148.594 94.5581L148.348 91.312L145.605 91.6519C145.645 92.1362 145.676 92.6245 145.699 93.1167C145.73 93.6011 145.746 93.9839 145.746 94.2651C145.746 94.687 145.703 95.0659 145.617 95.4019C145.531 95.7378 145.391 96.0034 145.195 96.1987C145 96.3862 144.738 96.48 144.41 96.48C144.059 96.48 143.77 96.394 143.543 96.2222C143.316 96.0425 143.145 95.8081 143.027 95.519C142.918 95.2222 142.852 94.9019 142.828 94.5581L142.582 91.5815L139.84 91.9214C139.863 92.2183 139.887 92.5229 139.91 92.8354C139.934 93.1479 139.949 93.4331 139.957 93.6909C139.973 93.9409 139.98 94.1245 139.98 94.2417C139.98 94.9604 139.836 95.5151 139.547 95.9058C139.258 96.2886 138.77 96.48 138.082 96.48C137.707 96.48 137.391 96.3979 137.133 96.2339C136.883 96.062 136.688 95.8315 136.547 95.5425C136.414 95.2456 136.336 94.9175 136.312 94.5581L136.066 91.5815L133.324 91.9214C133.348 92.2183 133.367 92.5229 133.383 92.8354C133.406 93.1479 133.426 93.4292 133.441 93.6792C133.457 93.9292 133.465 94.1167 133.465 94.2417C133.465 95.0854 133.254 95.6714 132.832 95.9995C132.41 96.3198 131.758 96.48 130.875 96.48H130.031V99.6323H130.852C131.789 99.6323 132.57 99.4956 133.195 99.2222C133.82 98.9487 134.344 98.5737 134.766 98.0972C135.094 98.5659 135.52 98.9409 136.043 99.2222C136.574 99.4956 137.246 99.6323 138.059 99.6323C138.73 99.6323 139.352 99.4917 139.922 99.2104C140.492 98.9214 140.98 98.5425 141.387 98.0737C141.707 98.5269 142.117 98.9019 142.617 99.1987C143.117 99.4878 143.719 99.6323 144.422 99.6323ZM157.734 81.0347L155.801 82.9565L157.734 84.9019L159.668 82.9565L157.734 81.0347ZM153.773 81.0347L151.863 82.9565L153.773 84.9019L155.73 82.9565L153.773 81.0347ZM156.117 92.3901C155.633 92.3901 155.23 92.3315 154.91 92.2144C154.59 92.0894 154.43 91.8081 154.43 91.3706C154.43 91.0581 154.488 90.7378 154.605 90.4097C154.723 90.0815 154.902 89.8042 155.145 89.5776C155.387 89.3433 155.684 89.2261 156.035 89.2261C156.34 89.2261 156.602 89.3198 156.82 89.5073C157.039 89.6948 157.227 89.937 157.383 90.2339C157.539 90.5308 157.664 90.8511 157.758 91.1948C157.859 91.5386 157.934 91.8628 157.98 92.1675C157.676 92.2378 157.367 92.2925 157.055 92.3315C156.742 92.3706 156.43 92.3901 156.117 92.3901ZM154.852 96.48H150.422V99.6323H154.711C155.781 99.6323 156.703 99.5503 157.477 99.3862C158.25 99.2222 158.883 98.9292 159.375 98.5073C159.875 98.0776 160.246 97.48 160.488 96.7144C160.73 95.9409 160.852 94.9526 160.852 93.7495C160.852 92.8276 160.766 91.9175 160.594 91.019C160.422 90.1206 160.145 89.3081 159.762 88.5815C159.387 87.855 158.895 87.2769 158.285 86.8472C157.684 86.4097 156.941 86.1909 156.059 86.1909C155.387 86.1909 154.781 86.3472 154.242 86.6597C153.711 86.9722 153.258 87.3901 152.883 87.9136C152.508 88.4292 152.223 88.9995 152.027 89.6245C151.832 90.2495 151.734 90.8745 151.734 91.4995C151.734 92.7573 152.125 93.6714 152.906 94.2417C153.688 94.812 154.762 95.0972 156.129 95.0972C156.465 95.0972 156.797 95.0815 157.125 95.0503C157.453 95.0112 157.766 94.9565 158.062 94.8862C158.062 95.3628 157.938 95.7144 157.688 95.9409C157.445 96.1597 157.09 96.3042 156.621 96.3745C156.152 96.4448 155.562 96.48 154.852 96.48ZM166.453 83.144H163.477V99.6206H166.453V83.144ZM181.816 94.7222C181.816 95.1675 181.637 95.5229 181.277 95.7886C180.926 96.0464 180.465 96.2339 179.895 96.3511C179.324 96.4604 178.715 96.5151 178.066 96.5151C177.613 96.5151 177.129 96.4839 176.613 96.4214C176.098 96.3589 175.598 96.2729 175.113 96.1636V99.3042C175.598 99.4214 176.074 99.5034 176.543 99.5503C177.02 99.5972 177.586 99.6206 178.242 99.6206C179.031 99.6206 179.738 99.5542 180.363 99.4214C180.988 99.2808 181.547 99.0737 182.039 98.8003C182.539 98.5269 182.98 98.1948 183.363 97.8042C183.637 98.1714 183.93 98.4917 184.242 98.7651C184.562 99.0386 184.93 99.2534 185.344 99.4097C185.766 99.5581 186.273 99.6323 186.867 99.6323H187.348V96.48H186.867C186.5 96.48 186.195 96.355 185.953 96.105C185.711 95.855 185.488 95.5034 185.285 95.0503C185.082 94.5972 184.852 94.0698 184.594 93.4683L181.734 86.8354L179.133 88.0894L181.395 93.1401C181.496 93.3589 181.59 93.6284 181.676 93.9487C181.77 94.269 181.816 94.5269 181.816 94.7222ZM186.867 96.48V99.6323H187.805V96.48H186.867ZM191.133 101.203L189.199 103.125L191.133 105.07L193.066 103.125L191.133 101.203ZM187.172 101.203L185.262 103.125L187.172 105.07L189.129 103.125L187.172 101.203ZM188.836 99.6323C190.094 99.6323 191.086 99.4058 191.812 98.9526C192.539 98.4917 193.059 97.855 193.371 97.0425C193.684 96.2222 193.84 95.2651 193.84 94.1714C193.84 93.4995 193.789 92.7964 193.688 92.062C193.594 91.3198 193.449 90.5659 193.254 89.8003L190.418 90.562C190.637 91.4058 190.789 92.1714 190.875 92.8589C190.969 93.5464 191.016 94.105 191.016 94.5347C191.016 95.2769 190.836 95.7886 190.477 96.0698C190.125 96.3433 189.57 96.48 188.812 96.48H187.535V99.6323H188.836ZM202.535 94.7222C202.535 95.1675 202.355 95.5229 201.996 95.7886C201.645 96.0464 201.184 96.2339 200.613 96.3511C200.043 96.4604 199.434 96.5151 198.785 96.5151C198.332 96.5151 197.848 96.4839 197.332 96.4214C196.816 96.3589 196.316 96.2729 195.832 96.1636V99.3042C196.316 99.4214 196.793 99.5034 197.262 99.5503C197.738 99.5972 198.305 99.6206 198.961 99.6206C199.75 99.6206 200.457 99.5542 201.082 99.4214C201.707 99.2808 202.266 99.0737 202.758 98.8003C203.258 98.5269 203.699 98.1948 204.082 97.8042C204.355 98.1714 204.648 98.4917 204.961 98.7651C205.281 99.0386 205.648 99.2534 206.062 99.4097C206.484 99.5581 206.992 99.6323 207.586 99.6323H208.066V96.48H207.586C207.219 96.48 206.914 96.355 206.672 96.105C206.43 95.855 206.207 95.5034 206.004 95.0503C205.801 94.5972 205.57 94.0698 205.312 93.4683L202.453 86.8354L199.852 88.0894L202.113 93.1401C202.215 93.3589 202.309 93.6284 202.395 93.9487C202.488 94.269 202.535 94.5269 202.535 94.7222ZM208.125 99.6323C208.719 99.6323 209.211 99.562 209.602 99.4214C209.992 99.2808 210.336 99.0933 210.633 98.8589C210.93 98.6167 211.223 98.3433 211.512 98.0386C211.973 98.4058 212.43 98.73 212.883 99.0112C213.344 99.2925 213.816 99.5112 214.301 99.6675C214.785 99.8237 215.297 99.9019 215.836 99.9019C216.523 99.9019 217.105 99.7847 217.582 99.5503C218.066 99.3081 218.5 98.937 218.883 98.437C219.172 98.7808 219.559 99.0659 220.043 99.2925C220.527 99.519 221.02 99.6323 221.52 99.6323H221.836V96.48H221.531C221.281 96.48 221.039 96.4136 220.805 96.2808C220.578 96.1479 220.379 95.9253 220.207 95.6128C220.035 95.3003 219.902 94.8862 219.809 94.3706C219.676 93.605 219.406 92.9136 219 92.2964C218.602 91.6714 218.082 91.1792 217.441 90.8198C216.809 90.4526 216.055 90.269 215.18 90.269C214.469 90.269 213.855 90.4175 213.34 90.7144C212.824 91.0112 212.375 91.3979 211.992 91.8745C211.609 92.3511 211.262 92.855 210.949 93.3862C210.645 93.9097 210.348 94.4097 210.059 94.8862C209.77 95.355 209.469 95.7378 209.156 96.0347C208.844 96.3315 208.48 96.48 208.066 96.48H207.645L207.633 99.6323H208.125ZM215.273 93.269C215.844 93.269 216.293 93.4683 216.621 93.8667C216.949 94.2573 217.113 94.73 217.113 95.2847C217.113 95.7065 217.012 96.0659 216.809 96.3628C216.613 96.6597 216.293 96.8081 215.848 96.8081C215.668 96.8081 215.461 96.7769 215.227 96.7144C215 96.6519 214.75 96.5464 214.477 96.3979C214.273 96.2886 214.059 96.1479 213.832 95.9761C213.605 95.8042 213.371 95.605 213.129 95.3784C213.27 95.0737 213.441 94.7612 213.645 94.4409C213.855 94.1128 214.094 93.8354 214.359 93.6089C214.633 93.3823 214.938 93.269 215.273 93.269ZM221.367 96.48V99.6323H222.199V96.48H221.367ZM226.559 84.5269L224.625 86.4487L226.559 88.394L228.492 86.4487L226.559 84.5269ZM222.598 84.5269L220.688 86.4487L222.598 88.394L224.555 86.4487L222.598 84.5269ZM223.195 99.6323C224.453 99.6323 225.445 99.4058 226.172 98.9526C226.898 98.4917 227.418 97.855 227.73 97.0425C228.043 96.2222 228.199 95.2651 228.199 94.1714C228.199 93.4995 228.148 92.7964 228.047 92.062C227.953 91.3198 227.809 90.5659 227.613 89.8003L224.777 90.562C224.996 91.4058 225.148 92.1714 225.234 92.8589C225.328 93.5464 225.375 94.105 225.375 94.5347C225.375 95.2769 225.195 95.7886 224.836 96.0698C224.484 96.3433 223.93 96.48 223.172 96.48H221.895V99.6323H223.195ZM235.805 106.007C237.281 105.71 238.555 105.195 239.625 104.46C240.695 103.726 241.52 102.773 242.098 101.601C242.676 100.437 242.965 99.0659 242.965 97.4878C242.965 96.6206 242.887 95.7144 242.73 94.769C242.574 93.8237 242.344 92.9292 242.039 92.0854L239.121 93.0464C239.379 93.8042 239.609 94.6128 239.812 95.4722C240.023 96.3315 240.129 97.1128 240.129 97.8159C240.129 98.855 239.918 99.7222 239.496 100.417C239.074 101.113 238.457 101.671 237.645 102.093C236.84 102.523 235.859 102.867 234.703 103.125L235.805 106.007ZM254.086 97.1479C254.086 96.2651 253.992 95.4019 253.805 94.5581C253.625 93.7065 253.344 92.937 252.961 92.2495C252.578 91.5542 252.082 91.0034 251.473 90.5972C250.871 90.1909 250.145 89.9878 249.293 89.9878C248.574 89.9878 247.941 90.1597 247.395 90.5034C246.848 90.8394 246.395 91.2847 246.035 91.8394C245.676 92.3862 245.402 92.9878 245.215 93.644C245.027 94.2925 244.934 94.9292 244.934 95.5542C244.934 96.9995 245.348 98.0464 246.176 98.6948C247.012 99.3354 248.16 99.6558 249.621 99.6558C249.816 99.6558 250.035 99.6401 250.277 99.6089C250.527 99.5698 250.762 99.5269 250.98 99.48C250.801 100.066 250.438 100.593 249.891 101.062C249.352 101.539 248.656 101.945 247.805 102.281C246.961 102.625 245.992 102.902 244.898 103.113L245.965 105.996C247.645 105.675 249.09 105.156 250.301 104.437C251.52 103.726 252.453 102.773 253.102 101.578C253.758 100.39 254.086 98.9136 254.086 97.1479ZM249.598 96.5269C249.035 96.5269 248.578 96.4565 248.227 96.3159C247.883 96.1753 247.711 95.8823 247.711 95.437C247.711 95.1636 247.754 94.8433 247.84 94.4761C247.934 94.1011 248.094 93.7729 248.32 93.4917C248.555 93.2026 248.871 93.0581 249.27 93.0581C249.613 93.0581 249.902 93.1597 250.137 93.3628C250.371 93.5581 250.566 93.8198 250.723 94.1479C250.879 94.4683 251.004 94.8198 251.098 95.2026C251.191 95.5854 251.254 95.9565 251.285 96.3159C251.074 96.3706 250.82 96.4214 250.523 96.4683C250.234 96.5073 249.926 96.5269 249.598 96.5269ZM259.324 81.5269L257.812 80.8354C257.547 80.7104 257.301 80.6167 257.074 80.5542C256.848 80.4839 256.629 80.4487 256.418 80.4487C256.043 80.4487 255.66 80.5776 255.27 80.8354C254.887 81.0933 254.449 81.4761 253.957 81.9839L253.195 82.7808L254.52 83.9761L255.27 83.2261C255.574 82.9214 255.824 82.6909 256.02 82.5347C256.223 82.3784 256.426 82.3003 256.629 82.3003C256.715 82.3003 256.801 82.312 256.887 82.3354C256.973 82.3589 257.066 82.394 257.168 82.4409L258.68 83.1206C259.102 83.3159 259.473 83.4136 259.793 83.4136C260.145 83.4136 260.48 83.312 260.801 83.1089C261.129 82.9058 261.488 82.6167 261.879 82.2417L262.629 81.5386L261.316 80.3315L260.637 80.9526C260.426 81.1479 260.242 81.3042 260.086 81.4214C259.938 81.5308 259.777 81.5854 259.605 81.5854C259.52 81.5854 259.426 81.5659 259.324 81.5269ZM259.688 84.8081H256.711V99.6206H259.688V84.8081ZM265.359 96.5269C264.945 96.5269 264.457 96.4956 263.895 96.4331C263.34 96.3628 262.809 96.2769 262.301 96.1753V99.3159C262.801 99.4253 263.312 99.5034 263.836 99.5503C264.367 99.5894 264.934 99.6089 265.535 99.6089C266.926 99.6089 268.121 99.437 269.121 99.0933C270.129 98.7495 270.902 98.2065 271.441 97.4644C271.988 96.7222 272.262 95.7534 272.262 94.5581C272.262 93.7065 272.086 92.9214 271.734 92.2026C271.383 91.4761 270.902 90.8081 270.293 90.1987C269.684 89.5894 268.988 89.0308 268.207 88.5229C267.426 88.0151 266.602 87.5464 265.734 87.1167L264.387 89.9292C265.348 90.3979 266.211 90.9097 266.977 91.4644C267.742 92.0112 268.348 92.5581 268.793 93.105C269.238 93.6519 269.461 94.1714 269.461 94.6636C269.461 95.1479 269.27 95.5269 268.887 95.8003C268.504 96.0659 268 96.2534 267.375 96.3628C266.75 96.4722 266.078 96.5269 265.359 96.5269ZM274.898 83.144V94.2886C274.898 96.0854 275.293 97.4253 276.082 98.3081C276.879 99.1909 278.125 99.6323 279.82 99.6323H280.102V96.48H279.82C279.047 96.48 278.527 96.3003 278.262 95.9409C277.996 95.5737 277.863 94.9487 277.863 94.0659V83.144H274.898ZM279.633 96.48V99.6323H280.57V96.48H279.633ZM283.898 101.203L281.965 103.125L283.898 105.07L285.832 103.125L283.898 101.203ZM279.938 101.203L278.027 103.125L279.938 105.07L281.895 103.125L279.938 101.203ZM281.602 99.6323C282.859 99.6323 283.852 99.4058 284.578 98.9526C285.305 98.4917 285.824 97.855 286.137 97.0425C286.449 96.2222 286.605 95.2651 286.605 94.1714C286.605 93.4995 286.555 92.7964 286.453 92.062C286.359 91.3198 286.215 90.5659 286.02 89.8003L283.184 90.562C283.402 91.4058 283.555 92.1714 283.641 92.8589C283.734 93.5464 283.781 94.105 283.781 94.5347C283.781 95.2769 283.602 95.7886 283.242 96.0698C282.891 96.3433 282.336 96.48 281.578 96.48H280.301V99.6323H281.602Z" fill="black"/>
<circle cx="269.518" cy="40.3628" r="11.5" fill="white"/>
<circle cx="296.518" cy="40.3628" r="11.5" fill="white"/>
<path d="M273.775 11.8877V8.13329C273.775 5.75553 272.236 1 266.08 1C259.924 1 258.14 5.75553 258.018 8.13329C258.018 12.6385 258.018 23.1508 258.018 29.1577C258.018 35.1647 261.438 38.1682 263.148 38.9191C264.228 39.3815 266.586 40.3064 267.374 40.3064" stroke="black"/>
<path d="M301.35 11.8877V8.13329C301.35 5.75553 299.811 1 293.654 1C287.498 1 285.715 5.75553 285.593 8.13329C285.593 12.6385 285.593 23.1508 285.593 29.1577C285.593 35.1647 289.013 38.1682 290.723 38.9191C291.803 39.3815 294.161 40.3064 294.948 40.3064" stroke="black"/>
<path d="M34.4683 11.8877V8.13329C34.4683 5.75553 32.9292 1 26.7731 1C20.6169 1 18.8336 5.75553 18.7114 8.13329C18.7114 12.6385 18.7114 23.1508 18.7114 29.1577C18.7114 35.1647 22.1315 38.1682 23.8416 38.9191C24.9218 39.3815 27.2792 40.3064 28.067 40.3064" stroke="black"/>
<path d="M62.0425 11.8877V8.13329C62.0425 5.75553 60.5034 1 54.3473 1C48.1911 1 46.4078 5.75553 46.2856 8.13329C46.2856 12.6385 46.2856 23.1508 46.2856 29.1577C46.2856 35.1647 49.7057 38.1682 51.4158 38.9191C52.496 39.3815 54.8534 40.3064 55.6413 40.3064" stroke="black"/>
</svg>
