<svg width="302" height="46" viewBox="0 0 302 46" fill="none" xmlns="http://www.w3.org/2000/svg">
<g filter="url(#filter0_d_34_162)">
<rect x="43" y="2" width="40" height="40" rx="20" transform="rotate(90 43 2)" fill="white"/>
<path d="M19 22.4833C19 22.3688 19.0206 22.2639 19.0618 22.1685C19.1031 22.0731 19.1752 21.9777 19.2783 21.8823L25.4013 16.2155C25.5663 16.0629 25.7879 15.9913 26.0662 16.0008C26.3445 16.0104 26.5662 16.0915 26.7311 16.2441C26.9373 16.4349 27.0249 16.64 26.9939 16.8594C26.963 17.0789 26.8651 17.2744 26.7002 17.4462L21.2575 22.4833L26.7002 27.5205C26.8651 27.6731 26.9579 27.8782 26.9785 28.1358C26.9991 28.3934 26.9063 28.5985 26.7002 28.7511C26.5352 28.9419 26.3188 29.023 26.0508 28.9944C25.7827 28.9658 25.556 28.8752 25.3704 28.7225L19.2783 23.0843C19.1752 22.9889 19.1031 22.8935 19.0618 22.7981C19.0206 22.7027 19 22.5978 19 22.4833Z" fill="#2A2B2F"/>
</g>
<circle cx="141" cy="22" r="8" fill="#3E8DF7"/>
<circle cx="161" cy="22" r="8" fill="#EAEAEA"/>
<g filter="url(#filter1_d_34_162)">
<rect x="259" y="42" width="40" height="40" rx="20" transform="rotate(-90 259 42)" fill="white"/>
<path d="M283 22.5167C283 22.6312 282.979 22.7361 282.938 22.8315C282.897 22.9269 282.825 23.0223 282.722 23.1177L276.599 28.7845C276.434 28.9371 276.212 29.0087 275.934 28.9992C275.655 28.9896 275.434 28.9085 275.269 28.7559C275.063 28.5651 274.975 28.36 275.006 28.1406C275.037 27.9211 275.135 27.7256 275.3 27.5538L280.743 22.5167L275.3 17.4795C275.135 17.3269 275.042 17.1218 275.022 16.8642C275.001 16.6066 275.094 16.4015 275.3 16.2489C275.465 16.0581 275.681 15.977 275.949 16.0056C276.217 16.0342 276.444 16.1248 276.63 16.2775L282.722 21.9157C282.825 22.0111 282.897 22.1065 282.938 22.2019C282.979 22.2973 283 22.4022 283 22.5167Z" fill="#2A2B2F"/>
</g>
<defs>
<filter id="filter0_d_34_162" x="0" y="0" width="46" height="46" filterUnits="userSpaceOnUse" color-interpolation-filters="sRGB">
<feFlood flood-opacity="0" result="BackgroundImageFix"/>
<feColorMatrix in="SourceAlpha" type="matrix" values="0 0 0 0 0 0 0 0 0 0 0 0 0 0 0 0 0 0 127 0" result="hardAlpha"/>
<feOffset dy="1"/>
<feGaussianBlur stdDeviation="1.5"/>
<feComposite in2="hardAlpha" operator="out"/>
<feColorMatrix type="matrix" values="0 0 0 0 0 0 0 0 0 0 0 0 0 0 0 0 0 0 0.16 0"/>
<feBlend mode="normal" in2="BackgroundImageFix" result="effect1_dropShadow_34_162"/>
<feBlend mode="normal" in="SourceGraphic" in2="effect1_dropShadow_34_162" result="shape"/>
</filter>
<filter id="filter1_d_34_162" x="256" y="0" width="46" height="46" filterUnits="userSpaceOnUse" color-interpolation-filters="sRGB">
<feFlood flood-opacity="0" result="BackgroundImageFix"/>
<feColorMatrix in="SourceAlpha" type="matrix" values="0 0 0 0 0 0 0 0 0 0 0 0 0 0 0 0 0 0 127 0" result="hardAlpha"/>
<feOffset dy="1"/>
<feGaussianBlur stdDeviation="1.5"/>
<feComposite in2="hardAlpha" operator="out"/>
<feColorMatrix type="matrix" values="0 0 0 0 0 0 0 0 0 0 0 0 0 0 0 0 0 0 0.16 0"/>
<feBlend mode="normal" in2="BackgroundImageFix" result="effect1_dropShadow_34_162"/>
<feBlend mode="normal" in="SourceGraphic" in2="effect1_dropShadow_34_162" result="shape"/>
</filter>
</defs>
</svg>
