<svg width="171" height="84" viewBox="0 0 171 84" fill="none" xmlns="http://www.w3.org/2000/svg">
<path d="M79.441 45.3091H60.6919V48.0711H79.441V45.3091Z" fill="#F5CD70"/>
<path d="M66.7477 60.2158H61.6206V65.343H66.7477V60.2158Z" fill="#F5CD70"/>
<path d="M77.3947 60.2158H72.2676V65.343H77.3947V60.2158Z" fill="#F5CD70"/>
<path d="M66.9485 69.3574H61.8213V74.4846H66.9485V69.3574Z" fill="#F5CD70"/>
<path d="M77.5954 69.3574H72.4683V74.4846H77.5954V69.3574Z" fill="#F5CD70"/>
<path d="M21.7326 30.1571H14.985C14.9039 30.1583 14.8255 30.1277 14.7667 30.0719C14.7078 30.0161 14.6731 29.9395 14.6699 29.8584V23.9047C14.6725 23.854 14.6872 23.8048 14.7129 23.761C14.7386 23.7173 14.7744 23.6804 14.8174 23.6535C14.8604 23.6266 14.9092 23.6104 14.9597 23.6064C15.0103 23.6025 15.0611 23.6107 15.1077 23.6305L21.8512 26.2453C21.9077 26.2659 21.9567 26.3031 21.9918 26.352C22.0268 26.4009 22.0463 26.4593 22.0476 26.5194V29.8584C22.0444 29.9395 22.0097 30.0161 21.9508 30.0719C21.892 30.1277 21.8137 30.1583 21.7326 30.1571Z" fill="#F5CD70"/>
<path d="M170.551 22.828H164.332C164.115 22.828 163.922 22.7094 163.922 22.562V16.015C163.922 15.8677 164.098 15.749 164.332 15.749H170.551C170.768 15.749 170.96 15.8677 170.96 16.015V22.562C170.96 22.7094 170.764 22.828 170.551 22.828Z" fill="#F5CD70"/>
<path d="M161.025 28.1724H157.67V31.5277H161.025V28.1724Z" fill="#F5CD70"/>
<path d="M166.316 28.1724H162.961V31.5277H166.316V28.1724Z" fill="#F5CD70"/>
<path d="M161.025 33.4551H157.67V36.8104H161.025V33.4551Z" fill="#F5CD70"/>
<path d="M166.316 33.4551H162.961V36.8104H166.316V33.4551Z" fill="#F5CD70"/>
<path d="M161.025 38.5903H157.67V41.9457H161.025V38.5903Z" fill="#F5CD70"/>
<path d="M166.316 38.5903H162.961V41.9457H166.316V38.5903Z" fill="#F5CD70"/>
<path d="M161.025 43.877H157.67V47.2323H161.025V43.877Z" fill="#F5CD70"/>
<path d="M166.316 43.877H162.961V47.2323H166.316V43.877Z" fill="#F5CD70"/>
<path d="M161.025 48.6235H157.67V51.9789H161.025V48.6235Z" fill="#F5CD70"/>
<path d="M166.316 48.6235H162.961V51.9789H166.316V48.6235Z" fill="#F5CD70"/>
<path d="M161.025 53.9062H157.67V57.2616H161.025V53.9062Z" fill="#F5CD70"/>
<path d="M166.316 53.9062H162.961V57.2616H166.316V53.9062Z" fill="#F5CD70"/>
<path d="M133.822 23.9331H135.316L134.023 26.6501H136.49L132.316 32.4402L134.632 27.5381L132.251 27.5954L133.822 23.9331Z" fill="#F5CD70"/>
<path d="M122.451 13.7344C124.386 11.7992 124.386 8.66172 122.451 6.72655C120.516 4.79139 117.379 4.79139 115.443 6.72655C113.508 8.66171 113.508 11.7992 115.443 13.7344C117.379 15.6696 120.516 15.6696 122.451 13.7344Z" fill="#F5CD70"/>
<path d="M6.8136 63.7229C6.8136 63.7229 6.77267 63.506 6.69901 63.5919C6.62127 63.506 6.57629 63.7269 6.57629 63.7269C4.98454 65.5765 -3.78851 76.33 6.62129 78.0977V78.1182H6.70721H6.8136V78.0773C17.0761 75.9781 8.40126 65.5274 6.8136 63.7229Z" fill="#F5CD70"/>
<path d="M19.8588 35.4678H16.5034V38.8231H19.8588V35.4678Z" fill="#F5CD70"/>
<path d="M25.1498 35.4678H21.7944V38.8231H25.1498V35.4678Z" fill="#F5CD70"/>
<path d="M19.8588 40.751H16.5034V44.1063H19.8588V40.751Z" fill="#F5CD70"/>
<path d="M25.1498 40.751H21.7944V44.1063H25.1498V40.751Z" fill="#F5CD70"/>
<path d="M19.8588 45.8862H16.5034V49.2416H19.8588V45.8862Z" fill="#F5CD70"/>
<path d="M25.1498 45.8862H21.7944V49.2416H25.1498V45.8862Z" fill="#F5CD70"/>
<path d="M19.8588 51.1729H16.5034V54.5282H19.8588V51.1729Z" fill="#F5CD70"/>
<path d="M25.1498 51.1729H21.7944V54.5282H25.1498V51.1729Z" fill="#F5CD70"/>
<path d="M19.8588 55.916H16.5034V59.2714H19.8588V55.916Z" fill="#F5CD70"/>
<path d="M25.1498 55.916H21.7944V59.2714H25.1498V55.916Z" fill="#F5CD70"/>
<path d="M19.8588 61.2021H16.5034V64.5575H19.8588V61.2021Z" fill="#F5CD70"/>
<path d="M25.1498 61.2021H21.7944V64.5575H25.1498V61.2021Z" fill="#F5CD70"/>
<path d="M88.8275 68.5962C88.8275 68.5962 88.803 68.457 88.7539 68.5143C88.7048 68.457 88.6802 68.6003 88.6802 68.6003C87.6777 69.7583 82.1741 76.5099 88.7048 77.6024V77.6229H88.7621H88.8275V77.5984C95.26 76.2889 89.826 69.7296 88.8275 68.5962Z" fill="#F5CD70"/>
<path d="M166.406 62.1963H157.547C157.238 62.1963 156.987 62.4473 156.987 62.7569V76.4689C156.987 76.7785 157.238 77.0294 157.547 77.0294H166.406C166.716 77.0294 166.967 76.7785 166.967 76.4689V62.7569C166.967 62.4473 166.716 62.1963 166.406 62.1963Z" fill="#F5CD70"/>
<path d="M107.237 46.0868V54.5898C107.238 54.6806 107.275 54.7674 107.339 54.8317C107.403 54.8959 107.49 54.9325 107.581 54.9335H119.754C119.846 54.9335 119.933 54.8973 119.997 54.8328C120.062 54.7684 120.098 54.681 120.098 54.5898V51.6436C120.098 51.5775 120.079 51.5127 120.044 51.4569C120.008 51.4011 119.958 51.3566 119.898 51.3286L107.724 45.7922C107.673 45.7687 107.617 45.7581 107.561 45.7613C107.505 45.7645 107.451 45.7813 107.403 45.8104C107.355 45.8394 107.314 45.8798 107.286 45.928C107.257 45.9762 107.24 46.0307 107.237 46.0868Z" fill="#F5CD70"/>
<path d="M148.615 69.0876C148.615 69.0876 148.586 68.9403 148.537 68.9976C148.488 68.9403 148.459 69.0917 148.459 69.0917C147.395 70.3193 141.548 77.4924 148.484 78.6709V78.6913H148.545H148.615V78.6668C155.456 77.2592 149.683 70.2906 148.615 69.0876Z" fill="#F5CD70"/>
<path d="M41.6564 24.265L42.978 26.4459C43.2604 26.9124 43.5428 27.383 43.8292 27.8495C44.0265 28.0915 44.1752 28.3694 44.267 28.6679C44.3652 29.6254 42.3888 29.2775 41.8896 29.2694L39.2339 29.2407C39.0898 29.2529 38.9556 29.3187 38.8577 29.4252C38.7599 29.5317 38.7056 29.671 38.7056 29.8156C38.7056 29.9602 38.7599 30.0996 38.8577 30.2061C38.9556 30.3125 39.0898 30.3784 39.2339 30.3905L42.3315 30.4274C43.5386 30.4274 44.7867 30.6033 45.3391 29.2244C45.7483 28.23 44.6803 27.0188 44.2015 26.2332C43.6859 25.3739 43.1663 24.5187 42.6507 23.6635C42.2661 23.0333 41.2717 23.6103 41.6564 24.2445V24.265Z" fill="#F5CD70"/>
<path d="M34.4754 22.6606L35.7889 20.5533L36.64 19.1948C36.8037 18.9288 36.9592 18.5401 37.3152 18.5073C37.6712 18.4746 37.8635 18.847 38.0436 19.1048L38.9192 20.3323L40.4291 22.4683C40.8383 23.0698 41.8449 22.497 41.4194 21.8873L39.7417 19.4853C39.1238 18.6055 38.555 17.3657 37.3356 17.3412C36.1817 17.3166 35.6293 18.6628 35.1137 19.4853L33.5015 22.0632C33.0923 22.6934 34.103 23.2908 34.4959 22.6443L34.4754 22.6606Z" fill="#F5CD70"/>
<path d="M32.2857 23.6956L30.7349 26.2613C30.1988 27.1451 29.3068 28.1558 29.5973 29.2524C29.9697 30.6601 31.5041 30.48 32.609 30.4555L35.7024 30.4186C35.8465 30.4065 35.9808 30.3406 36.0787 30.2342C36.1765 30.1277 36.2308 29.9883 36.2308 29.8437C36.2308 29.6991 36.1765 29.5598 36.0787 29.4533C35.9808 29.3468 35.8465 29.281 35.7024 29.2688L33.0509 29.3016H31.541C31.1031 29.3016 30.6817 29.2361 30.6694 28.6796C30.6694 28.4423 30.9517 28.1026 31.0786 27.9103C31.3773 27.4193 31.676 26.9282 31.9706 26.4372C32.4125 25.713 32.8504 24.9846 33.2923 24.2562C33.677 23.622 32.6826 23.0287 32.298 23.6793L32.2857 23.6956Z" fill="#F5CD70"/>
<path d="M35.6697 28.5817H30.2397C29.5523 28.5817 29.54 27.837 29.8305 27.4114L30.6489 26.2616L32.0443 24.3097C32.0975 24.588 32.1548 24.8622 32.208 25.1281C32.2816 25.4923 32.834 25.3368 32.7645 24.9767C32.6662 24.498 32.5721 24.0192 32.478 23.5405C32.4561 23.4675 32.4068 23.4059 32.3404 23.3685C32.2741 23.3311 32.1957 23.3209 32.122 23.34L30.5262 23.7492C30.4541 23.7703 30.3932 23.8188 30.3566 23.8844C30.32 23.95 30.3106 24.0273 30.3304 24.0997C30.3503 24.1722 30.3978 24.2339 30.4628 24.2717C30.5277 24.3094 30.6048 24.3201 30.6776 24.3016L31.496 24.1011L29.9124 26.3189L29.2577 27.2355C29.1561 27.3861 29.0884 27.5569 29.0593 27.7362C29.0301 27.9156 29.0402 28.0991 29.0888 28.2741C29.1374 28.4491 29.2234 28.6115 29.3409 28.7501C29.4583 28.8887 29.6044 29.0002 29.7692 29.0768C30.1025 29.1731 30.4516 29.2023 30.7962 29.1627H35.6574C35.7345 29.1644 35.809 29.1353 35.8647 29.082C35.9203 29.0287 35.9524 28.9554 35.9541 28.8784C35.9557 28.8013 35.9267 28.7268 35.8733 28.6711C35.82 28.6155 35.7467 28.5833 35.6697 28.5817Z" fill="#5DA0FB"/>
<path d="M38.2601 20.3404C38.6693 20.9133 39.1153 21.4902 39.5408 22.0631L38.6488 21.9281C38.2846 21.8708 38.1292 22.4232 38.4933 22.4805L40.0401 22.7178C40.1133 22.7379 40.1915 22.728 40.2575 22.6904C40.3235 22.6528 40.3719 22.5905 40.392 22.5173C40.4738 22.0467 40.5597 21.5721 40.6416 21.0974C40.7071 20.7373 40.1506 20.5818 40.0892 20.946C40.0442 21.1874 40.0032 21.4288 39.9623 21.6703L38.5547 19.7798C38.0105 19.0474 37.4499 17.9016 36.4024 17.9262C35.4653 17.9466 34.8761 19.2397 34.4219 19.9067L32.8179 22.2554C32.6092 22.5623 33.1043 22.8487 33.313 22.5418L34.6019 20.6555L35.4694 19.387C35.6357 19.067 35.8704 18.7876 36.1569 18.5686C36.9712 18.0858 37.9 19.8575 38.2601 20.3404Z" fill="#5DA0FB"/>
<path d="M43.1786 26.1513L41.1982 23.4629C40.9813 23.1642 40.4821 23.4629 40.7031 23.7493C41.2555 24.5063 41.812 25.2593 42.3644 26.0122L43.2687 27.2397C43.551 27.6203 43.8334 28.5614 43.0518 28.5614H38.076L38.6694 27.9722C38.7158 27.9165 38.7398 27.8454 38.7365 27.773C38.7332 27.7006 38.703 27.632 38.6517 27.5807C38.6004 27.5294 38.5318 27.4992 38.4594 27.4959C38.3869 27.4926 38.3159 27.5166 38.2602 27.563L37.1554 28.6678C37.1024 28.7227 37.0728 28.7961 37.0728 28.8724C37.0728 28.9487 37.1024 29.0221 37.1554 29.077L38.1538 30.1204C38.4075 30.3905 38.8126 29.9813 38.563 29.7112C38.3788 29.5189 38.1988 29.3266 38.0147 29.1384H42.5158C42.9074 29.1915 43.306 29.123 43.6574 28.942C44.8359 28.1972 43.7024 26.9042 43.1786 26.1513Z" fill="#5DA0FB"/>
<path d="M135.361 23.188C135.295 23.1634 135.23 23.1471 135.16 23.1266L135.189 23.0161L135.397 23.0775L135.361 23.188Z" fill="#5DA0FB"/>
<path d="M135.439 32.6612L135.402 32.5507C135.541 32.5103 135.678 32.4611 135.811 32.4034L135.856 32.5098C135.705 32.5671 135.57 32.6162 135.439 32.6612ZM136.216 32.3298L136.163 32.2275C136.282 32.1661 136.404 32.0924 136.519 32.0188L136.58 32.117C136.462 32.1947 136.339 32.2643 136.216 32.3298ZM136.924 31.8756L136.855 31.7855C136.965 31.6996 137.071 31.6096 137.174 31.5196L137.251 31.6055C137.145 31.6996 137.039 31.7896 136.924 31.8797V31.8756ZM137.55 31.3068L137.464 31.2291C137.558 31.1308 137.648 31.0245 137.734 30.9181L137.824 30.9876C137.738 31.0981 137.644 31.2045 137.55 31.3068ZM138.074 30.6439L137.976 30.5825C138.053 30.4677 138.124 30.3489 138.188 30.2265L138.291 30.2838C138.225 30.4066 138.152 30.5293 138.074 30.6521V30.6439ZM138.483 29.9033L138.381 29.8583C138.434 29.7314 138.487 29.6046 138.528 29.4736L138.639 29.5104C138.591 29.6441 138.536 29.7752 138.475 29.9033H138.483ZM138.757 29.0849L138.647 29.0562C138.679 28.9253 138.708 28.7903 138.729 28.6471H138.843C138.822 28.8017 138.791 28.9548 138.749 29.1054L138.757 29.0849ZM138.896 28.2665H138.782C138.782 28.1356 138.782 28.0046 138.782 27.8573V27.8328H138.896C138.9 28.0087 138.896 28.1438 138.888 28.2747L138.896 28.2665ZM138.778 27.4481C138.778 27.3131 138.745 27.174 138.724 27.0389L138.835 27.0185C138.86 27.1576 138.88 27.2967 138.892 27.4277L138.778 27.4481ZM138.634 26.6297C138.602 26.4947 138.561 26.3638 138.516 26.2206L138.622 26.1837C138.672 26.3173 138.713 26.454 138.745 26.5929L138.634 26.6297ZM138.36 25.8523C138.303 25.7241 138.242 25.6013 138.176 25.484L138.274 25.4267C138.344 25.5495 138.405 25.6763 138.467 25.8032L138.36 25.8523ZM137.951 25.1321C137.875 25.0175 137.793 24.9071 137.706 24.8007L137.796 24.727C137.886 24.8375 137.968 24.9521 138.045 25.0666L137.951 25.1321ZM137.436 24.4897C137.341 24.3915 137.239 24.2933 137.137 24.2032L137.215 24.1173C137.32 24.2089 137.421 24.3059 137.517 24.4078L137.436 24.4897ZM136.818 23.9414C136.709 23.8567 136.596 23.7788 136.478 23.7081L136.539 23.6099C136.658 23.6836 136.777 23.7654 136.887 23.8473L136.818 23.9414ZM136.122 23.5035C135.999 23.4381 135.872 23.3808 135.746 23.3276L135.791 23.2212C135.917 23.2744 136.048 23.3358 136.171 23.4012L136.122 23.5035Z" fill="#5DA0FB"/>
<path d="M134.817 32.8205L134.792 32.706L135.001 32.665L135.025 32.7755L134.817 32.8205Z" fill="#5DA0FB"/>
<path d="M132.984 32.8332L132.771 32.7882L132.796 32.6777L133.004 32.7187L132.984 32.8332Z" fill="#5DA0FB"/>
<path d="M132.349 32.6979C132.21 32.6529 132.071 32.6038 131.94 32.5465L131.985 32.4401C132.116 32.4933 132.251 32.5424 132.394 32.5874L132.349 32.6979ZM131.531 32.3623C131.4 32.2941 131.273 32.2205 131.15 32.1414L131.212 32.0432C131.332 32.1218 131.456 32.1942 131.584 32.26L131.531 32.3623ZM130.802 31.8795C130.688 31.7895 130.577 31.6954 130.467 31.5971L130.545 31.5112C130.65 31.6082 130.761 31.6997 130.876 31.7854L130.802 31.8795ZM130.16 31.2862C130.062 31.1798 129.968 31.0652 129.878 30.9506L129.968 30.8811C130.053 30.9956 130.148 31.1061 130.242 31.2084L130.16 31.2862ZM129.632 30.5864C129.553 30.4633 129.481 30.3363 129.415 30.2059L129.517 30.1527C129.582 30.2804 129.653 30.4047 129.73 30.5251L129.632 30.5864ZM129.223 29.809C129.17 29.678 129.116 29.5389 129.076 29.3998L129.182 29.3671C129.227 29.5021 129.276 29.6371 129.329 29.7762L129.223 29.809ZM128.961 28.9906C128.928 28.8474 128.904 28.7042 128.883 28.5569H128.998C129.015 28.6945 129.039 28.8311 129.071 28.9661L128.961 28.9906ZM128.842 28.1231C128.842 28.0454 128.842 27.9676 128.842 27.8899C128.842 27.8121 128.842 27.7508 128.842 27.6853H128.957C128.957 27.7508 128.957 27.8162 128.957 27.8858C128.957 27.9554 128.957 28.0372 128.957 28.1149L128.842 28.1231ZM128.994 27.2638H128.879C128.896 27.1194 128.92 26.9759 128.953 26.8342L129.063 26.8587C129.031 26.9692 129.006 27.1083 128.99 27.2515L128.994 27.2638ZM129.174 26.4454L129.063 26.4086C129.108 26.2695 129.157 26.1345 129.211 25.9994L129.317 26.0403C129.26 26.1508 129.223 26.2818 129.17 26.4168L129.174 26.4454ZM129.497 25.6516L129.395 25.6025C129.461 25.4721 129.533 25.3451 129.612 25.222L129.71 25.2833C129.632 25.3734 129.558 25.5002 129.493 25.623L129.497 25.6516ZM129.955 24.9314L129.861 24.8619C129.951 24.7432 130.045 24.6327 130.144 24.5222L130.225 24.6C130.13 24.6873 130.039 24.795 129.951 24.9233L129.955 24.9314ZM130.528 24.2972L130.45 24.2113C130.557 24.1131 130.667 24.0189 130.782 23.9289L130.856 24.0189C130.737 24.0803 130.63 24.1703 130.524 24.2685L130.528 24.2972ZM131.203 23.7734L131.142 23.6752C131.261 23.5975 131.387 23.5238 131.518 23.4543L131.572 23.5566C131.444 23.613 131.32 23.6758 131.199 23.7448L131.203 23.7734ZM131.956 23.3642L131.911 23.2578C132.046 23.2006 132.185 23.1515 132.32 23.1064L132.353 23.2169C132.217 23.2514 132.083 23.2938 131.952 23.3438L131.956 23.3642Z" fill="#5DA0FB"/>
<path d="M132.775 23.0779L132.746 22.9674L132.959 22.9224V23.0369L132.775 23.0779Z" fill="#5DA0FB"/>
<path d="M133.192 33.6716C131.706 33.4899 130.346 32.748 129.388 31.5975C128.431 30.447 127.949 28.9745 128.04 27.4805C128.208 24.4116 130.925 22.0833 133.928 22.0915C134.004 22.0915 134.077 22.0613 134.131 22.0076C134.185 21.9539 134.215 21.881 134.215 21.805C134.215 21.7291 134.185 21.6562 134.131 21.6025C134.077 21.5488 134.004 21.5186 133.928 21.5186C132.297 21.5127 130.724 22.124 129.525 23.2298C128.326 24.3357 127.589 25.8542 127.463 27.4805C127.189 30.9054 129.861 33.8557 133.192 34.2485C133.556 34.2894 133.552 33.7166 133.192 33.6716Z" fill="#5DA0FB"/>
<path d="M132.832 21.1795L133.729 21.9979V21.5887L132.763 22.3334C132.468 22.5626 132.882 22.9636 133.172 22.7426L134.138 21.9938C134.192 21.9394 134.222 21.8659 134.222 21.7892C134.222 21.7126 134.192 21.639 134.138 21.5846L133.242 20.7662C132.972 20.5166 132.566 20.9217 132.832 21.1754V21.1795Z" fill="#5DA0FB"/>
<path d="M134.498 22.1125C135.973 22.2827 137.33 23.0045 138.295 24.133C139.26 25.2615 139.763 26.7134 139.703 28.1972C139.584 31.2702 136.912 33.6476 133.905 33.6885C133.829 33.6885 133.756 33.7187 133.702 33.7724C133.648 33.8261 133.618 33.899 133.618 33.975C133.618 34.0509 133.648 34.1238 133.702 34.1775C133.756 34.2312 133.829 34.2614 133.905 34.2614C135.508 34.2443 137.047 33.6317 138.224 32.5427C139.401 31.4537 140.131 29.9661 140.272 28.3691C140.587 24.9073 137.874 21.9079 134.502 21.5397C134.134 21.4988 134.138 22.0757 134.502 22.1125H134.498Z" fill="#5DA0FB"/>
<path d="M134.804 34.5723L133.908 33.7539V34.1631L134.866 33.4102C135.156 33.181 134.747 32.7759 134.456 33.001L133.495 33.758C133.441 33.8124 133.411 33.8859 133.411 33.9626C133.411 34.0392 133.441 34.1127 133.495 34.1672L134.395 34.9855C134.669 35.2351 135.074 34.83 134.804 34.5763V34.5723Z" fill="#5DA0FB"/>
<path d="M133.315 23.8224H134.841C134.759 23.6751 134.673 23.5319 134.592 23.3887C134.154 24.3134 133.712 25.2382 133.274 26.1671C133.254 26.2097 133.244 26.2567 133.247 26.3039C133.249 26.3511 133.263 26.397 133.287 26.4375C133.311 26.478 133.345 26.5119 133.386 26.5361C133.426 26.5603 133.472 26.5741 133.519 26.5763H136.04L135.795 26.1671C134.371 28.1339 132.949 30.1049 131.531 32.0799L132.026 32.3704L134.379 27.3783C134.404 27.3343 134.417 27.2846 134.417 27.2341C134.416 27.1836 134.403 27.1339 134.378 27.0901C134.353 27.0463 134.316 27.0099 134.273 26.9843C134.229 26.9588 134.18 26.9451 134.129 26.9445L131.699 27.0059C131.785 27.1491 131.866 27.2924 131.948 27.4151C132.494 26.1712 133.028 24.9245 133.552 23.6751C133.695 23.3396 133.2 23.045 133.057 23.3846C132.512 24.6313 131.977 25.8793 131.453 27.1287C131.433 27.1713 131.423 27.2183 131.426 27.2655C131.428 27.3127 131.442 27.3586 131.466 27.3991C131.49 27.4396 131.524 27.4735 131.565 27.4977C131.605 27.5219 131.651 27.5357 131.699 27.5379L134.129 27.4806L133.884 27.0468C133.093 28.7163 132.304 30.3858 131.519 32.0553C131.48 32.121 131.469 32.1993 131.488 32.2729C131.507 32.3466 131.555 32.4096 131.621 32.4482C131.686 32.4867 131.765 32.4975 131.838 32.4784C131.912 32.4592 131.975 32.4115 132.014 32.3459L136.277 26.429C136.298 26.386 136.307 26.3386 136.305 26.2911C136.302 26.2436 136.288 26.1975 136.263 26.1569C136.238 26.1163 136.204 26.0825 136.163 26.0586C136.122 26.0346 136.075 26.0213 136.028 26.0198H133.507C133.593 26.163 133.675 26.3062 133.757 26.429L135.074 23.6956C135.099 23.6519 135.112 23.6026 135.112 23.5524C135.112 23.5022 135.099 23.4528 135.075 23.4091C135.05 23.3655 135.014 23.3289 134.971 23.3031C134.928 23.2773 134.879 23.2631 134.829 23.2618H133.315C133.253 23.2786 133.199 23.3151 133.16 23.3658C133.122 23.4164 133.101 23.4784 133.101 23.5421C133.101 23.6059 133.122 23.6678 133.16 23.7185C133.199 23.7691 133.253 23.8057 133.315 23.8224Z" fill="#5DA0FB"/>
<path d="M122.602 9.3333C122.588 10.6179 122.072 11.8459 121.163 12.7539C120.254 13.6619 119.026 14.1776 117.741 14.1904C115.065 14.2313 112.925 11.948 112.884 9.3333C112.921 8.06899 113.449 6.86876 114.356 5.98745C115.263 5.10613 116.478 4.61314 117.743 4.61314C119.008 4.61314 120.223 5.10613 121.13 5.98745C122.038 6.86876 122.566 8.06899 122.602 9.3333C122.602 9.40927 122.633 9.48212 122.686 9.53584C122.74 9.58956 122.813 9.61973 122.889 9.61973C122.965 9.61973 123.038 9.58956 123.091 9.53584C123.145 9.48212 123.175 9.40927 123.175 9.3333C123.175 8.11438 122.765 6.9309 122.011 5.97307C121.257 5.01525 120.203 4.3387 119.019 4.05217C117.834 3.76564 116.587 3.88577 115.479 4.39325C114.371 4.90072 113.465 5.76607 112.908 6.85022C112.351 7.93437 112.174 9.17435 112.407 10.3709C112.64 11.5674 113.268 12.651 114.19 13.4475C115.113 14.2439 116.277 14.7071 117.495 14.7624C118.712 14.8177 119.913 14.4621 120.904 13.7526C121.602 13.2452 122.171 12.5809 122.566 11.8133C122.96 11.0458 123.169 10.1963 123.175 9.3333C123.175 9.25734 123.145 9.18448 123.091 9.13076C123.038 9.07705 122.965 9.04687 122.889 9.04687C122.813 9.04687 122.74 9.07705 122.686 9.13076C122.633 9.18448 122.602 9.25734 122.602 9.3333Z" fill="#5DA0FB"/>
<path d="M110.556 3.9483L112.888 5.8224C113.175 6.05154 113.584 5.65054 113.297 5.41321L110.965 3.53911C110.679 3.30997 110.269 3.71506 110.556 3.9483Z" fill="#5DA0FB"/>
<path d="M115.458 3.76435L114.111 1.12098C113.944 0.789534 113.448 1.08006 113.616 1.40741L114.962 4.05487C115.13 4.38632 115.625 4.09579 115.458 3.76435Z" fill="#5DA0FB"/>
<path d="M109.107 11.584L112.066 10.9088C112.426 10.827 112.27 10.2746 111.91 10.3564L108.956 11.0316C108.592 11.1134 108.747 11.6658 109.107 11.584Z" fill="#5DA0FB"/>
<path d="M112.037 7.73742L109.091 7.06635C108.731 6.98451 108.575 7.53692 108.94 7.61876L111.882 8.28983C112.242 8.37576 112.397 7.81926 112.037 7.73742Z" fill="#5DA0FB"/>
<path d="M117.458 0.371882V3.48582C117.458 3.56179 117.489 3.63464 117.542 3.68836C117.596 3.74208 117.669 3.77225 117.745 3.77225C117.821 3.77225 117.894 3.74208 117.947 3.68836C118.001 3.63464 118.031 3.56179 118.031 3.48582V0.371882C118.031 0.295916 118.001 0.22306 117.947 0.169343C117.894 0.115627 117.821 0.0854492 117.745 0.0854492C117.669 0.0854492 117.596 0.115627 117.542 0.169343C117.489 0.22306 117.458 0.295916 117.458 0.371882Z" fill="#5DA0FB"/>
<path d="M120.598 4.05458L121.874 1.40712C122.034 1.07568 121.539 0.785153 121.375 1.12069C120.966 2.00045 120.528 2.8843 120.103 3.76406C119.943 4.0955 120.438 4.39012 120.598 4.05458Z" fill="#5DA0FB"/>
<path d="M110.961 15.103L113.293 13.2412C113.584 13.0121 113.175 12.607 112.884 12.832L110.552 14.6938C110.261 14.923 110.67 15.3281 110.961 15.103Z" fill="#5DA0FB"/>
<path d="M126.534 11.0316L123.58 10.3564C123.216 10.2746 123.064 10.827 123.424 10.9088L126.383 11.584C126.743 11.6658 126.894 11.1134 126.534 11.0316Z" fill="#5DA0FB"/>
<path d="M122.07 13.1344L124.526 15.0944C124.812 15.3236 125.221 14.9185 124.935 14.6852L122.48 12.7211C122.193 12.4961 121.784 12.8971 122.07 13.1303V13.1344Z" fill="#5DA0FB"/>
<path d="M123.58 8.28171L126.534 7.60655C126.894 7.52471 126.743 6.97231 126.383 7.05414L123.424 7.73749C123.064 7.81933 123.216 8.37174 123.58 8.2899V8.28171Z" fill="#5DA0FB"/>
<path d="M124.53 3.54296L122.181 5.41705C121.891 5.65029 122.3 6.0513 122.59 5.82624L124.939 3.95215C125.23 3.723 124.82 3.3179 124.53 3.54296Z" fill="#5DA0FB"/>
<path d="M121.858 17.2311L120.512 14.4363C120.352 14.1048 119.857 14.3954 120.017 14.7268C120.463 15.6598 120.913 16.5886 121.359 17.5216C121.522 17.853 122.018 17.5625 121.858 17.2311Z" fill="#5DA0FB"/>
<path d="M117.458 15.1766V18.2578C117.458 18.3337 117.489 18.4066 117.542 18.4603C117.596 18.514 117.669 18.5442 117.745 18.5442C117.821 18.5442 117.894 18.514 117.947 18.4603C118.001 18.4066 118.031 18.3337 118.031 18.2578V15.1766C118.031 15.1006 118.001 15.0277 117.947 14.974C117.894 14.9203 117.821 14.8901 117.745 14.8901C117.669 14.8901 117.596 14.9203 117.542 14.974C117.489 15.0277 117.458 15.1006 117.458 15.1766Z" fill="#5DA0FB"/>
<path d="M114.112 17.5213C114.562 16.6347 115.011 15.7468 115.458 14.8575C115.626 14.5301 115.131 14.2396 114.963 14.567L113.617 17.2308C113.453 17.5581 113.948 17.8487 114.112 17.5213Z" fill="#5DA0FB"/>
<path d="M14.4208 83.9985H40.4904C40.6043 83.9985 40.7136 83.9532 40.7942 83.8726C40.8748 83.792 40.92 83.6828 40.92 83.5688C40.92 83.4549 40.8748 83.3456 40.7942 83.265C40.7136 83.1844 40.6043 83.1392 40.4904 83.1392H14.4208C14.3069 83.1392 14.1976 83.1844 14.117 83.265C14.0365 83.3456 13.9912 83.4549 13.9912 83.5688C13.9912 83.6828 14.0365 83.792 14.117 83.8726C14.1976 83.9532 14.3069 83.9985 14.4208 83.9985Z" fill="#5DA0FB"/>
<path d="M47.6509 83.9985H134.866C134.98 83.9985 135.089 83.9532 135.17 83.8726C135.25 83.792 135.295 83.6828 135.295 83.5688C135.295 83.4549 135.25 83.3456 135.17 83.265C135.089 83.1844 134.98 83.1392 134.866 83.1392H47.6509C47.5369 83.1392 47.4276 83.1844 47.3471 83.265C47.2665 83.3456 47.2212 83.4549 47.2212 83.5688C47.2212 83.6828 47.2665 83.792 47.3471 83.8726C47.4276 83.9532 47.5369 83.9985 47.6509 83.9985Z" fill="#5DA0FB"/>
<path d="M141.151 83.9985H145.53C145.644 83.9985 145.753 83.9532 145.833 83.8726C145.914 83.792 145.959 83.6828 145.959 83.5688C145.959 83.4549 145.914 83.3456 145.833 83.265C145.753 83.1844 145.644 83.1392 145.53 83.1392H141.151C141.037 83.1392 140.928 83.1844 140.848 83.265C140.767 83.3456 140.722 83.4549 140.722 83.5688C140.722 83.6828 140.767 83.792 140.848 83.8726C140.928 83.9532 141.037 83.9985 141.151 83.9985Z" fill="#5DA0FB"/>
<path d="M150.435 83.9985H159.72C159.834 83.9985 159.943 83.9532 160.024 83.8726C160.104 83.792 160.15 83.6828 160.15 83.5688C160.15 83.4549 160.104 83.3456 160.024 83.265C159.943 83.1844 159.834 83.1392 159.72 83.1392H150.435C150.322 83.1392 150.212 83.1844 150.132 83.265C150.051 83.3456 150.006 83.4549 150.006 83.5688C150.006 83.6828 150.051 83.792 150.132 83.8726C150.212 83.9532 150.322 83.9985 150.435 83.9985Z" fill="#5DA0FB"/>
<path d="M9.92768 69.7744C9.07298 67.5002 7.78164 65.415 6.12633 63.6366C5.87673 63.3624 5.47163 63.7716 5.71714 64.0458C6.53067 64.9368 7.25814 65.9027 7.88992 66.9306L5.54936 69.2711V63.8412C5.54936 63.7652 5.51916 63.6924 5.46544 63.6386C5.41173 63.5849 5.33891 63.5548 5.26295 63.5548C5.18698 63.5548 5.11412 63.5849 5.0604 63.6386C5.00668 63.6924 4.97648 63.7652 4.97648 63.8412V69.2793L2.64002 66.9469L2.61545 66.9224C3.25118 65.9025 3.97994 64.9436 4.79237 64.0581C5.04197 63.788 4.63687 63.3788 4.38318 63.6489C2.76048 65.4073 1.48459 67.4564 0.622691 69.6885C0.0252728 71.2598 -0.244779 73.0275 0.278985 74.6561C0.91323 76.6284 2.68092 77.8519 4.51 78.6171C4.85372 78.7562 5.00103 78.2079 4.6614 78.0606C2.8937 77.324 1.27742 76.1251 0.745468 74.206C0.52471 73.3437 0.503707 72.4424 0.684079 71.5708L4.97239 75.855V78.3102C4.97239 78.3861 5.00259 78.459 5.0563 78.5127C5.11002 78.5664 5.18288 78.5966 5.25885 78.5966C5.33482 78.5966 5.40763 78.5664 5.46135 78.5127C5.51506 78.459 5.54526 78.3861 5.54526 78.3102V75.855L9.82128 71.5708C9.98568 72.4095 9.97596 73.273 9.79266 74.1078C9.33028 76.076 7.62395 77.324 5.84806 78.0606C5.51252 78.2038 5.65983 78.7562 5.99946 78.6171C7.83263 77.8519 9.48986 76.6734 10.1978 74.7543C10.7911 73.1421 10.4842 71.3376 9.92768 69.7744ZM0.860053 70.9325L0.82319 70.8997C0.947451 70.4342 1.09911 69.9765 1.27739 69.5289C1.56788 68.8064 1.90838 68.105 2.29632 67.4298L4.9601 70.0936V75.0285L0.860053 70.9325ZM9.64126 70.9325L5.54936 75.0244V70.0977L8.21319 67.438C8.58204 68.0795 8.91005 68.7438 9.19526 69.4266C9.39519 69.9057 9.56197 70.3978 9.69446 70.8997C9.67435 70.9062 9.65609 70.9174 9.64126 70.9325Z" fill="#5DA0FB"/>
<path d="M4.91504 79.1736C4.94777 80.5607 4.97641 81.9479 5.00914 83.3351C5.00914 83.411 5.03934 83.4839 5.09306 83.5376C5.14678 83.5913 5.21964 83.6215 5.29561 83.6215C5.37157 83.6215 5.44444 83.5913 5.49816 83.5376C5.55187 83.4839 5.58202 83.411 5.58202 83.3351C5.55338 81.9479 5.52065 80.5607 5.49201 79.1736C5.48359 79.103 5.44957 79.0379 5.39641 78.9907C5.34324 78.9435 5.27464 78.9175 5.20355 78.9175C5.13246 78.9175 5.06381 78.9435 5.01064 78.9907C4.95748 79.0379 4.92346 79.103 4.91504 79.1736Z" fill="#5DA0FB"/>
<path d="M81.3476 27.2964H56.252C56.1416 27.3036 56.038 27.3524 55.9621 27.4328C55.8862 27.5133 55.8436 27.6195 55.8428 27.7301V78.7684C55.8436 78.8791 55.8862 78.9853 55.9621 79.0657C56.038 79.1462 56.1416 79.195 56.252 79.2022H81.3476C81.4021 79.203 81.4563 79.193 81.5069 79.1726C81.5575 79.1522 81.6035 79.1219 81.6422 79.0835C81.6806 79.0448 81.7109 78.9988 81.7313 78.9482C81.7517 78.8976 81.7617 78.8434 81.7609 78.7889V27.7301C81.76 27.6188 81.7168 27.5121 81.6401 27.4315C81.5633 27.3509 81.4587 27.3026 81.3476 27.2964ZM64.7345 78.3388H56.6816V28.1598H80.9384V78.3388H64.7345Z" fill="#5DA0FB"/>
<path d="M54.5089 54.0864H29.4132C29.2985 54.0875 29.1888 54.1335 29.1077 54.2146C29.0266 54.2958 28.9806 54.4055 28.9795 54.5202V78.9366C28.9806 79.0509 29.0267 79.1602 29.108 79.2406C29.1892 79.3211 29.2989 79.3662 29.4132 79.3662H54.5089C54.6171 79.3679 54.7215 79.3267 54.7994 79.2516C54.8745 79.1738 54.9157 79.0693 54.914 78.9611V54.5202C54.9133 54.4102 54.8712 54.3045 54.7962 54.2242C54.7211 54.1438 54.6185 54.0946 54.5089 54.0864ZM37.8958 78.4946H29.8429V54.9498H54.0792V78.4946H37.8958Z" fill="#5DA0FB"/>
<path d="M102.683 10.4175H83.0825C82.9721 10.4247 82.8686 10.4735 82.7927 10.5539C82.7168 10.6344 82.6741 10.7406 82.6733 10.8512V78.8218C82.6742 78.932 82.717 79.0378 82.793 79.1176C82.869 79.1974 82.9725 79.2453 83.0825 79.2515H102.683C102.791 79.2532 102.895 79.212 102.973 79.1369C103.048 79.059 103.09 78.9546 103.088 78.8464V10.8512C103.087 10.7413 103.045 10.6356 102.97 10.5552C102.895 10.4749 102.792 10.4257 102.683 10.4175ZM85.4968 78.3922H83.5204V11.285H102.261V78.3922H85.4968Z" fill="#5DA0FB"/>
<path d="M168.505 23.6426H153.917C153.811 23.6485 153.71 23.6935 153.635 23.769C153.559 23.8445 153.514 23.9452 153.508 24.0518V78.7687C153.509 78.8793 153.552 78.9855 153.628 79.066C153.704 79.1465 153.807 79.1952 153.917 79.2024H168.505C168.559 79.2028 168.612 79.1924 168.662 79.1721C168.712 79.1517 168.757 79.1217 168.796 79.0838C168.833 79.0447 168.863 78.9986 168.883 78.948C168.902 78.8974 168.912 78.8434 168.91 78.7892V24.0722C168.909 23.9627 168.867 23.8575 168.792 23.7778C168.717 23.6981 168.614 23.6498 168.505 23.6426ZM154.347 46.5572V24.5142H168.071V78.3391H154.347V46.5654V46.5572Z" fill="#5DA0FB"/>
<path d="M169.058 15.422C169.057 15.3073 169.011 15.1976 168.929 15.1165C168.848 15.0354 168.739 14.9893 168.624 14.9883H162.396C162.286 14.9955 162.182 15.0443 162.106 15.1247C162.03 15.2052 161.988 15.3114 161.987 15.422V22.5297C161.993 22.6363 162.038 22.737 162.113 22.8125C162.189 22.888 162.289 22.933 162.396 22.9389H168.624C168.678 22.9402 168.732 22.9308 168.783 22.9112C168.833 22.8915 168.879 22.862 168.919 22.8243C168.956 22.786 168.986 22.7407 169.007 22.6908C169.027 22.641 169.038 22.5876 169.037 22.5338L169.058 15.422ZM168.194 22.0959H162.826V15.8517H168.194V22.0959Z" fill="#5DA0FB"/>
<path d="M21.1964 25.0913C21.1934 24.9987 21.1614 24.9093 21.1048 24.8359C21.0483 24.7625 20.9701 24.7087 20.8813 24.6821L13.5159 21.6459C13.4525 21.6284 13.3859 21.6256 13.3213 21.6379C13.2566 21.6501 13.1957 21.6771 13.1431 21.7166C13.0905 21.7561 13.0477 21.8072 13.018 21.8659C12.9883 21.9246 12.9724 21.9893 12.9717 22.0551V29.1587C12.9727 29.2727 13.0182 29.3818 13.0984 29.4628C13.1786 29.5438 13.2873 29.5903 13.4013 29.5924H20.7667C20.821 29.5938 20.875 29.5844 20.9256 29.5647C20.9761 29.5451 21.0223 29.5155 21.0614 29.4778C21.0991 29.4388 21.1286 29.3926 21.1482 29.342C21.1679 29.2915 21.1773 29.2375 21.1759 29.1832L21.1964 25.0913ZM20.3371 28.729H13.831V22.6935L20.3494 25.3737L20.3371 28.729Z" fill="#5DA0FB"/>
<path d="M27.7438 30.603H13.1603C13.0463 30.6041 12.9372 30.6495 12.8562 30.7298C12.7752 30.81 12.7287 30.9187 12.7266 31.0327V78.8343C12.7287 78.9483 12.7752 79.057 12.8562 79.1372C12.9372 79.2174 13.0463 79.2629 13.1603 79.264H27.7438C27.7981 79.2653 27.8521 79.2559 27.9027 79.2363C27.9533 79.2166 27.9994 79.1871 28.0384 79.1494C28.0764 79.1111 28.1064 79.0658 28.1267 79.0159C28.1471 78.9661 28.1574 78.9127 28.1571 78.8589V31.0327C28.1552 30.9221 28.1116 30.8163 28.0349 30.7366C27.9582 30.657 27.8542 30.6092 27.7438 30.603ZM13.5736 78.4047V31.4705H27.2978V78.4047H13.5736Z" fill="#5DA0FB"/>
<path d="M152.477 49.348H124.399C124.375 49.3231 124.347 49.3023 124.317 49.2866L109.255 41.2419C107.713 40.4235 106.169 39.6051 104.623 38.7868C104.557 38.7498 104.483 38.7306 104.408 38.731C104.332 38.7313 104.259 38.7513 104.193 38.7888C104.128 38.8264 104.074 38.8803 104.036 38.9452C103.998 39.0101 103.977 39.0839 103.976 39.1591V78.7892C103.977 78.8998 104.019 79.006 104.095 79.0865C104.171 79.167 104.275 79.2157 104.385 79.2229H152.457C152.511 79.2238 152.566 79.2137 152.616 79.1934C152.667 79.173 152.713 79.1427 152.752 79.1043C152.79 79.0656 152.82 79.0196 152.841 78.969C152.861 78.9184 152.871 78.8642 152.87 78.8097V49.7776C152.869 49.6703 152.828 49.5672 152.756 49.488C152.683 49.4088 152.584 49.359 152.477 49.348ZM106.943 78.3391H104.835V39.8752L119.251 47.5762L123.642 49.9208V78.3596L106.943 78.3391ZM136.613 78.3391H124.53V50.2073H152.048V78.3391H136.613Z" fill="#5DA0FB"/>
<path d="M32.4369 67.1523H51.2147C51.3286 67.1523 51.4379 67.107 51.5185 67.0264C51.5991 66.9458 51.6444 66.8366 51.6444 66.7226C51.6444 66.6087 51.5991 66.4994 51.5185 66.4188C51.4379 66.3382 51.3286 66.293 51.2147 66.293H32.4369C32.323 66.293 32.2137 66.3382 32.1331 66.4188C32.0526 66.4994 32.0073 66.6087 32.0073 66.7226C32.0073 66.8366 32.0526 66.9458 32.1331 67.0264C32.2137 67.107 32.323 67.1523 32.4369 67.1523Z" fill="#5DA0FB"/>
<path d="M15.9306 67.1523H25.121C25.235 67.1523 25.3443 67.107 25.4249 67.0264C25.5055 66.9458 25.5507 66.8366 25.5507 66.7226C25.5507 66.6087 25.5055 66.4994 25.4249 66.4188C25.3443 66.3382 25.235 66.293 25.121 66.293H15.9306C15.8167 66.293 15.7074 66.3382 15.6269 66.4188C15.5463 66.4994 15.501 66.6087 15.501 66.7226C15.501 66.8366 15.5463 66.9458 15.6269 67.0264C15.7074 67.107 15.8167 67.1523 15.9306 67.1523Z" fill="#5DA0FB"/>
<path d="M35.6534 64.2756V57.7286C35.643 57.6213 35.593 57.5218 35.5132 57.4494C35.4334 57.377 35.3295 57.3369 35.2218 57.3369C35.114 57.3369 35.0101 57.377 34.9303 57.4494C34.8505 57.5218 34.8005 57.6213 34.79 57.7286V64.2756C34.8005 64.3829 34.8505 64.4824 34.9303 64.5548C35.0101 64.6272 35.114 64.6673 35.2218 64.6673C35.3295 64.6673 35.4334 64.6272 35.5132 64.5548C35.593 64.4824 35.643 64.3829 35.6534 64.2756Z" fill="#5DA0FB"/>
<path d="M42.0653 64.2755V57.7285C42.0653 57.6145 42.0201 57.5052 41.9395 57.4247C41.8589 57.3441 41.7496 57.2988 41.6357 57.2988C41.5217 57.2988 41.4125 57.3441 41.3319 57.4247C41.2513 57.5052 41.2061 57.6145 41.2061 57.7285V64.2755C41.2061 64.3895 41.2513 64.4988 41.3319 64.5793C41.4125 64.6599 41.5217 64.7052 41.6357 64.7052C41.7496 64.7052 41.8589 64.6599 41.9395 64.5793C42.0201 64.4988 42.0653 64.3895 42.0653 64.2755Z" fill="#5DA0FB"/>
<path d="M48.5143 64.2756V57.7286C48.5038 57.6213 48.4538 57.5218 48.374 57.4494C48.2942 57.377 48.1903 57.3369 48.0825 57.3369C47.9748 57.3369 47.8709 57.377 47.7911 57.4494C47.7113 57.5218 47.6613 57.6213 47.6509 57.7286V64.2756C47.6613 64.3829 47.7113 64.4824 47.7911 64.5548C47.8709 64.6272 47.9748 64.6673 48.0825 64.6673C48.1903 64.6673 48.2942 64.6272 48.374 64.5548C48.4538 64.4824 48.5038 64.3829 48.5143 64.2756Z" fill="#5DA0FB"/>
<path d="M17.3627 75.7453V69.1982C17.3627 69.0843 17.3175 68.975 17.2369 68.8944C17.1563 68.8138 17.047 68.7686 16.933 68.7686C16.8191 68.7686 16.7098 68.8138 16.6292 68.8944C16.5487 68.975 16.5034 69.0843 16.5034 69.1982V75.7453C16.5034 75.8592 16.5487 75.9685 16.6292 76.0491C16.7098 76.1296 16.8191 76.1749 16.933 76.1749C17.047 76.1749 17.1563 76.1296 17.2369 76.0491C17.3175 75.9685 17.3627 75.8592 17.3627 75.7453Z" fill="#5DA0FB"/>
<path d="M20.6647 75.7444V69.1973C20.6542 69.0901 20.6042 68.9906 20.5244 68.9182C20.4446 68.8458 20.3407 68.8057 20.233 68.8057C20.1252 68.8057 20.0213 68.8458 19.9415 68.9182C19.8617 68.9906 19.8117 69.0901 19.8013 69.1973V75.7444C19.8117 75.8516 19.8617 75.9511 19.9415 76.0235C20.0213 76.0959 20.1252 76.136 20.233 76.136C20.3407 76.136 20.4446 76.0959 20.5244 76.0235C20.6042 75.9511 20.6542 75.8516 20.6647 75.7444Z" fill="#5DA0FB"/>
<path d="M23.9669 75.7444V69.1973C23.9564 69.0901 23.9064 68.9906 23.8266 68.9182C23.7468 68.8458 23.6429 68.8057 23.5352 68.8057C23.4274 68.8057 23.3236 68.8458 23.2438 68.9182C23.164 68.9906 23.114 69.0901 23.1035 69.1973V75.7444C23.114 75.8516 23.164 75.9511 23.2438 76.0235C23.3236 76.0959 23.4274 76.136 23.5352 76.136C23.6429 76.136 23.7468 76.0959 23.8266 76.0235C23.9064 75.9511 23.9564 75.8516 23.9669 75.7444Z" fill="#5DA0FB"/>
<path d="M137.873 47.6947V45.2027C137.863 45.0955 137.813 44.9959 137.733 44.9235C137.653 44.8511 137.549 44.811 137.441 44.811C137.334 44.811 137.23 44.8511 137.15 44.9235C137.07 44.9959 137.02 45.0955 137.01 45.2027V47.6947C137.02 47.8019 137.07 47.9014 137.15 47.9738C137.23 48.0462 137.334 48.0863 137.441 48.0863C137.549 48.0863 137.653 48.0462 137.733 47.9738C137.813 47.9014 137.863 47.8019 137.873 47.6947Z" fill="#5DA0FB"/>
<path d="M144.302 47.6946V45.2026C144.302 45.0886 144.256 44.9794 144.176 44.8988C144.095 44.8182 143.986 44.7729 143.872 44.7729C143.758 44.7729 143.649 44.8182 143.568 44.8988C143.488 44.9794 143.442 45.0886 143.442 45.2026V47.6946C143.442 47.8085 143.488 47.9178 143.568 47.9984C143.649 48.0789 143.758 48.1242 143.872 48.1242C143.986 48.1242 144.095 48.0789 144.176 47.9984C144.256 47.9178 144.302 47.8085 144.302 47.6946Z" fill="#5DA0FB"/>
<path d="M150.734 47.6947V45.2027C150.724 45.0955 150.674 44.9959 150.594 44.9235C150.514 44.8511 150.411 44.811 150.303 44.811C150.195 44.811 150.091 44.8511 150.011 44.9235C149.932 44.9959 149.882 45.0955 149.871 45.2027V47.6947C149.882 47.8019 149.932 47.9014 150.011 47.9738C150.091 48.0462 150.195 48.0863 150.303 48.0863C150.411 48.0863 150.514 48.0462 150.594 47.9738C150.674 47.9014 150.724 47.8019 150.734 47.6947Z" fill="#5DA0FB"/>
<path d="M137.873 42.9891V38.1197C137.863 38.0124 137.813 37.9129 137.733 37.8405C137.653 37.7681 137.549 37.728 137.441 37.728C137.334 37.728 137.23 37.7681 137.15 37.8405C137.07 37.9129 137.02 38.0124 137.01 38.1197V42.9891C137.02 43.0963 137.07 43.1958 137.15 43.2682C137.23 43.3406 137.334 43.3807 137.441 43.3807C137.549 43.3807 137.653 43.3406 137.733 43.2682C137.813 43.1958 137.863 43.0963 137.873 42.9891Z" fill="#5DA0FB"/>
<path d="M144.302 42.9894V38.1201C144.302 38.0061 144.256 37.8968 144.176 37.8163C144.095 37.7357 143.986 37.6904 143.872 37.6904C143.758 37.6904 143.649 37.7357 143.568 37.8163C143.488 37.8968 143.442 38.0061 143.442 38.1201V42.9894C143.442 43.1034 143.488 43.2127 143.568 43.2933C143.649 43.3738 143.758 43.4191 143.872 43.4191C143.986 43.4191 144.095 43.3738 144.176 43.2933C144.256 43.2127 144.302 43.1034 144.302 42.9894Z" fill="#5DA0FB"/>
<path d="M150.734 42.9891V38.1197C150.724 38.0124 150.674 37.9129 150.594 37.8405C150.514 37.7681 150.411 37.728 150.303 37.728C150.195 37.728 150.091 37.7681 150.011 37.8405C149.932 37.9129 149.882 38.0124 149.871 38.1197V42.9891C149.882 43.0963 149.932 43.1958 150.011 43.2682C150.091 43.3406 150.195 43.3807 150.303 43.3807C150.411 43.3807 150.514 43.3406 150.594 43.2682C150.674 43.1958 150.724 43.0963 150.734 42.9891Z" fill="#5DA0FB"/>
<path d="M62.4965 41.1316V38.6396C62.4965 38.5257 62.4512 38.4164 62.3707 38.3358C62.2901 38.2552 62.1808 38.21 62.0669 38.21C61.9529 38.21 61.8437 38.2552 61.7631 38.3358C61.6825 38.4164 61.6372 38.5257 61.6372 38.6396V41.1316C61.6372 41.2455 61.6825 41.3548 61.7631 41.4354C61.8437 41.516 61.9529 41.5612 62.0669 41.5612C62.1808 41.5612 62.2901 41.516 62.3707 41.4354C62.4512 41.3548 62.4965 41.2455 62.4965 41.1316Z" fill="#5DA0FB"/>
<path d="M68.9288 41.1317V38.6397C68.9184 38.5325 68.8684 38.433 68.7886 38.3606C68.7088 38.2882 68.6048 38.248 68.4971 38.248C68.3893 38.248 68.2855 38.2882 68.2057 38.3606C68.1259 38.433 68.0759 38.5325 68.0654 38.6397V41.1317C68.0759 41.2389 68.1259 41.3384 68.2057 41.4108C68.2855 41.4832 68.3893 41.5233 68.4971 41.5233C68.6048 41.5233 68.7088 41.4832 68.7886 41.4108C68.8684 41.3384 68.9184 41.2389 68.9288 41.1317Z" fill="#5DA0FB"/>
<path d="M75.3573 41.1316V38.6396C75.3573 38.5257 75.3121 38.4164 75.2315 38.3358C75.1509 38.2552 75.0417 38.21 74.9277 38.21C74.8138 38.21 74.7044 38.2552 74.6239 38.3358C74.5433 38.4164 74.498 38.5257 74.498 38.6396V41.1316C74.498 41.2455 74.5433 41.3548 74.6239 41.4354C74.7044 41.516 74.8138 41.5612 74.9277 41.5612C75.0417 41.5612 75.1509 41.516 75.2315 41.4354C75.3121 41.3548 75.3573 41.2455 75.3573 41.1316Z" fill="#5DA0FB"/>
<path d="M62.4965 36.4219V31.5566C62.4965 31.4427 62.4512 31.3334 62.3707 31.2528C62.2901 31.1722 62.1808 31.127 62.0669 31.127C61.9529 31.127 61.8437 31.1722 61.7631 31.2528C61.6825 31.3334 61.6372 31.4427 61.6372 31.5566V36.4219C61.6372 36.5358 61.6825 36.6451 61.7631 36.7257C61.8437 36.8063 61.9529 36.8515 62.0669 36.8515C62.1808 36.8515 62.2901 36.8063 62.3707 36.7257C62.4512 36.6451 62.4965 36.5358 62.4965 36.4219Z" fill="#5DA0FB"/>
<path d="M68.9288 36.422V31.5567C68.9184 31.4495 68.8684 31.3499 68.7886 31.2775C68.7088 31.2051 68.6048 31.165 68.4971 31.165C68.3893 31.165 68.2855 31.2051 68.2057 31.2775C68.1259 31.3499 68.0759 31.4495 68.0654 31.5567V36.422C68.0759 36.5292 68.1259 36.6287 68.2057 36.7011C68.2855 36.7735 68.3893 36.8136 68.4971 36.8136C68.6048 36.8136 68.7088 36.7735 68.7886 36.7011C68.8684 36.6287 68.9184 36.5292 68.9288 36.422Z" fill="#5DA0FB"/>
<path d="M75.3573 36.4219V31.5566C75.3573 31.4427 75.3121 31.3334 75.2315 31.2528C75.1509 31.1722 75.0417 31.127 74.9277 31.127C74.8138 31.127 74.7044 31.1722 74.6239 31.2528C74.5433 31.3334 74.498 31.4427 74.498 31.5566V36.4219C74.498 36.5358 74.5433 36.6451 74.6239 36.7257C74.7044 36.8063 74.8138 36.8515 74.9277 36.8515C75.0417 36.8515 75.1509 36.8063 75.2315 36.7257C75.3121 36.6451 75.3573 36.5358 75.3573 36.4219Z" fill="#5DA0FB"/>
<path d="M135.717 60.7887C135.825 60.7905 135.93 60.7493 136.008 60.6742C136.045 60.6351 136.075 60.589 136.095 60.5384C136.114 60.4878 136.124 60.4338 136.122 60.3796V55.2319C136.116 55.1219 136.068 55.0184 135.988 54.9424C135.909 54.8664 135.803 54.8236 135.693 54.8228H130.565C130.459 54.8286 130.358 54.8736 130.283 54.9491C130.207 55.0246 130.162 55.1253 130.156 55.2319V60.3591C130.157 60.4693 130.2 60.575 130.276 60.6548C130.352 60.7346 130.455 60.7825 130.565 60.7887H135.717ZM135.308 59.9294H131.04V55.6616H135.308V59.9294Z" fill="#5DA0FB"/>
<path d="M146.364 60.7887C146.472 60.7905 146.576 60.7493 146.654 60.6742C146.692 60.6351 146.721 60.589 146.741 60.5384C146.761 60.4878 146.77 60.4338 146.769 60.3796V55.2319C146.763 55.1253 146.718 55.0246 146.642 54.9491C146.567 54.8736 146.466 54.8286 146.36 54.8228H141.232C141.126 54.8286 141.025 54.8736 140.95 54.9491C140.874 55.0246 140.829 55.1253 140.823 55.2319V60.3591C140.82 60.4145 140.829 60.4699 140.848 60.522C140.868 60.574 140.897 60.6216 140.936 60.6618C140.974 60.702 141.02 60.7339 141.071 60.7558C141.122 60.7776 141.177 60.7888 141.232 60.7887H146.364ZM145.934 59.9294H141.666V55.6616H145.934V59.9294Z" fill="#5DA0FB"/>
<path d="M135.918 63.9438H130.791C130.684 63.9497 130.583 63.9947 130.508 64.0702C130.432 64.1457 130.387 64.2464 130.381 64.353V69.4802C130.382 69.5904 130.425 69.6961 130.501 69.7759C130.577 69.8557 130.681 69.9036 130.791 69.9098H135.918C136.026 69.9116 136.13 69.8704 136.208 69.7953C136.283 69.7174 136.325 69.6129 136.323 69.5047V64.3735C136.322 64.264 136.28 64.1588 136.205 64.0791C136.13 63.9994 136.027 63.9511 135.918 63.9438ZM135.509 69.071H131.241V64.8032H135.509V69.071Z" fill="#5DA0FB"/>
<path d="M146.994 64.3735C146.988 64.2669 146.943 64.1662 146.868 64.0907C146.792 64.0152 146.692 63.9702 146.585 63.9644H141.458C141.351 63.9702 141.251 64.0152 141.175 64.0907C141.1 64.1662 141.055 64.2669 141.049 64.3735V69.5007C141.05 69.6109 141.092 69.7166 141.168 69.7964C141.244 69.8762 141.348 69.9241 141.458 69.9304H146.585C146.693 69.9321 146.798 69.8909 146.876 69.8158C146.951 69.7379 146.992 69.6334 146.99 69.5253L146.994 64.3735ZM146.135 69.0711H141.867V64.8032H146.135V69.0711Z" fill="#5DA0FB"/>
<path d="M160.244 27.2725H156.888C156.774 27.2735 156.665 27.319 156.584 27.3992C156.503 27.4795 156.457 27.5881 156.455 27.7021V31.0616C156.456 31.1763 156.502 31.286 156.583 31.3671C156.664 31.4482 156.774 31.4942 156.888 31.4953H160.244C160.352 31.497 160.456 31.4558 160.534 31.3807C160.572 31.3417 160.601 31.2955 160.621 31.2449C160.641 31.1944 160.65 31.1404 160.649 31.0861V27.7308C160.656 27.6163 160.617 27.5039 160.541 27.418C160.465 27.3322 160.358 27.2798 160.244 27.2725ZM159.835 30.6278H157.338V28.1318H159.835V30.6278Z" fill="#5DA0FB"/>
<path d="M165.535 27.2725H162.179C162.069 27.2787 161.966 27.3266 161.89 27.4064C161.814 27.4862 161.771 27.5919 161.77 27.7021V31.0616C161.771 31.1722 161.813 31.2784 161.889 31.3589C161.965 31.4393 162.069 31.4881 162.179 31.4953H165.535C165.589 31.4967 165.643 31.4873 165.693 31.4676C165.744 31.4479 165.79 31.4184 165.829 31.3807C165.868 31.342 165.898 31.296 165.918 31.2454C165.939 31.1948 165.949 31.1407 165.948 31.0861V27.7308C165.953 27.6153 165.913 27.5023 165.836 27.4164C165.758 27.3306 165.65 27.2788 165.535 27.2725ZM165.125 30.6278H162.629V28.1318H165.125V30.6278Z" fill="#5DA0FB"/>
<path d="M160.244 32.5547H156.888C156.778 32.5555 156.671 32.5981 156.591 32.674C156.511 32.7499 156.462 32.8535 156.455 32.9639V36.3233C156.462 36.4337 156.511 36.5373 156.591 36.6132C156.671 36.6891 156.778 36.7317 156.888 36.7325H160.244C160.352 36.7342 160.456 36.693 160.534 36.6179C160.609 36.5401 160.651 36.4356 160.649 36.3274V32.9843C160.648 32.8748 160.606 32.7696 160.531 32.6899C160.455 32.6102 160.353 32.5619 160.244 32.5547ZM159.835 35.91H157.338V33.4181H159.835V35.91Z" fill="#5DA0FB"/>
<path d="M165.535 32.5547H162.179C162.073 32.5606 161.972 32.6056 161.896 32.6811C161.821 32.7566 161.776 32.8573 161.77 32.9639V36.3233C161.776 36.4299 161.821 36.5306 161.896 36.6061C161.972 36.6816 162.073 36.7266 162.179 36.7325H165.535C165.589 36.7339 165.643 36.7245 165.693 36.7048C165.744 36.6852 165.79 36.6556 165.829 36.6179C165.867 36.5797 165.897 36.5344 165.917 36.4845C165.938 36.4347 165.948 36.3813 165.948 36.3274V32.9843C165.946 32.8738 165.902 32.768 165.826 32.6883C165.749 32.6086 165.645 32.5609 165.535 32.5547ZM165.125 35.91H162.629V33.4181H165.125V35.91Z" fill="#5DA0FB"/>
<path d="M160.244 37.6904H156.888C156.778 37.6912 156.671 37.7339 156.591 37.8098C156.511 37.8857 156.462 37.9892 156.455 38.0996V41.4591C156.457 41.5731 156.503 41.6817 156.584 41.762C156.665 41.8422 156.774 41.8877 156.888 41.8887H160.244C160.352 41.8904 160.456 41.8492 160.534 41.7742C160.609 41.6963 160.651 41.5918 160.649 41.4836V38.1242C160.649 38.0139 160.607 37.9077 160.532 37.8272C160.457 37.7466 160.354 37.6977 160.244 37.6904ZM159.835 41.0458H157.338V38.5538H159.835V41.0458Z" fill="#5DA0FB"/>
<path d="M165.535 37.6904H162.179C162.073 37.6963 161.972 37.7413 161.896 37.8168C161.821 37.8923 161.776 37.993 161.77 38.0996V41.4591C161.771 41.5693 161.814 41.675 161.89 41.7548C161.966 41.8346 162.069 41.8825 162.179 41.8887H165.535C165.589 41.8901 165.643 41.8807 165.693 41.861C165.744 41.8414 165.79 41.8118 165.829 41.7742C165.867 41.7359 165.897 41.6906 165.917 41.6407C165.938 41.5909 165.948 41.5375 165.948 41.4836V38.1242C165.947 38.0129 165.904 37.9061 165.827 37.8255C165.75 37.745 165.646 37.6967 165.535 37.6904ZM165.125 41.0458H162.629V38.5538H165.125V41.0458Z" fill="#5DA0FB"/>
<path d="M160.244 42.9727H156.888C156.774 42.9737 156.664 43.0198 156.583 43.1009C156.502 43.182 156.456 43.2917 156.455 43.4064V46.7618C156.462 46.8721 156.511 46.9757 156.591 47.0516C156.671 47.1275 156.778 47.1702 156.888 47.171H160.244C160.352 47.1727 160.456 47.1315 160.534 47.0564C160.609 46.9785 160.651 46.874 160.649 46.7658V43.4105C160.649 43.2998 160.607 43.1931 160.532 43.1119C160.457 43.0307 160.354 42.9809 160.244 42.9727ZM159.835 46.3321H157.338V43.836H159.835V46.3321Z" fill="#5DA0FB"/>
<path d="M165.535 42.9727H162.179C162.069 42.9799 161.965 43.0286 161.889 43.1091C161.813 43.1896 161.771 43.2958 161.77 43.4064V46.7618C161.776 46.8684 161.821 46.9691 161.896 47.0446C161.972 47.1201 162.073 47.1651 162.179 47.171H165.535C165.589 47.1723 165.643 47.1629 165.693 47.1433C165.744 47.1236 165.79 47.0941 165.829 47.0564C165.867 47.0181 165.897 46.9728 165.917 46.9229C165.938 46.8731 165.948 46.8197 165.948 46.7659V43.4105C165.948 43.2985 165.905 43.1907 165.828 43.1093C165.752 43.0278 165.646 42.9789 165.535 42.9727ZM165.125 46.3321H162.629V43.836H165.125V46.3321Z" fill="#5DA0FB"/>
<path d="M160.244 47.7197H156.888C156.778 47.7205 156.671 47.7632 156.591 47.8391C156.511 47.915 156.462 48.0185 156.455 48.1289V51.5211C156.457 51.6351 156.503 51.7438 156.584 51.824C156.665 51.9042 156.774 51.9497 156.888 51.9508H160.244C160.352 51.9525 160.456 51.9113 160.534 51.8362C160.609 51.7583 160.651 51.6538 160.649 51.5457V48.1862C160.653 48.1289 160.646 48.0713 160.628 48.0167C160.61 47.9621 160.582 47.9116 160.544 47.8682C160.506 47.8248 160.46 47.7893 160.409 47.7638C160.357 47.7383 160.301 47.7234 160.244 47.7197ZM159.835 51.0792H157.338V48.5831H159.835V51.0792Z" fill="#5DA0FB"/>
<path d="M165.535 47.7197H162.179C162.073 47.7256 161.972 47.7706 161.896 47.8461C161.821 47.9216 161.776 48.0223 161.77 48.1289V51.5211C161.771 51.6313 161.814 51.737 161.89 51.8168C161.966 51.8966 162.069 51.9445 162.179 51.9508H165.535C165.589 51.9522 165.643 51.9427 165.693 51.9231C165.744 51.9034 165.79 51.8739 165.829 51.8362C165.867 51.7979 165.897 51.7526 165.917 51.7027C165.938 51.6529 165.948 51.5995 165.948 51.5457V48.1862C165.952 48.1284 165.944 48.0703 165.925 48.0154C165.907 47.9606 165.877 47.91 165.839 47.8666C165.8 47.8232 165.754 47.7879 165.701 47.7626C165.649 47.7374 165.592 47.7228 165.535 47.7197ZM165.125 51.0792H162.629V48.5831H165.125V51.0792Z" fill="#5DA0FB"/>
<path d="M160.244 53.002H156.888C156.774 53.003 156.664 53.0491 156.583 53.1302C156.502 53.2113 156.456 53.321 156.455 53.4357V56.7911C156.456 56.9054 156.502 57.0147 156.583 57.0951C156.664 57.1756 156.774 57.2207 156.888 57.2207H160.244C160.352 57.2224 160.456 57.1812 160.534 57.1061C160.572 57.0671 160.601 57.0209 160.621 56.9703C160.641 56.9198 160.65 56.8658 160.649 56.8115V53.4562C160.653 53.3427 160.614 53.2319 160.538 53.1472C160.462 53.0624 160.357 53.0104 160.244 53.002ZM159.835 56.3614H157.338V53.8653H159.835V56.3614Z" fill="#5DA0FB"/>
<path d="M165.535 53.002H162.179C162.069 53.0092 161.965 53.0579 161.889 53.1384C161.813 53.2189 161.771 53.3251 161.77 53.4357V56.7911C161.771 56.9013 161.814 57.007 161.89 57.0868C161.966 57.1666 162.069 57.2145 162.179 57.2207H165.535C165.589 57.2221 165.643 57.2127 165.693 57.193C165.744 57.1734 165.79 57.1438 165.829 57.1061C165.868 57.0674 165.898 57.0214 165.918 56.9708C165.939 56.9202 165.949 56.8661 165.948 56.8115V53.4562C165.952 53.3414 165.911 53.2294 165.834 53.1445C165.757 53.0595 165.649 53.0083 165.535 53.002ZM165.125 56.3614H162.629V53.8653H165.125V56.3614Z" fill="#5DA0FB"/>
<path d="M19.0772 34.5679H15.7178C15.6078 34.5741 15.5042 34.622 15.4282 34.7018C15.3522 34.7816 15.3095 34.8873 15.3086 34.9975V38.3529C15.3094 38.4635 15.352 38.5697 15.4279 38.6502C15.5038 38.7306 15.6074 38.7794 15.7178 38.7866H19.0772C19.1311 38.7869 19.1845 38.7766 19.2343 38.7563C19.2842 38.7359 19.3295 38.7059 19.3678 38.668C19.4055 38.6289 19.435 38.5827 19.4546 38.5322C19.4743 38.4816 19.4838 38.4276 19.4824 38.3733V35.018C19.4869 34.9049 19.447 34.7946 19.3713 34.7105C19.2956 34.6264 19.1901 34.5753 19.0772 34.5679ZM18.668 37.9232H16.172V35.4272H18.668V37.9232Z" fill="#5DA0FB"/>
<path d="M24.3682 34.5679H21.0129C20.8985 34.5679 20.7888 34.613 20.7076 34.6935C20.6263 34.7739 20.5802 34.8832 20.5791 34.9975V38.3529C20.5802 38.4676 20.6262 38.5773 20.7073 38.6584C20.7884 38.7395 20.8982 38.7856 21.0129 38.7866H24.3682C24.4227 38.7875 24.4769 38.7774 24.5275 38.757C24.5781 38.7367 24.6241 38.7064 24.6628 38.668C24.7005 38.6289 24.7301 38.5827 24.7497 38.5322C24.7694 38.4816 24.7788 38.4276 24.7774 38.3733V35.018C24.7831 34.9609 24.7768 34.9033 24.7588 34.8488C24.7408 34.7943 24.7116 34.7443 24.6731 34.7018C24.6345 34.6594 24.5874 34.6255 24.5348 34.6024C24.4823 34.5794 24.4256 34.5676 24.3682 34.5679ZM23.959 37.9232H21.463V35.4272H23.959V37.9232Z" fill="#5DA0FB"/>
<path d="M19.0772 39.8511H15.7178C15.6112 39.857 15.5105 39.902 15.435 39.9775C15.3595 40.053 15.3145 40.1537 15.3086 40.2603V43.6197C15.3095 43.7299 15.3522 43.8357 15.4282 43.9155C15.5042 43.9953 15.6078 44.0431 15.7178 44.0494H19.0772C19.1854 44.0511 19.2899 44.0099 19.3678 43.9348C19.4429 43.8569 19.4841 43.7524 19.4824 43.6443V40.2848C19.4826 40.1746 19.4408 40.0684 19.3656 39.9878C19.2903 39.9072 19.1872 39.8584 19.0772 39.8511ZM18.668 43.2064H16.172V40.7104H18.668V43.2064Z" fill="#5DA0FB"/>
<path d="M24.3682 39.8511H21.0129C20.9023 39.8519 20.796 39.8945 20.7156 39.9704C20.6351 40.0463 20.5863 40.1499 20.5791 40.2603V43.6197C20.5812 43.7337 20.6277 43.8424 20.7087 43.9226C20.7897 44.0028 20.8989 44.0483 21.0129 44.0494H24.3682C24.4225 44.0508 24.4765 44.0413 24.527 44.0217C24.5776 44.002 24.6238 43.9725 24.6628 43.9348C24.7379 43.8569 24.7791 43.7524 24.7774 43.6443V40.2848C24.7776 40.1739 24.7353 40.0671 24.6592 39.9865C24.5831 39.9058 24.4789 39.8574 24.3682 39.8511ZM23.959 43.2064H21.463V40.7104H23.959V43.2064Z" fill="#5DA0FB"/>
<path d="M19.0772 44.9741H15.7178C15.6112 44.98 15.5105 45.025 15.435 45.1005C15.3595 45.176 15.3145 45.2767 15.3086 45.3833V48.7387C15.3094 48.8493 15.352 48.9555 15.4279 49.036C15.5038 49.1164 15.6074 49.1652 15.7178 49.1724H19.0772C19.1854 49.1741 19.2899 49.1329 19.3678 49.0578C19.4055 49.0188 19.435 48.9726 19.4546 48.922C19.4743 48.8715 19.4838 48.8175 19.4824 48.7632V45.4079C19.4826 45.2976 19.4408 45.1914 19.3656 45.1109C19.2903 45.0303 19.1872 44.9814 19.0772 44.9741ZM18.668 48.3295H16.172V45.8334H18.668V48.3295Z" fill="#5DA0FB"/>
<path d="M24.3682 44.9741H21.0129C20.9023 44.9749 20.796 45.0176 20.7156 45.0935C20.6351 45.1694 20.5863 45.2729 20.5791 45.3833V48.7387C20.5802 48.8534 20.6262 48.9631 20.7073 49.0442C20.7884 49.1253 20.8982 49.1713 21.0129 49.1724H24.3682C24.4225 49.1738 24.4765 49.1644 24.5271 49.1447C24.5776 49.1251 24.6238 49.0955 24.6628 49.0578C24.7005 49.0188 24.7301 48.9726 24.7497 48.922C24.7694 48.8715 24.7788 48.8175 24.7774 48.7632V45.4079C24.7776 45.297 24.7353 45.1902 24.6592 45.1095C24.5831 45.0289 24.4789 44.9804 24.3682 44.9741ZM23.959 48.3295H21.463V45.8334H23.959V48.3295Z" fill="#5DA0FB"/>
<path d="M19.0772 50.2686H15.7178C15.6078 50.2748 15.5042 50.3227 15.4282 50.4025C15.3522 50.4823 15.3095 50.588 15.3086 50.6982V54.0577C15.3095 54.1679 15.3522 54.2736 15.4282 54.3534C15.5042 54.4332 15.6078 54.4811 15.7178 54.4873H19.0772C19.1854 54.489 19.2899 54.4478 19.3678 54.3727C19.4429 54.2948 19.4841 54.1904 19.4824 54.0822V50.7023C19.4826 50.5921 19.4408 50.4859 19.3656 50.4053C19.2903 50.3247 19.1872 50.2758 19.0772 50.2686ZM18.668 53.6239H16.172V51.1319H18.668V53.6239Z" fill="#5DA0FB"/>
<path d="M24.3682 50.2686H21.0129C20.8989 50.2696 20.7897 50.3151 20.7087 50.3953C20.6277 50.4755 20.5812 50.5842 20.5791 50.6982V54.0577C20.5812 54.1716 20.6277 54.2803 20.7087 54.3606C20.7897 54.4408 20.8989 54.4863 21.0129 54.4873H24.3682C24.4225 54.4887 24.4765 54.4793 24.527 54.4596C24.5776 54.4399 24.6238 54.4104 24.6628 54.3727C24.7379 54.2948 24.7791 54.1904 24.7774 54.0822V50.7023C24.7776 50.5914 24.7353 50.4846 24.6592 50.404C24.5831 50.3233 24.4789 50.2748 24.3682 50.2686ZM23.959 53.6239H21.463V51.1319H23.959V53.6239Z" fill="#5DA0FB"/>
<path d="M19.0772 55.0151H15.7178C15.6078 55.0214 15.5042 55.0693 15.4282 55.1491C15.3522 55.2289 15.3095 55.3346 15.3086 55.4448V58.8042C15.3145 58.9109 15.3595 59.0116 15.435 59.0871C15.5105 59.1626 15.6112 59.2076 15.7178 59.2134H19.0772C19.1854 59.2152 19.2899 59.174 19.3678 59.0989C19.4429 59.021 19.4841 58.9165 19.4824 58.8083V55.4489C19.4826 55.3386 19.4408 55.2324 19.3656 55.1519C19.2903 55.0713 19.1872 55.0224 19.0772 55.0151ZM18.668 58.3705H16.172V55.8785H18.668V58.3705Z" fill="#5DA0FB"/>
<path d="M24.3682 55.0151H21.0129C20.8989 55.0162 20.7897 55.0617 20.7087 55.1419C20.6277 55.2221 20.5812 55.3308 20.5791 55.4448V58.8042C20.5863 58.9146 20.6351 59.0182 20.7156 59.0941C20.796 59.17 20.9023 59.2126 21.0129 59.2134H24.3682C24.4225 59.2148 24.4765 59.2054 24.527 59.1857C24.5776 59.1661 24.6238 59.1365 24.6628 59.0989C24.7379 59.021 24.7791 58.9165 24.7774 58.8083V55.4489C24.7776 55.338 24.7353 55.2312 24.6592 55.1505C24.5831 55.0699 24.4789 55.0214 24.3682 55.0151ZM23.959 58.3705H21.463V55.8785H23.959V58.3705Z" fill="#5DA0FB"/>
<path d="M19.0772 60.2979H15.7178C15.6074 60.3051 15.5038 60.3538 15.4279 60.4343C15.352 60.5148 15.3094 60.621 15.3086 60.7316V64.087C15.3145 64.1936 15.3595 64.2943 15.435 64.3698C15.5105 64.4453 15.6112 64.4903 15.7178 64.4961H19.0772C19.1854 64.4979 19.2899 64.4567 19.3678 64.3816C19.4429 64.3037 19.4841 64.1992 19.4824 64.091V60.7357C19.4827 60.625 19.441 60.5183 19.3659 60.4371C19.2907 60.3559 19.1876 60.3061 19.0772 60.2979ZM18.668 63.6573H16.172V61.1612H18.668V63.6573Z" fill="#5DA0FB"/>
<path d="M24.3682 60.2979H21.0129C20.8982 60.2989 20.7884 60.345 20.7073 60.4261C20.6262 60.5072 20.5802 60.6169 20.5791 60.7316V64.087C20.5863 64.1973 20.6351 64.3009 20.7156 64.3768C20.796 64.4527 20.9023 64.4954 21.0129 64.4961H24.3682C24.4225 64.4975 24.4765 64.4881 24.527 64.4685C24.5776 64.4488 24.6238 64.4193 24.6628 64.3816C24.7379 64.3037 24.7791 64.1992 24.7774 64.091V60.7357C24.7786 60.6241 24.7368 60.5163 24.6606 60.4347C24.5844 60.3532 24.4796 60.3042 24.3682 60.2979ZM23.959 63.6573H21.463V61.1612H23.959V63.6573Z" fill="#5DA0FB"/>
<path d="M106.767 57.2206H121.039C121.153 57.2206 121.263 57.1754 121.343 57.0948C121.424 57.0142 121.469 56.9049 121.469 56.791C121.469 56.677 121.424 56.5677 121.343 56.4872C121.263 56.4066 121.153 56.3613 121.039 56.3613H106.771C106.657 56.3613 106.548 56.4066 106.467 56.4872C106.387 56.5677 106.341 56.677 106.341 56.791C106.341 56.9049 106.387 57.0142 106.467 57.0948C106.548 57.1754 106.657 57.2206 106.771 57.2206H106.767Z" fill="#5DA0FB"/>
<path d="M106.767 76.0722H121.039C121.153 76.0722 121.263 76.0269 121.343 75.9464C121.424 75.8658 121.469 75.7565 121.469 75.6425C121.469 75.5286 121.424 75.4193 121.343 75.3387C121.263 75.2582 121.153 75.2129 121.039 75.2129H106.771C106.657 75.2129 106.548 75.2582 106.467 75.3387C106.387 75.4193 106.341 75.5286 106.341 75.6425C106.341 75.7565 106.387 75.8658 106.467 75.9464C106.548 76.0269 106.657 76.0722 106.771 76.0722H106.767Z" fill="#5DA0FB"/>
<path d="M156.541 59.7862H165.449C165.556 59.7758 165.655 59.7258 165.728 59.646C165.8 59.5662 165.84 59.4623 165.84 59.3546C165.84 59.2468 165.8 59.1429 165.728 59.0631C165.655 58.9833 165.556 58.9333 165.449 58.9229H156.541C156.433 58.9333 156.334 58.9833 156.261 59.0631C156.189 59.1429 156.149 59.2468 156.149 59.3546C156.149 59.4623 156.189 59.5662 156.261 59.646C156.334 59.7258 156.433 59.7758 156.541 59.7862Z" fill="#5DA0FB"/>
<path d="M90.9019 72.4098C90.3614 70.9467 89.5351 69.6058 88.4713 68.4652C88.4453 68.4356 88.4129 68.4124 88.3766 68.3971C88.3403 68.3818 88.3011 68.3748 88.2618 68.3768C88.2224 68.3788 88.1841 68.3896 88.1495 68.4084C88.1149 68.4273 88.0851 68.4536 88.0621 68.4856C88.0039 68.4279 87.9252 68.3955 87.8432 68.3955C87.7612 68.3955 87.6825 68.4279 87.6242 68.4856C87.5997 68.4549 87.5686 68.4301 87.5332 68.4131C87.4978 68.3961 87.4589 68.3872 87.4196 68.3872C87.3803 68.3872 87.3416 68.3961 87.3062 68.4131C87.2707 68.4301 87.2396 68.4549 87.2151 68.4856C86.1585 69.6318 85.3332 70.9712 84.7845 72.4302C84.3861 73.4199 84.3285 74.514 84.6208 75.5401C85.03 76.8004 86.1716 77.586 87.3419 78.0607C87.3926 78.0873 87.4516 78.0932 87.5066 78.0772C87.5615 78.0612 87.6081 78.0245 87.6365 77.9748C87.6745 78.0097 87.7211 78.0337 87.7715 78.0443C87.7373 78.0459 87.7038 78.0542 87.6728 78.0689C87.6418 78.0836 87.6141 78.1043 87.5913 78.1299C87.5684 78.1554 87.5509 78.1852 87.5397 78.2176C87.5285 78.25 87.5238 78.2843 87.526 78.3185C87.5465 79.1901 87.5629 80.0616 87.5833 80.9291C87.5833 81.0051 87.6135 81.0779 87.6672 81.1317C87.721 81.1854 87.7938 81.2155 87.8697 81.2155C87.9457 81.2155 88.0186 81.1854 88.0723 81.1317C88.126 81.0779 88.1562 81.0051 88.1562 80.9291C88.1398 80.0616 88.1207 79.1914 88.0989 78.3185C88.1007 78.2538 88.0788 78.1907 88.0374 78.141C87.996 78.0912 87.9378 78.0583 87.8738 78.0484C87.9382 78.0423 87.9987 78.015 88.0457 77.9707C88.0734 78.0211 88.1197 78.0587 88.1747 78.0755C88.2298 78.0923 88.2892 78.087 88.3403 78.0607C89.5106 77.5697 90.5336 76.8331 91.0246 75.6383C91.442 74.5989 91.2497 73.4164 90.9019 72.4098ZM90.4927 73.0645L88.1153 75.4419V72.643L89.6498 71.1085C89.838 71.4441 90.0099 71.7878 90.1653 72.1356C90.3019 72.4366 90.4168 72.747 90.5091 73.0645H90.4927ZM89.3511 70.6093L88.1235 71.8369V68.948C88.5845 69.4612 89.0006 70.0129 89.3674 70.5971L89.3511 70.6093ZM87.5383 68.9726V71.8369L86.3108 70.6093C86.6755 70.0212 87.0918 69.4666 87.5547 68.9521L87.5383 68.9726ZM86.0039 71.1249L87.5383 72.6594V75.4582L85.165 73.0849C85.2545 72.7682 85.3652 72.4579 85.4965 72.1561C85.6504 71.7956 85.8253 71.4444 86.0202 71.1044L86.0039 71.1249ZM85.0791 75.0941C84.9722 74.6561 84.9528 74.2014 85.0218 73.756L87.5383 76.2684V77.541L87.481 77.5083C86.3926 77.0213 85.4065 76.2766 85.0955 75.0736L85.0791 75.0941ZM90.6032 74.9918C90.3617 76.248 89.2896 77.0377 88.1766 77.5083C88.1536 77.5156 88.1326 77.5282 88.1153 77.5451V76.2725L90.6277 73.7601C90.6903 74.1616 90.6876 74.5706 90.6195 74.9713L90.6032 74.9918Z" fill="#5DA0FB"/>
<path d="M166.631 69.1158V63.9641C166.631 63.1744 166.922 61.6277 166.005 61.243C165.614 61.14 165.207 61.1122 164.806 61.1612H157.416C156.958 61.1612 156.438 61.0957 156.082 61.4517C155.957 61.6089 155.867 61.7908 155.817 61.9854C155.766 62.18 155.758 62.383 155.792 62.5811V75.7202C155.792 77.0337 157.077 76.8577 157.997 76.8577H165.641C165.679 76.8623 165.718 76.8623 165.756 76.8577C166.93 76.6981 166.631 75.0655 166.631 74.2307V69.1158ZM157.22 75.9862C157.032 75.9862 156.631 76.0721 156.631 75.7979V62.7693C156.631 62.6302 156.537 62.0532 156.762 62.0246C157.113 62.0021 157.466 62.0021 157.817 62.0246H165.183C165.355 62.0246 165.772 61.9387 165.772 62.2005V75.2005C165.772 75.4419 165.886 75.8961 165.592 75.9943L157.22 75.9862Z" fill="#5DA0FB"/>
<path d="M107.61 58.4526V73.8545C107.62 73.9617 107.67 74.0612 107.75 74.1336C107.83 74.206 107.934 74.2462 108.042 74.2462C108.149 74.2462 108.253 74.206 108.333 74.1336C108.413 74.0612 108.463 73.9617 108.473 73.8545V58.4771C108.463 58.3699 108.413 58.2704 108.333 58.198C108.253 58.1256 108.149 58.0854 108.042 58.0854C107.934 58.0854 107.83 58.1256 107.75 58.198C107.67 58.2704 107.62 58.3699 107.61 58.4771V58.4526Z" fill="#5DA0FB"/>
<path d="M110.499 58.4526V73.8545C110.509 73.9617 110.559 74.0612 110.639 74.1336C110.719 74.206 110.823 74.2462 110.93 74.2462C111.038 74.2462 111.142 74.206 111.222 74.1336C111.301 74.0612 111.351 73.9617 111.362 73.8545V58.4771C111.351 58.3699 111.301 58.2704 111.222 58.198C111.142 58.1256 111.038 58.0854 110.93 58.0854C110.823 58.0854 110.719 58.1256 110.639 58.198C110.559 58.2704 110.509 58.3699 110.499 58.4771V58.4526Z" fill="#5DA0FB"/>
<path d="M113.387 58.4526V73.8545C113.398 73.9617 113.448 74.0612 113.527 74.1336C113.607 74.206 113.711 74.2462 113.819 74.2462C113.927 74.2462 114.031 74.206 114.11 74.1336C114.19 74.0612 114.24 73.9617 114.251 73.8545V58.4771C114.24 58.3699 114.19 58.2704 114.11 58.198C114.031 58.1256 113.927 58.0854 113.819 58.0854C113.711 58.0854 113.607 58.1256 113.527 58.198C113.448 58.2704 113.398 58.3699 113.387 58.4771V58.4526Z" fill="#5DA0FB"/>
<path d="M116.276 58.4526V73.8545C116.287 73.9617 116.337 74.0612 116.417 74.1336C116.496 74.206 116.6 74.2462 116.708 74.2462C116.816 74.2462 116.92 74.206 116.999 74.1336C117.079 74.0612 117.129 73.9617 117.14 73.8545V58.4771C117.129 58.3699 117.079 58.2704 116.999 58.198C116.92 58.1256 116.816 58.0854 116.708 58.0854C116.6 58.0854 116.496 58.1256 116.417 58.198C116.337 58.2704 116.287 58.3699 116.276 58.4771V58.4526Z" fill="#5DA0FB"/>
<path d="M119.165 58.4526V73.8545C119.175 73.9617 119.225 74.0612 119.305 74.1336C119.385 74.206 119.489 74.2462 119.597 74.2462C119.704 74.2462 119.808 74.206 119.888 74.1336C119.968 74.0612 120.018 73.9617 120.028 73.8545V58.4771C120.018 58.3699 119.968 58.2704 119.888 58.198C119.808 58.1256 119.704 58.0854 119.597 58.0854C119.489 58.0854 119.385 58.1256 119.305 58.198C119.225 58.2704 119.175 58.3699 119.165 58.4771V58.4526Z" fill="#5DA0FB"/>
<path d="M119.423 49.9452L115.953 48.3617L109.885 45.5955L107.871 44.6749C107.307 44.4171 106.533 44.2043 106.353 45.0595C106.349 45.099 106.349 45.1387 106.353 45.1782V53.4479C106.353 54.5977 107.356 54.4545 108.195 54.4545H119.267C120.028 54.4545 120.086 53.7671 120.086 53.1983V50.8209C120.085 50.6229 120.019 50.4306 119.9 50.2728C119.78 50.115 119.613 50 119.423 49.9452ZM117.614 53.5911H107.2V45.3132L107.712 45.5464L109.451 46.3403L114.418 48.6072L118.535 50.4854L119.198 50.7882V53.5911H117.614Z" fill="#5DA0FB"/>
<path d="M32.4663 72.0908H51.2154C51.2699 72.0917 51.3241 72.0816 51.3747 72.0612C51.4253 72.0408 51.4713 72.0106 51.51 71.9721C51.5484 71.9334 51.5787 71.8874 51.5991 71.8368C51.6195 71.7862 51.6295 71.7321 51.6287 71.6775V68.9196C51.6276 68.8049 51.5816 68.6952 51.5004 68.6141C51.4193 68.5329 51.3096 68.4869 51.1949 68.4858H32.4458C32.3354 68.4931 32.2319 68.5418 32.156 68.6223C32.08 68.7027 32.0374 68.809 32.0366 68.9196V71.6775C32.0428 71.7879 32.0905 71.8919 32.1702 71.9686C32.2499 72.0452 32.3557 72.0889 32.4663 72.0908ZM49.55 69.3288H50.7776V71.2274H32.9V69.3288H49.55Z" fill="#5DA0FB"/>
<path d="M51.7673 73.5065C51.7663 73.3918 51.7202 73.2821 51.6391 73.201C51.558 73.1199 51.4483 73.0738 51.3336 73.0728H32.5845C32.4741 73.08 32.3706 73.1287 32.2947 73.2092C32.2188 73.2897 32.1761 73.3959 32.1753 73.5065V76.2644C32.1761 76.3751 32.2188 76.4813 32.2947 76.5617C32.3706 76.6422 32.4741 76.6909 32.5845 76.6982H51.3336C51.3882 76.699 51.4423 76.689 51.4929 76.6686C51.5435 76.6482 51.5895 76.6179 51.6282 76.5795C51.6666 76.5408 51.697 76.4948 51.7173 76.4442C51.7377 76.3936 51.7478 76.3394 51.7469 76.2849L51.7673 73.5065ZM34.2499 75.8348H33.0223V73.9361H50.908V75.8348H34.2499Z" fill="#5DA0FB"/>
<path d="M65.8971 65.1468C65.9514 65.1482 66.0054 65.1388 66.056 65.1191C66.1065 65.0994 66.1527 65.0699 66.1917 65.0322C66.2301 64.9935 66.2605 64.9475 66.2808 64.8969C66.3012 64.8463 66.3113 64.7921 66.3104 64.7376V59.5859C66.3083 59.4719 66.2618 59.3632 66.1808 59.283C66.0998 59.2028 65.9906 59.1573 65.8766 59.1562H60.7495C60.6395 59.1625 60.536 59.2104 60.46 59.2902C60.384 59.37 60.3412 59.4757 60.3403 59.5859V64.7131C60.3411 64.8237 60.3838 64.9299 60.4597 65.0104C60.5356 65.0908 60.6391 65.1396 60.7495 65.1468H65.8971ZM65.4879 64.2834H61.2241V60.0196H65.4879V64.2834Z" fill="#5DA0FB"/>
<path d="M76.5441 65.1468C76.5983 65.1482 76.6523 65.1388 76.7029 65.1191C76.7535 65.0994 76.7996 65.0699 76.8387 65.0322C76.8771 64.9935 76.9074 64.9475 76.9278 64.8969C76.9482 64.8463 76.9582 64.7921 76.9574 64.7376V59.5859C76.9553 59.4719 76.9088 59.3632 76.8278 59.283C76.7468 59.2028 76.6376 59.1573 76.5236 59.1562H71.3965C71.2865 59.1625 71.1829 59.2104 71.1069 59.2902C71.0309 59.37 70.9882 59.4757 70.9873 59.5859V64.7131C70.9881 64.8237 71.0307 64.9299 71.1066 65.0104C71.1825 65.0908 71.2861 65.1396 71.3965 65.1468H76.5441ZM76.1349 64.2834H71.8711V60.0196H76.1349V64.2834Z" fill="#5DA0FB"/>
<path d="M66.0974 68.2979H60.9702C60.8602 68.3041 60.7567 68.352 60.6807 68.4318C60.6047 68.5116 60.5619 68.6173 60.561 68.7275V73.8547C60.5618 73.9653 60.6045 74.0715 60.6804 74.152C60.7563 74.2324 60.8598 74.2812 60.9702 74.2884H66.0974C66.1519 74.2893 66.2061 74.2792 66.2567 74.2588C66.3073 74.2384 66.3533 74.2082 66.392 74.1697C66.4297 74.1307 66.4592 74.0845 66.4789 74.0339C66.4986 73.9834 66.508 73.9294 66.5066 73.8751V68.7275C66.5048 68.6176 66.4617 68.5124 66.3859 68.4328C66.31 68.3532 66.2071 68.305 66.0974 68.2979ZM65.6882 73.425H61.4245V69.1612H65.6882V73.425Z" fill="#5DA0FB"/>
<path d="M76.7444 68.2979H71.6172C71.5072 68.3041 71.4036 68.352 71.3276 68.4318C71.2516 68.5116 71.2089 68.6173 71.208 68.7275V73.8547C71.2088 73.9653 71.2515 74.0715 71.3274 74.152C71.4033 74.2324 71.5068 74.2812 71.6172 74.2884H76.7444C76.7989 74.2893 76.8531 74.2792 76.9037 74.2588C76.9543 74.2384 77.0003 74.2082 77.039 74.1697C77.0774 74.131 77.1077 74.085 77.1281 74.0344C77.1485 73.9838 77.1585 73.9297 77.1577 73.8751V68.7275C77.1558 68.6169 77.1121 68.5112 77.0354 68.4315C76.9588 68.3518 76.8548 68.304 76.7444 68.2979ZM76.3352 73.425H72.0714V69.1612H76.3352V73.425Z" fill="#5DA0FB"/>
<path d="M78.6392 44.0776H59.8901C59.7835 44.0835 59.6828 44.1285 59.6073 44.204C59.5318 44.2795 59.4868 44.3802 59.481 44.4868V47.2489C59.4868 47.3555 59.5318 47.4562 59.6073 47.5317C59.6828 47.6072 59.7835 47.6522 59.8901 47.6581H78.6392C78.7474 47.6598 78.8519 47.6186 78.9297 47.5435C79.0048 47.4656 79.046 47.3611 79.0443 47.253V44.4909C79.0395 44.3842 78.9955 44.2831 78.9208 44.2068C78.8461 44.1306 78.7458 44.0846 78.6392 44.0776ZM61.5555 46.8356H60.328V44.9369H78.2178V46.8356H61.5555Z" fill="#5DA0FB"/>
<path d="M78.6392 49.6465H59.8901C59.7801 49.6527 59.6766 49.7006 59.6006 49.7804C59.5246 49.8602 59.4818 49.9659 59.481 50.0761V54.8637C59.4818 54.9743 59.5244 55.0805 59.6003 55.161C59.6762 55.2414 59.7798 55.2902 59.8901 55.2974H78.6392C78.6931 55.2977 78.7465 55.2874 78.7963 55.267C78.8462 55.2467 78.8915 55.2167 78.9297 55.1787C78.9674 55.1397 78.997 55.0935 79.0167 55.0429C79.0363 54.9924 79.0457 54.9384 79.0443 54.8841V50.0966C79.0488 49.9836 79.009 49.8732 78.9333 49.7891C78.8577 49.7051 78.7521 49.6539 78.6392 49.6465ZM61.5555 54.434H60.328V50.5058H78.2178V54.434H61.5555Z" fill="#5DA0FB"/>
<path d="M88.6848 12.9751H85.5176C85.4076 12.9813 85.3041 13.0292 85.2281 13.109C85.1521 13.1888 85.1093 13.2945 85.1084 13.4047V33.3814C85.1143 33.488 85.1593 33.5887 85.2348 33.6642C85.3103 33.7397 85.411 33.7847 85.5176 33.7906H88.6848C88.7929 33.7923 88.8974 33.7511 88.9753 33.676C89.0504 33.5982 89.0916 33.4937 89.0899 33.3855V13.4047C89.0891 13.2952 89.0468 13.19 88.9717 13.1103C88.8965 13.0306 88.7941 12.9823 88.6848 12.9751ZM85.9473 13.8344H88.2551V32.9518H85.9473V13.8344Z" fill="#5DA0FB"/>
<path d="M94.4049 12.9751H91.2419C91.1279 12.9761 91.0187 13.0216 90.9377 13.1019C90.8567 13.1821 90.8102 13.2908 90.8081 13.4047V33.3814C90.8153 33.4918 90.8641 33.5954 90.9446 33.6713C91.025 33.7472 91.1313 33.7898 91.2419 33.7906H94.4049C94.4592 33.792 94.5131 33.7826 94.5637 33.7629C94.6143 33.7433 94.6605 33.7137 94.6995 33.676C94.7746 33.5982 94.8158 33.4937 94.8141 33.3855V13.4047C94.8123 13.2948 94.7692 13.1896 94.6934 13.11C94.6176 13.0304 94.5146 12.9823 94.4049 12.9751ZM91.6715 13.8344H93.9752V32.9518H91.6715V13.8344Z" fill="#5DA0FB"/>
<path d="M100.13 12.9751H96.9624C96.8488 12.9762 96.7401 13.0218 96.6597 13.1021C96.5794 13.1825 96.5338 13.2911 96.5327 13.4047V33.3814C96.5389 33.4914 96.5868 33.595 96.6666 33.671C96.7464 33.747 96.8522 33.7898 96.9624 33.7906H100.13C100.238 33.7923 100.342 33.7511 100.42 33.676C100.495 33.5982 100.536 33.4937 100.535 33.3855V13.4047C100.534 13.2952 100.492 13.19 100.416 13.1103C100.341 13.0306 100.239 12.9823 100.13 12.9751ZM97.3961 13.8344H99.6998V32.9518H97.3961V13.8344Z" fill="#5DA0FB"/>
<path d="M88.6848 36.0498H85.5176C85.411 36.0557 85.3103 36.1007 85.2348 36.1762C85.1593 36.2517 85.1143 36.3524 85.1084 36.459V40.9069C85.1143 41.0135 85.1593 41.1142 85.2348 41.1897C85.3103 41.2652 85.411 41.3102 85.5176 41.3161H88.6848C88.7929 41.3178 88.8974 41.2766 88.9753 41.2015C89.013 41.1625 89.0425 41.1163 89.0621 41.0657C89.0818 41.0151 89.0913 40.9611 89.0899 40.9069V36.4795C89.0891 36.3699 89.0468 36.2647 88.9717 36.185C88.8965 36.1054 88.7941 36.057 88.6848 36.0498ZM88.2756 40.4977H85.9677V36.9132H88.2756V40.4977Z" fill="#5DA0FB"/>
<path d="M94.4049 36.0498H91.2419C91.1313 36.0506 91.025 36.0932 90.9446 36.1691C90.8641 36.2451 90.8153 36.3486 90.8081 36.459V40.9069C90.8144 41.0176 90.8628 41.1217 90.9435 41.1978C91.0242 41.274 91.131 41.3163 91.2419 41.3161H94.4049C94.4592 41.3175 94.5131 41.3081 94.5637 41.2884C94.6143 41.2687 94.6605 41.2392 94.6995 41.2015C94.7372 41.1625 94.7667 41.1163 94.7864 41.0657C94.806 41.0151 94.8155 40.9611 94.8141 40.9069V36.4795C94.8123 36.3695 94.7692 36.2643 94.6934 36.1847C94.6176 36.1051 94.5146 36.057 94.4049 36.0498ZM93.9752 40.4977H91.6715V36.9132H93.9752V40.4977Z" fill="#5DA0FB"/>
<path d="M100.13 36.0498H96.9624C96.8522 36.0507 96.7464 36.0934 96.6666 36.1694C96.5868 36.2454 96.5389 36.349 96.5327 36.459V40.9069C96.5389 41.0169 96.5868 41.1204 96.6666 41.1964C96.7464 41.2724 96.8522 41.3152 96.9624 41.3161H100.13C100.238 41.3178 100.342 41.2766 100.42 41.2015C100.458 41.1625 100.487 41.1163 100.507 41.0657C100.527 41.0151 100.536 40.9611 100.535 40.9069V36.4795C100.534 36.3699 100.492 36.2647 100.416 36.185C100.341 36.1054 100.239 36.057 100.13 36.0498ZM99.6998 40.4977H97.3961V36.9132H99.6998V40.4977Z" fill="#5DA0FB"/>
<path d="M88.6848 43.0298H85.5176C85.4072 43.037 85.3037 43.0858 85.2278 43.1662C85.1519 43.2467 85.1092 43.3529 85.1084 43.4635V47.9073C85.1092 48.018 85.1519 48.1242 85.2278 48.2046C85.3037 48.2851 85.4072 48.3338 85.5176 48.3411H88.6848C88.7929 48.3428 88.8974 48.3016 88.9753 48.2265C89.013 48.1874 89.0425 48.1413 89.0621 48.0907C89.0818 48.0401 89.0913 47.9861 89.0899 47.9319V43.4635C89.0891 43.3536 89.047 43.2479 88.972 43.1675C88.8969 43.0872 88.7944 43.038 88.6848 43.0298ZM88.2756 47.4777H85.9677V43.8932H88.2756V47.4777Z" fill="#5DA0FB"/>
<path d="M94.4049 43.0298H91.2419C91.1272 43.0309 91.0174 43.0769 90.9363 43.158C90.8552 43.2391 90.8092 43.3488 90.8081 43.4635V47.9073C90.8092 48.022 90.8552 48.1317 90.9363 48.2129C91.0174 48.294 91.1272 48.34 91.2419 48.3411H94.4049C94.4592 48.3425 94.5131 48.3331 94.5637 48.3134C94.6143 48.2937 94.6605 48.2642 94.6995 48.2265C94.7372 48.1874 94.7667 48.1413 94.7864 48.0907C94.806 48.0401 94.8155 47.9861 94.8141 47.9319V43.4635C94.8133 43.3529 94.7706 43.2467 94.6947 43.1662C94.6188 43.0858 94.5153 43.037 94.4049 43.0298ZM93.9752 47.4777H91.6715V43.8932H93.9752V47.4777Z" fill="#5DA0FB"/>
<path d="M100.13 43.0298H96.9624C96.8484 43.0319 96.7397 43.0784 96.6595 43.1594C96.5793 43.2404 96.5338 43.3495 96.5327 43.4635V47.9073C96.5338 48.0213 96.5793 48.1304 96.6595 48.2114C96.7397 48.2924 96.8484 48.3389 96.9624 48.3411H100.13C100.238 48.3428 100.342 48.3016 100.42 48.2265C100.458 48.1874 100.487 48.1413 100.507 48.0907C100.527 48.0401 100.536 47.9861 100.535 47.9319V43.4635C100.534 43.3536 100.492 43.2479 100.417 43.1675C100.342 43.0872 100.239 43.038 100.13 43.0298ZM99.6998 47.4777H97.3961V43.8932H99.6998V47.4777Z" fill="#5DA0FB"/>
<path d="M88.6848 49.7241H85.5176C85.411 49.73 85.3103 49.775 85.2348 49.8505C85.1593 49.926 85.1143 50.0267 85.1084 50.1333V54.5812C85.1093 54.6914 85.1521 54.7971 85.2281 54.8769C85.3041 54.9567 85.4076 55.0046 85.5176 55.0109H88.6848C88.7929 55.0126 88.8974 54.9714 88.9753 54.8963C89.0504 54.8184 89.0916 54.7139 89.0899 54.6058V50.1538C89.0891 50.0442 89.0468 49.9391 88.9717 49.8594C88.8965 49.7797 88.7941 49.7314 88.6848 49.7241ZM88.2756 54.172H85.9677V50.5834H88.2756V54.172Z" fill="#5DA0FB"/>
<path d="M94.4049 49.7241H91.2419C91.1313 49.7249 91.025 49.7676 90.9446 49.8435C90.8641 49.9194 90.8153 50.0229 90.8081 50.1333V54.5812C90.8102 54.6952 90.8567 54.8039 90.9377 54.8841C91.0187 54.9643 91.1279 55.0098 91.2419 55.0109H94.4049C94.4592 55.0123 94.5131 55.0028 94.5637 54.9832C94.6143 54.9635 94.6605 54.934 94.6995 54.8963C94.7746 54.8184 94.8158 54.7139 94.8141 54.6058V50.1538C94.8123 50.0439 94.7692 49.9387 94.6934 49.8591C94.6176 49.7795 94.5146 49.7313 94.4049 49.7241ZM93.9752 54.172H91.6715V50.5834H93.9752V54.172Z" fill="#5DA0FB"/>
<path d="M100.13 49.7241H96.9624C96.8522 49.725 96.7464 49.7678 96.6666 49.8438C96.5868 49.9198 96.5389 50.0233 96.5327 50.1333V54.5812C96.5338 54.6948 96.5794 54.8035 96.6597 54.8838C96.7401 54.9642 96.8488 55.0098 96.9624 55.0109H100.13C100.238 55.0126 100.342 54.9714 100.42 54.8963C100.495 54.8184 100.536 54.7139 100.535 54.6058V50.1538C100.534 50.0442 100.492 49.9391 100.416 49.8594C100.341 49.7797 100.239 49.7314 100.13 49.7241ZM99.6998 54.172H97.3961V50.5834H99.6998V54.172Z" fill="#5DA0FB"/>
<path d="M85.4395 57.8263H100.052C100.159 57.8158 100.258 57.7658 100.331 57.686C100.403 57.6062 100.443 57.5023 100.443 57.3946C100.443 57.2868 100.403 57.1829 100.331 57.1031C100.258 57.0233 100.159 56.9733 100.052 56.9629H85.4395C85.3323 56.9733 85.2327 57.0233 85.1603 57.1031C85.0879 57.1829 85.0479 57.2868 85.0479 57.3946C85.0479 57.5023 85.0879 57.6062 85.1603 57.686C85.2327 57.7658 85.3323 57.8158 85.4395 57.8263Z" fill="#5DA0FB"/>
<path d="M85.4395 60.9322H100.052C100.159 60.9218 100.258 60.8718 100.331 60.792C100.403 60.7122 100.443 60.6083 100.443 60.5005C100.443 60.3928 100.403 60.2889 100.331 60.2091C100.258 60.1293 100.159 60.0793 100.052 60.0688H85.4395C85.3323 60.0793 85.2327 60.1293 85.1603 60.2091C85.0879 60.2889 85.0479 60.3928 85.0479 60.5005C85.0479 60.6083 85.0879 60.7122 85.1603 60.792C85.2327 60.8718 85.3323 60.9218 85.4395 60.9322Z" fill="#5DA0FB"/>
<path d="M85.4395 64.0704H100.052C100.159 64.06 100.258 64.01 100.331 63.9302C100.403 63.8504 100.443 63.7465 100.443 63.6387C100.443 63.531 100.403 63.4271 100.331 63.3473C100.258 63.2675 100.159 63.2175 100.052 63.207H85.4395C85.3323 63.2175 85.2327 63.2675 85.1603 63.3473C85.0879 63.4271 85.0479 63.531 85.0479 63.6387C85.0479 63.7465 85.0879 63.8504 85.1603 63.9302C85.2327 64.01 85.3323 64.06 85.4395 64.0704Z" fill="#5DA0FB"/>
<path d="M85.4399 67.1889H100.052C100.166 67.1889 100.275 67.1436 100.356 67.063C100.437 66.9825 100.482 66.8732 100.482 66.7592C100.482 66.6453 100.437 66.536 100.356 66.4554C100.275 66.3749 100.166 66.3296 100.052 66.3296H85.4399C85.326 66.3296 85.2167 66.3749 85.1361 66.4554C85.0556 66.536 85.0103 66.6453 85.0103 66.7592C85.0103 66.8732 85.0556 66.9825 85.1361 67.063C85.2167 67.1436 85.326 67.1889 85.4399 67.1889Z" fill="#5DA0FB"/>
<path d="M92.9932 70.1266H100.105C100.212 70.1161 100.312 70.0661 100.384 69.9863C100.457 69.9065 100.497 69.8026 100.497 69.6949C100.497 69.5871 100.457 69.4832 100.384 69.4034C100.312 69.3236 100.212 69.2736 100.105 69.2632H92.9932C92.886 69.2736 92.7865 69.3236 92.7141 69.4034C92.6417 69.4832 92.6016 69.5871 92.6016 69.6949C92.6016 69.8026 92.6417 69.9065 92.7141 69.9863C92.7865 70.0661 92.886 70.1161 92.9932 70.1266Z" fill="#5DA0FB"/>
<path d="M92.9932 73.2486H100.105C100.212 73.2382 100.312 73.1882 100.384 73.1084C100.457 73.0286 100.497 72.9247 100.497 72.8169C100.497 72.7092 100.457 72.6053 100.384 72.5255C100.312 72.4457 100.212 72.3957 100.105 72.3853H92.9932C92.886 72.3957 92.7865 72.4457 92.7141 72.5255C92.6417 72.6053 92.6016 72.7092 92.6016 72.8169C92.6016 72.9247 92.6417 73.0286 92.7141 73.1084C92.7865 73.1882 92.886 73.2382 92.9932 73.2486Z" fill="#5DA0FB"/>
<path d="M117.831 24.2359H117.623V24.064H117.66V23.0615H117.831V24.2359ZM116.407 24.2359H115.18V24.064H116.407V24.2359ZM113.981 24.2359H112.753V24.064H113.981V24.2359ZM111.554 24.2359H110.327V24.064H111.554V24.2359ZM109.124 24.2359H107.896V24.064H109.124V24.2359ZM106.697 24.2359H105.47V24.064H106.697V24.2359ZM117.66 21.8462V20.6187H117.835V21.8462H117.66Z" fill="#5DA0FB"/>
<path d="M78.8309 24.2358H77.6033V24.064H78.8309V24.2358ZM76.4044 24.2358H75.1769V24.064H76.4044V24.2358ZM73.9738 24.2358H72.7463V24.064H73.9738V24.2358ZM71.5474 24.2358H70.3198V24.064H71.5474V24.2358ZM69.1208 24.2358H67.8933V24.064H69.1208V24.2358ZM66.6903 24.2358H65.4627V24.064H66.6903V24.2358ZM64.2637 24.2358H63.0362V24.064H64.2637V24.2358ZM61.8372 24.2358H60.6097V24.064H61.8372V24.2358ZM59.4108 24.2358H58.1832V24.064H59.4108V24.2358ZM56.9801 24.2358H55.7526V24.064H56.9801V24.2358ZM54.5537 24.2358H53.3261V24.064H54.5537V24.2358ZM52.1271 24.2358H50.8996V24.064H52.1271V24.2358ZM49.7007 24.2358H48.4731V24.064H49.7007V24.2358ZM47.2701 24.2358H46.0425V24.064H47.2701V24.2358Z" fill="#5DA0FB"/>
<path d="M125.283 30.0136H124.055V29.8336H125.283V30.0136ZM122.856 30.0136H121.628V29.8336H122.856V30.0136ZM120.426 30.0136H119.198V29.8336H120.426V30.0136ZM117.999 30.0136H116.771V29.8336H117.999V30.0136ZM115.573 30.0136H114.345V29.8336H115.573V30.0136ZM113.142 30.0136H112.446V29.3262H112.618V29.8336H113.142V30.0136ZM112.618 28.1109H112.446V26.8833H112.618V28.1109Z" fill="#5DA0FB"/>
<path d="M127.627 75.9205H144.109C144.216 75.9101 144.316 75.8601 144.388 75.7803C144.461 75.7005 144.501 75.5966 144.501 75.4888C144.501 75.3811 144.461 75.2772 144.388 75.1974C144.316 75.1176 144.216 75.0676 144.109 75.0571H127.627C127.52 75.0676 127.42 75.1176 127.348 75.1974C127.275 75.2772 127.235 75.3811 127.235 75.4888C127.235 75.5966 127.275 75.7005 127.348 75.7803C127.42 75.8601 127.52 75.9101 127.627 75.9205Z" fill="#5DA0FB"/>
<path d="M151.082 73.4491C150.512 71.8825 149.631 70.4474 148.492 69.2304C148.464 69.2022 148.431 69.1804 148.395 69.1665C148.358 69.1527 148.319 69.1471 148.279 69.1502C148.24 69.1533 148.202 69.1651 148.168 69.1846C148.134 69.2041 148.105 69.2309 148.083 69.2631C148.054 69.2294 148.018 69.2023 147.978 69.1838C147.937 69.1653 147.894 69.1557 147.849 69.1557C147.805 69.1557 147.761 69.1653 147.721 69.1838C147.681 69.2023 147.645 69.2294 147.616 69.2631C147.594 69.2303 147.565 69.2029 147.531 69.1829C147.497 69.163 147.459 69.151 147.419 69.1478C147.38 69.1447 147.34 69.1505 147.304 69.1647C147.267 69.179 147.234 69.2015 147.207 69.2304C146.103 70.4285 145.236 71.8254 144.654 73.3468C144.217 74.4007 144.145 75.57 144.449 76.6694C144.858 78.0157 146.086 78.8463 147.313 79.3701C147.34 79.3832 147.369 79.3909 147.399 79.3927C147.429 79.3945 147.459 79.3903 147.487 79.3804C147.515 79.3705 147.541 79.355 147.563 79.335C147.585 79.315 147.603 79.2907 147.616 79.2637C147.645 79.2935 147.68 79.3172 147.718 79.3334C147.756 79.3496 147.798 79.3579 147.839 79.3579C147.881 79.3579 147.922 79.3496 147.96 79.3334C147.998 79.3172 148.033 79.2935 148.062 79.2637C148.074 79.2915 148.091 79.3165 148.113 79.3373C148.135 79.3581 148.161 79.3742 148.19 79.3845C148.218 79.3949 148.248 79.3993 148.278 79.3975C148.308 79.3957 148.338 79.3878 148.365 79.3742C149.593 78.8463 150.714 78.0689 151.229 76.7717C151.63 75.7078 151.438 74.4925 151.082 73.4491ZM150.673 74.1038L148.107 76.6694V73.6455L149.744 72.0088C149.944 72.3607 150.124 72.7248 150.288 73.089C150.446 73.4174 150.58 73.7565 150.689 74.1038H150.673ZM149.445 71.4809L148.091 72.8353V69.6805C148.607 70.2372 149.071 70.8398 149.478 71.4809H149.445ZM147.518 69.6846V72.8271L146.159 71.4727C146.569 70.8366 147.035 70.2382 147.551 69.6846H147.518ZM145.857 71.9801L147.518 73.6414V76.6613L144.96 74.1079C145.048 73.7999 145.152 73.4966 145.271 73.1995C145.454 72.7815 145.66 72.3744 145.889 71.9801H145.857ZM144.862 76.2193C144.751 75.7457 144.736 75.2546 144.817 74.7749L147.518 77.4755V78.8668C147.491 78.8458 147.463 78.8279 147.432 78.8136C146.282 78.3144 145.226 77.5165 144.895 76.2193H144.862ZM150.771 76.1211C150.513 77.4633 149.376 78.3144 148.181 78.8136C148.148 78.8284 148.118 78.8477 148.091 78.8709V77.4796L150.795 74.779C150.872 75.2229 150.875 75.6763 150.804 76.1211H150.771Z" fill="#5DA0FB"/>
<path d="M147.522 79.657L147.583 82.4313C147.583 82.5073 147.614 82.5801 147.667 82.6338C147.721 82.6876 147.794 82.7177 147.87 82.7177C147.946 82.7177 148.019 82.6876 148.072 82.6338C148.126 82.5801 148.156 82.5073 148.156 82.4313C148.137 81.5065 148.118 80.5818 148.099 79.657C148.091 79.5864 148.057 79.5213 148.003 79.4741C147.95 79.4269 147.882 79.4009 147.81 79.4009C147.739 79.4009 147.671 79.4269 147.618 79.4741C147.564 79.5213 147.53 79.5864 147.522 79.657Z" fill="#5DA0FB"/>
<path d="M37.0241 48.1331H36.7949V47.5602H37.0241V48.1331ZM37.0241 46.4104H36.7949V45.2606H37.0241V46.4104ZM37.0241 44.1107H36.7949V42.9609H37.0241V44.1107ZM37.0241 41.8152H36.7949V40.6654H37.0241V41.8152ZM37.0241 39.5155H36.7949V38.3657H37.0241V39.5155ZM37.0241 37.2159H36.7949V36.0702H37.0241V37.2159ZM37.0241 34.9203H36.7949V33.7705H37.0241V34.9203Z" fill="#5DA0FB"/>
</svg>
