<svg width="57" height="60" viewBox="0 0 57 60" fill="none" xmlns="http://www.w3.org/2000/svg">
<path d="M30.491 30.7963C30.7188 29.3878 29.7617 28.0612 28.3532 27.8333C26.9446 27.6054 25.618 28.5625 25.3902 29.9711C25.1623 31.3796 26.1194 32.7062 27.5279 32.9341C28.9365 33.162 30.2631 32.2049 30.491 30.7963Z" fill="#F5CD70" stroke="#F5CD70" stroke-width="1.08" stroke-miterlimit="10"/>
<path d="M27.9537 0.970364V25.2609C27.9537 25.4375 27.6346 25.5472 27.3824 25.4562C25.0784 24.6322 17.0798 20.2497 27.2134 0.903477C27.3449 0.657334 27.9537 0.710844 27.9537 0.970364Z" fill="#F5CD70"/>
<path d="M55.795 42.223L33.3154 33.0768C33.1526 33.0093 33.1686 32.672 33.3474 32.4696C34.9649 30.629 41.9928 24.8131 56.1313 41.5591C56.3289 41.7723 56.0433 42.3228 55.795 42.223Z" fill="#F5CD70"/>
<path d="M0.303633 44.5487L21.7044 33.2535C21.8615 33.1732 22.1037 33.4036 22.141 33.6688C22.4763 36.08 22.3007 45.2051 0.580469 45.2345C0.306305 45.2345 0.0747193 44.6692 0.303633 44.5487Z" fill="#F5CD70"/>
<path d="M0.595344 59.4813H10.5731C10.6751 59.4813 10.773 59.4418 10.8452 59.3715C10.9174 59.3012 10.958 59.2058 10.958 59.1064C10.958 59.0069 10.9174 58.9116 10.8452 58.8413C10.773 58.7709 10.6751 58.7314 10.5731 58.7314H0.595344C0.493263 58.7314 0.395378 58.7709 0.323196 58.8413C0.251013 58.9116 0.210449 59.0069 0.210449 59.1064C0.210449 59.2058 0.251013 59.3012 0.323196 59.3715C0.395378 59.4418 0.493263 59.4813 0.595344 59.4813Z" fill="#5DA0FB"/>
<path d="M48.5535 59.4813H50.0944C50.1884 59.4813 50.2785 59.4418 50.3449 59.3715C50.4114 59.3012 50.4487 59.2058 50.4487 59.1064C50.4487 59.0069 50.4114 58.9116 50.3449 58.8413C50.2785 58.7709 50.1884 58.7314 50.0944 58.7314H48.5535C48.4595 58.7314 48.3694 58.7709 48.303 58.8413C48.2365 58.9116 48.1992 59.0069 48.1992 59.1064C48.1992 59.2058 48.2365 59.3012 48.303 59.3715C48.3694 59.4418 48.4595 59.4813 48.5535 59.4813Z" fill="#5DA0FB"/>
<path d="M52.0771 59.4813H55.5694C55.6698 59.4813 55.766 59.4418 55.8369 59.3715C55.9079 59.3012 55.9477 59.2058 55.9477 59.1064C55.9477 59.0069 55.9079 58.9116 55.8369 58.8413C55.766 58.7709 55.6698 58.7314 55.5694 58.7314H52.0771C51.9767 58.7314 51.8805 58.7709 51.8095 58.8413C51.7386 58.9116 51.6987 59.0069 51.6987 59.1064C51.6987 59.2058 51.7386 59.3012 51.8095 59.3715C51.8805 59.4418 51.9767 59.4813 52.0771 59.4813Z" fill="#5DA0FB"/>
<path d="M26.7063 30.3417C26.7063 30.6455 26.8379 30.9369 27.072 31.1518C27.3062 31.3666 27.6238 31.4873 27.9549 31.4873C28.2861 31.4873 28.6037 31.3666 28.8378 31.1518C29.072 30.9369 29.2035 30.6455 29.2035 30.3417C29.1164 28.8738 26.6192 28.8658 26.7063 30.3417Z" fill="white"/>
<path d="M29.9492 30.3627C29.955 30.3263 29.955 30.2893 29.9492 30.2529C29.9099 29.7807 29.6845 29.339 29.3167 29.0133C28.9489 28.6877 28.465 28.5014 27.9587 28.4905C26.8404 28.4356 26.0017 29.39 25.957 30.3627C25.8983 31.4087 26.9187 32.1931 27.9587 32.235C29.0462 32.2899 29.8402 31.4087 29.9492 30.4752C29.9551 30.4379 29.9551 30.4 29.9492 30.3627ZM26.7454 30.3627C26.6615 28.9141 29.0658 28.922 29.1497 30.3627C29.1497 30.661 29.023 30.9469 28.7976 31.1578C28.5721 31.3687 28.2663 31.4871 27.9475 31.4871C27.6287 31.4871 27.3229 31.3687 27.0975 31.1578C26.872 30.9469 26.7454 30.661 26.7454 30.3627Z" fill="#5DA0FB"/>
<path d="M55.8985 41.1622C54.8638 39.7421 53.3929 38.5943 51.9726 37.5933C48.084 34.8626 43.4427 33.3224 38.7907 32.5777C38.312 32.5003 38.1045 33.2343 38.5886 33.3117C43.1448 34.0511 47.5893 35.5353 51.43 38.1459C52.4326 38.82 53.375 39.58 54.2467 40.4175L31.4098 31.267C30.955 31.0828 30.7582 31.8222 31.2077 32.0011L55.4676 41.7228C55.5404 41.7419 55.6172 41.7392 55.6884 41.7148C55.7596 41.6904 55.8221 41.6456 55.8681 41.5858C55.914 41.526 55.9414 41.4539 55.9468 41.3786C55.9522 41.3033 55.9354 41.228 55.8985 41.1622Z" fill="#5DA0FB"/>
<path d="M24.8838 31.5342L1.89905 43.5018C1.54049 43.6869 1.74349 44.1762 2.08887 44.2053C3.81312 44.3454 5.64547 43.9646 7.30118 43.5388C11.8649 42.3645 16.0015 39.8546 19.5792 36.8396C19.9536 36.5248 19.4158 35.9932 19.0519 36.3106C15.5481 39.2569 11.5485 41.6293 7.10608 42.8141C5.97495 43.1319 4.81704 43.3443 3.64703 43.4489L25.2661 32.198C25.6958 31.9626 25.3162 31.3094 24.8838 31.5342Z" fill="#5DA0FB"/>
<path d="M27.7155 0.673513C26.708 2.16258 26.1417 3.99875 25.7115 5.70773C24.5597 10.2809 24.8234 15.0899 25.8253 19.6631C25.928 20.14 26.6941 19.9281 26.5886 19.4617C25.5977 14.9336 25.3868 10.2306 26.5275 5.71038C26.7952 4.58779 27.1668 3.49009 27.6378 2.43019C27.523 10.5821 27.4102 18.7358 27.2992 26.8912C27.3075 26.9859 27.3527 27.0741 27.426 27.1384C27.4992 27.2027 27.5951 27.2384 27.6947 27.2384C27.7942 27.2384 27.8901 27.2027 27.9633 27.1384C28.0366 27.0741 28.0819 26.9859 28.0902 26.8912C28.2123 18.2182 28.3335 9.54522 28.4538 0.872232C28.4529 0.78977 28.424 0.709799 28.3715 0.644307C28.3191 0.578814 28.2457 0.531328 28.1626 0.508949C28.0794 0.486569 27.9909 0.490504 27.9103 0.520172C27.8297 0.54984 27.7614 0.603641 27.7155 0.673513Z" fill="#5DA0FB"/>
<path d="M46.0653 58.7223H28.2133V34.6161C28.2133 34.5155 28.1732 34.419 28.1019 34.3479C28.0305 34.2768 27.9338 34.2368 27.8329 34.2368C27.732 34.2368 27.6353 34.2768 27.5639 34.3479C27.4926 34.419 27.4525 34.5155 27.4525 34.6161V58.7223H13.0879C12.987 58.7223 12.8903 58.7623 12.8189 58.8334C12.7476 58.9046 12.7075 59.0011 12.7075 59.1017C12.7075 59.2023 12.7476 59.2987 12.8189 59.3699C12.8903 59.441 12.987 59.481 13.0879 59.481H46.0733C46.1742 59.4799 46.2705 59.4389 46.3411 59.3671C46.4117 59.2952 46.4507 59.1983 46.4497 59.0977C46.4486 58.9971 46.4075 58.901 46.3354 58.8306C46.2634 58.7602 46.1662 58.7213 46.0653 58.7223Z" fill="#5DA0FB"/>
<path d="M35.2021 42.7198L35.3674 42.9847C35.6522 42.9096 35.937 42.8288 36.2019 42.7423L36.0168 42.4849C35.749 42.5676 35.4756 42.6465 35.2021 42.7198Z" fill="#5DA0FB"/>
<path d="M36.7021 42.0274L36.9135 42.4846C37.1792 42.3072 37.4448 42.1195 37.7019 41.925L37.4677 41.4849C37.2192 41.6725 36.9621 41.8704 36.7021 42.0274Z" fill="#5DA0FB"/>
<path d="M33.7026 43.2696L33.8153 43.7347C34.1043 43.6493 34.4135 43.5512 34.7024 43.4436L34.5637 42.9849C34.2834 43.0893 33.9916 43.1842 33.7026 43.2696Z" fill="#5DA0FB"/>
<path d="M40.4512 38.9433L40.8182 39.2356C41.0365 38.9988 41.2485 38.7503 41.4509 38.5019L41.065 38.2358C40.8625 38.4726 40.6631 38.7123 40.4512 38.9433Z" fill="#5DA0FB"/>
<path d="M39.4517 40.1448L39.6796 40.4851C39.8573 40.2633 40.0328 40.0323 40.2015 39.8014L39.9576 39.4854C39.7966 39.7102 39.6279 39.93 39.4517 40.1448Z" fill="#5DA0FB"/>
<path d="M38.2017 41.1928L38.3962 41.4852C38.5864 41.3366 38.7722 41.181 38.9515 41.0136L38.7329 40.7354C38.5667 40.8981 38.3853 41.049 38.2017 41.1928Z" fill="#5DA0FB"/>
<path d="M9.64022 29.9878L9.2085 30.0123C9.2227 30.3363 9.24542 30.6665 9.2795 30.9876L9.70838 30.9386C9.67714 30.6237 9.65442 30.3058 9.64022 29.9878Z" fill="#5DA0FB"/>
<path d="M9.81219 31.7373L9.4585 31.8108C9.50094 32.1049 9.55046 32.4313 9.60705 32.7371L9.95838 32.6341C9.89472 32.3401 9.8452 32.0372 9.81219 31.7373Z" fill="#5DA0FB"/>
<path d="M9.70838 28.5163L9.25066 28.4883C9.22657 28.7382 9.21151 28.9905 9.2085 29.2381H9.66622C9.67224 29.0022 9.68429 28.7569 9.70838 28.5163Z" fill="#5DA0FB"/>
<path d="M11.5387 36.2363L11.208 36.4575C11.3443 36.7218 11.4882 36.9833 11.6397 37.2361L11.9578 36.9919C11.8139 36.7477 11.6725 36.492 11.5387 36.2363Z" fill="#5DA0FB"/>
<path d="M10.8412 34.9868L10.458 35.1171C10.5738 35.3308 10.7006 35.5444 10.8357 35.7366L11.2078 35.5892C11.081 35.3927 10.957 35.1919 10.8412 34.9868Z" fill="#5DA0FB"/>
<path d="M10.1567 33.2373L9.70801 33.3652C9.80327 33.6558 9.90776 33.9464 10.0153 34.2371L10.4578 34.0859C10.3472 33.8157 10.2489 33.5279 10.1567 33.2373Z" fill="#5DA0FB"/>
<path d="M35.9683 14.4915L36.202 14.1562C36.0329 13.9285 35.8549 13.704 35.6746 13.4917L35.4521 13.8485C35.6279 14.0546 35.8015 14.2731 35.9683 14.4915Z" fill="#5DA0FB"/>
<path d="M34.7552 13.492L34.9525 13.0947C34.7683 12.8862 34.5776 12.6843 34.3847 12.4922L34.2026 12.909C34.389 13.0947 34.5754 13.29 34.7552 13.492Z" fill="#5DA0FB"/>
<path d="M37.1772 15.741L37.452 15.4495C37.296 15.2076 37.1306 14.9686 36.963 14.7412L36.7021 15.0327C36.8652 15.2746 37.0235 15.5049 37.1772 15.741Z" fill="#5DA0FB"/>
<path d="M30.3313 11.242L30.4534 10.7576C30.1628 10.6581 29.8518 10.5685 29.5495 10.4922L29.4536 10.9832C29.7471 11.0595 30.0407 11.1458 30.3313 11.242Z" fill="#5DA0FB"/>
<path d="M31.8278 11.742L31.9534 11.3335C31.7404 11.211 31.5274 11.0972 31.3144 10.9922L31.2036 11.4123C31.4145 11.5115 31.6233 11.6253 31.8278 11.742Z" fill="#5DA0FB"/>
<path d="M33.4853 12.492L33.7024 12.1435C33.4396 12.0009 33.1682 11.8663 32.8969 11.7422L32.7026 12.1013C32.9654 12.2227 33.2282 12.3547 33.4853 12.492Z" fill="#5DA0FB"/>
</svg>
